{"glyphs":{"0":{"ha":708,"x_min":40,"x_max":668,"o":"m 668 396 q 626 165 668 257 q 511 28 585 74 q 343 -17 438 -17 q 188 27 257 -17 q 80 160 119 71 q 40 385 40 250 q 83 602 40 514 q 199 736 126 690 q 360 782 272 782 q 514 739 444 782 q 626 610 583 696 q 668 396 668 525 m 553 382 q 502 632 553 551 q 354 713 451 713 q 206 632 257 713 q 156 382 156 551 q 206 133 156 214 q 354 51 257 51 q 502 133 451 51 q 553 382 553 214 z "},"1":{"ha":708,"x_min":139,"x_max":640,"o":"m 468 79 l 640 46 q 638 19 640 39 q 618 0 635 0 l 394 6 l 168 0 q 149 19 151 0 q 146 46 146 39 l 360 79 l 360 693 l 175 647 q 157 663 165 647 q 144 697 149 679 q 139 719 139 714 q 167 726 139 719 q 239 742 196 733 q 326 760 282 751 q 403 776 371 769 q 443 782 436 782 q 460 767 451 778 q 468 739 468 757 l 468 79 z "},"2":{"ha":708,"x_min":40,"x_max":642,"o":"m 593 576 q 553 427 593 494 q 450 301 514 360 q 313 185 386 242 l 153 60 l 154 54 l 553 89 l 553 197 q 565 213 553 208 q 590 219 576 218 q 610 219 604 219 q 615 192 610 219 q 626 128 619 165 q 637 60 632 92 q 642 19 642 28 q 633 5 640 10 q 608 0 626 0 l 72 0 l 40 44 l 296 272 q 379 353 338 310 q 449 451 421 397 q 476 569 476 506 q 430 681 476 649 q 324 713 383 713 q 253 703 289 713 q 188 676 217 693 l 193 575 q 181 562 193 567 q 156 555 169 557 q 138 553 143 553 q 131 576 138 553 q 117 633 125 600 q 103 693 110 665 q 97 728 97 721 q 201 767 139 751 q 326 782 264 782 q 453 763 392 782 q 553 698 514 743 q 593 576 593 653 z "},"3":{"ha":708,"x_min":78,"x_max":631,"o":"m 264 331 l 256 378 q 383 419 333 388 q 456 492 432 450 q 479 576 479 535 q 442 671 479 629 q 335 713 404 713 q 206 676 264 713 l 211 575 q 199 562 211 567 q 174 555 188 557 q 156 553 161 553 q 149 576 156 553 q 135 633 143 600 q 122 693 128 665 q 115 728 117 721 q 220 767 160 751 q 340 782 281 782 q 460 763 403 782 q 556 699 518 743 q 593 581 593 654 q 540 451 593 508 q 410 367 486 394 q 574 285 517 349 q 631 149 631 222 q 589 18 631 72 q 481 -65 547 -36 q 340 -94 414 -94 q 198 -79 268 -94 q 78 -40 128 -64 q 84 -6 78 -33 q 98 55 90 22 q 111 111 106 88 q 118 135 117 135 q 135 133 122 135 q 160 126 149 131 q 172 113 172 122 l 168 11 q 314 -26 238 -26 q 415 -8 368 -26 q 490 49 461 11 q 519 146 519 88 q 453 274 519 219 q 264 331 388 329 z "},"4":{"ha":708,"x_min":21,"x_max":689,"o":"m 551 0 l 683 -32 q 681 -58 683 -39 q 663 -78 678 -78 q 656 -78 663 -78 q 615 -76 649 -78 q 499 -72 581 -75 q 390 -75 428 -74 q 334 -77 351 -76 q 313 -78 317 -78 q 310 -78 310 -78 q 292 -58 294 -78 q 289 -32 289 -39 l 449 0 l 449 124 l 60 124 q 31 128 42 124 q 21 146 21 132 q 36 195 21 153 q 78 303 51 238 l 303 856 l 404 825 l 117 186 l 449 186 l 449 526 q 463 531 449 528 q 497 536 478 533 q 526 539 515 539 q 543 524 535 535 q 551 496 551 514 l 551 186 l 689 186 l 689 124 l 551 124 l 551 0 z "},"5":{"ha":708,"x_min":76,"x_max":631,"o":"m 147 354 l 161 739 l 576 774 q 603 770 594 774 q 614 754 613 767 q 609 714 614 746 q 598 645 604 682 q 587 581 592 608 q 581 554 582 554 q 563 555 576 554 q 537 560 549 556 q 525 576 525 565 l 525 685 l 250 685 l 219 400 q 240 401 231 401 q 260 401 250 401 q 477 365 396 401 q 594 272 558 329 q 631 149 631 214 q 588 18 631 72 q 480 -65 546 -36 q 340 -94 414 -94 q 198 -79 268 -94 q 76 -40 128 -64 q 83 -6 76 -33 q 97 55 89 22 q 110 111 104 88 q 117 135 117 135 q 135 133 122 135 q 160 126 149 131 q 172 113 172 122 l 167 11 q 240 -17 201 -7 q 314 -26 278 -26 q 415 -8 368 -26 q 490 49 461 11 q 518 146 518 88 q 452 274 518 219 q 265 329 386 329 q 188 322 226 329 l 147 354 z "},"6":{"ha":708,"x_min":68,"x_max":650,"o":"m 547 935 l 585 878 q 328 670 413 768 q 213 486 244 572 l 372 486 q 509 460 446 486 q 611 379 572 433 q 650 243 650 325 q 608 103 650 161 q 501 14 567 44 q 361 -17 435 -17 q 222 17 289 -17 q 111 122 154 51 q 68 306 68 193 q 133 563 68 450 q 306 767 197 676 q 547 935 414 858 m 356 419 q 273 413 315 419 q 190 399 231 407 q 186 324 186 360 q 235 126 186 197 q 357 56 283 56 q 479 103 426 56 q 532 242 532 151 q 509 351 532 313 q 446 404 486 389 q 356 419 406 419 z "},"7":{"ha":708,"x_min":75,"x_max":651,"o":"m 296 -94 l 185 -68 l 551 685 l 164 685 l 164 576 q 152 560 164 565 q 127 555 140 556 q 108 554 114 554 q 102 581 107 554 q 91 645 97 608 q 80 714 85 682 q 75 754 75 746 q 86 770 78 767 q 113 774 94 774 l 588 746 l 613 783 l 651 758 l 296 -94 z "},"8":{"ha":708,"x_min":65,"x_max":646,"o":"m 65 221 q 83 307 65 260 q 142 400 101 354 q 247 481 182 446 q 138 579 181 521 q 96 718 96 638 q 127 823 96 775 q 217 899 158 871 q 358 928 275 928 q 491 899 433 928 q 581 823 549 871 q 613 714 613 775 q 576 594 613 660 q 456 479 539 528 q 546 415 503 451 q 617 329 589 378 q 646 215 646 281 q 611 100 646 153 q 510 15 576 47 q 350 -17 444 -17 q 201 15 265 -17 q 101 100 138 46 q 65 221 65 154 m 206 718 q 243 624 206 665 q 328 556 281 583 l 403 511 q 478 607 456 553 q 501 707 501 661 q 466 814 501 768 q 357 860 431 860 q 245 820 285 860 q 206 718 206 781 m 419 375 l 303 446 q 213 340 243 400 q 182 228 182 279 q 223 104 182 157 q 351 51 264 51 q 438 71 399 51 q 503 126 478 90 q 528 211 528 161 q 494 312 528 272 q 419 375 460 351 z "},"9":{"ha":708,"x_min":67,"x_max":650,"o":"m 142 -135 q 386 90 306 -11 q 497 275 467 190 l 349 275 q 209 302 274 275 q 106 385 144 329 q 67 524 67 440 q 108 662 67 604 q 215 751 150 719 q 353 782 281 782 q 494 747 426 782 q 606 640 563 713 q 650 453 650 568 q 611 250 650 342 q 506 81 572 158 q 356 -61 439 4 q 183 -185 272 -126 l 142 -135 m 185 524 q 226 388 185 443 q 371 333 267 333 q 438 339 401 333 q 518 357 475 344 q 523 399 521 378 q 525 440 525 419 q 481 640 525 568 q 357 711 438 711 q 235 664 286 711 q 185 524 185 617 z "},"A":{"ha":917,"x_min":-18,"x_max":938,"o":"m 172 72 l 304 42 q 301 17 304 33 q 283 0 299 0 q 276 0 283 0 q 237 1 269 0 q 129 6 204 3 q 42 1 69 3 q 9 0 15 0 q 3 0 3 0 q -15 17 -12 0 q -18 42 -18 35 l 86 72 l 406 972 l 511 972 l 833 72 l 938 42 q 935 17 938 35 q 917 0 932 0 q 908 0 917 0 q 869 1 899 0 q 779 6 840 3 q 669 1 704 3 q 624 0 635 0 q 614 0 614 0 q 596 17 599 0 q 593 42 593 33 l 718 72 l 631 318 l 249 299 l 172 72 m 440 860 l 276 379 l 610 379 l 440 860 z "},"Á":{"ha":917,"x_min":-18,"x_max":938,"o":"m 172 72 l 304 42 q 301 17 304 33 q 283 0 299 0 q 276 0 283 0 q 237 1 269 0 q 129 6 204 3 q 42 1 69 3 q 9 0 15 0 q 3 0 3 0 q -15 17 -12 0 q -18 42 -18 35 l 86 72 l 406 972 l 511 972 l 833 72 l 938 42 q 935 17 938 35 q 917 0 932 0 q 908 0 917 0 q 869 1 899 0 q 779 6 840 3 q 669 1 704 3 q 624 0 635 0 q 614 0 614 0 q 596 17 599 0 q 593 42 593 33 l 718 72 l 631 318 l 249 299 l 172 72 m 440 860 l 276 379 l 610 379 l 440 860 m 328 1058 l 313 1085 q 351 1112 313 1085 q 452 1185 390 1139 q 579 1283 514 1231 q 592 1262 583 1279 q 607 1224 600 1244 q 614 1190 614 1204 q 607 1174 614 1178 q 506 1121 561 1144 q 401 1081 450 1097 q 328 1058 353 1065 z "},"Ă":{"ha":917,"x_min":-18,"x_max":938,"o":"m 172 72 l 304 42 q 301 17 304 33 q 283 0 299 0 q 276 0 283 0 q 237 1 269 0 q 129 6 204 3 q 42 1 69 3 q 9 0 15 0 q 3 0 3 0 q -15 17 -12 0 q -18 42 -18 35 l 86 72 l 406 972 l 511 972 l 833 72 l 938 42 q 935 17 938 35 q 917 0 932 0 q 908 0 917 0 q 869 1 899 0 q 779 6 840 3 q 669 1 704 3 q 624 0 635 0 q 614 0 614 0 q 596 17 599 0 q 593 42 593 33 l 718 72 l 631 318 l 249 299 l 172 72 m 440 860 l 276 379 l 610 379 l 440 860 m 464 1140 q 535 1175 504 1140 q 588 1268 565 1210 l 635 1257 q 564 1101 601 1156 q 464 1047 526 1047 q 364 1101 401 1047 q 293 1257 326 1156 l 340 1268 q 394 1175 364 1210 q 464 1140 425 1140 z "},"Â":{"ha":917,"x_min":-18,"x_max":938,"o":"m 172 72 l 304 42 q 301 17 304 33 q 283 0 299 0 q 276 0 283 0 q 237 1 269 0 q 129 6 204 3 q 42 1 69 3 q 9 0 15 0 q 3 0 3 0 q -15 17 -12 0 q -18 42 -18 35 l 86 72 l 406 972 l 511 972 l 833 72 l 938 42 q 935 17 938 35 q 917 0 932 0 q 908 0 917 0 q 869 1 899 0 q 779 6 840 3 q 669 1 704 3 q 624 0 635 0 q 614 0 614 0 q 596 17 599 0 q 593 42 593 33 l 718 72 l 631 318 l 249 299 l 172 72 m 440 860 l 276 379 l 610 379 l 440 860 m 464 1188 l 329 1046 l 293 1069 q 374 1190 339 1135 q 432 1290 408 1246 l 494 1290 q 553 1190 518 1246 q 633 1069 588 1135 l 597 1046 l 464 1188 z "},"Ä":{"ha":917,"x_min":-18,"x_max":938,"o":"m 172 72 l 304 42 q 301 17 304 33 q 283 0 299 0 q 276 0 283 0 q 237 1 269 0 q 129 6 204 3 q 42 1 69 3 q 9 0 15 0 q 3 0 3 0 q -15 17 -12 0 q -18 42 -18 35 l 86 72 l 406 972 l 511 972 l 833 72 l 938 42 q 935 17 938 35 q 917 0 932 0 q 908 0 917 0 q 869 1 899 0 q 779 6 840 3 q 669 1 704 3 q 624 0 635 0 q 614 0 614 0 q 596 17 599 0 q 593 42 593 33 l 718 72 l 631 318 l 249 299 l 172 72 m 440 860 l 276 379 l 610 379 l 440 860 m 363 1250 q 395 1229 386 1250 q 404 1181 404 1208 q 400 1132 404 1154 q 396 1110 396 1110 q 374 1104 396 1110 q 332 1099 351 1099 q 297 1120 306 1099 q 289 1168 289 1142 q 294 1219 289 1196 q 299 1242 299 1242 q 322 1246 299 1242 q 363 1250 344 1250 m 596 1250 q 628 1229 619 1250 q 638 1181 638 1208 q 633 1132 638 1154 q 629 1110 629 1110 q 607 1104 629 1110 q 565 1099 585 1099 q 531 1120 539 1099 q 522 1168 522 1142 q 527 1219 522 1196 q 532 1242 532 1242 q 555 1246 532 1242 q 596 1250 578 1250 z "},"À":{"ha":917,"x_min":-18,"x_max":938,"o":"m 172 72 l 304 42 q 301 17 304 33 q 283 0 299 0 q 276 0 283 0 q 237 1 269 0 q 129 6 204 3 q 42 1 69 3 q 9 0 15 0 q 3 0 3 0 q -15 17 -12 0 q -18 42 -18 35 l 86 72 l 406 972 l 511 972 l 833 72 l 938 42 q 935 17 938 35 q 917 0 932 0 q 908 0 917 0 q 869 1 899 0 q 779 6 840 3 q 669 1 704 3 q 624 0 635 0 q 614 0 614 0 q 596 17 599 0 q 593 42 593 33 l 718 72 l 631 318 l 249 299 l 172 72 m 440 860 l 276 379 l 610 379 l 440 860 m 614 1085 l 599 1058 q 525 1081 574 1065 q 422 1121 476 1097 q 319 1174 367 1144 q 313 1190 313 1178 q 319 1224 313 1204 q 335 1262 326 1244 q 347 1283 344 1279 q 475 1185 414 1231 q 575 1112 536 1139 q 614 1085 614 1085 z "},"Ā":{"ha":917,"x_min":-18,"x_max":938,"o":"m 172 72 l 304 42 q 301 17 304 33 q 283 0 299 0 q 276 0 283 0 q 237 1 269 0 q 129 6 204 3 q 42 1 69 3 q 9 0 15 0 q 3 0 3 0 q -15 17 -12 0 q -18 42 -18 35 l 86 72 l 406 972 l 511 972 l 833 72 l 938 42 q 935 17 938 35 q 917 0 932 0 q 908 0 917 0 q 869 1 899 0 q 779 6 840 3 q 669 1 704 3 q 624 0 635 0 q 614 0 614 0 q 596 17 599 0 q 593 42 593 33 l 718 72 l 631 318 l 249 299 l 172 72 m 440 860 l 276 379 l 610 379 l 440 860 m 268 1131 l 268 1218 l 658 1218 l 658 1131 l 268 1131 z "},"Ą":{"ha":917,"x_min":-18,"x_max":938,"o":"m 172 72 l 304 42 q 301 17 304 33 q 283 0 299 0 q 276 0 283 0 q 237 1 269 0 q 129 6 204 3 q 42 1 69 3 q 9 0 15 0 q 3 0 3 0 q -15 17 -12 0 q -18 42 -18 35 l 86 72 l 406 972 l 511 972 l 833 72 l 938 42 q 935 17 938 35 q 917 0 932 0 q 908 0 917 0 q 869 1 899 0 q 779 6 840 3 q 669 1 704 3 q 624 0 635 0 q 614 0 614 0 q 596 17 599 0 q 593 42 593 33 l 718 72 l 631 318 l 249 299 l 172 72 m 440 860 l 276 379 l 610 379 l 440 860 m 782 6 l 892 6 q 788 -42 828 -11 q 728 -110 747 -74 q 710 -181 710 -147 q 734 -239 710 -221 q 789 -257 758 -257 q 865 -233 831 -257 q 889 -275 883 -250 q 840 -305 871 -292 q 769 -318 810 -318 q 663 -280 700 -318 q 626 -190 626 -242 q 664 -84 626 -139 q 782 6 701 -29 z "},"Å":{"ha":917,"x_min":-18,"x_max":938,"o":"m 172 72 l 304 42 q 301 17 304 33 q 283 0 299 0 q 276 0 283 0 q 237 1 269 0 q 129 6 204 3 q 42 1 69 3 q 9 0 15 0 q 3 0 3 0 q -15 17 -12 0 q -18 42 -18 35 l 86 72 l 406 972 l 511 972 l 833 72 l 938 42 q 935 17 938 35 q 917 0 932 0 q 908 0 917 0 q 869 1 899 0 q 779 6 840 3 q 669 1 704 3 q 624 0 635 0 q 614 0 614 0 q 596 17 599 0 q 593 42 593 33 l 718 72 l 631 318 l 249 299 l 172 72 m 440 860 l 276 379 l 610 379 l 440 860 m 592 1181 q 555 1085 592 1117 q 460 1054 518 1054 q 371 1085 407 1054 q 335 1178 335 1115 q 374 1267 335 1236 q 465 1299 413 1299 q 555 1269 518 1299 q 592 1181 592 1240 m 399 1178 q 418 1119 399 1138 q 464 1100 438 1100 q 510 1119 492 1100 q 528 1178 528 1138 q 510 1233 528 1214 q 464 1253 492 1253 q 426 1246 440 1253 q 406 1221 413 1240 q 399 1178 399 1201 z "},"Ǻ":{"ha":917,"x_min":-18,"x_max":938,"o":"m 456 1054 q 367 1085 403 1054 q 331 1178 331 1115 q 364 1263 331 1232 q 446 1297 397 1293 q 529 1358 476 1319 q 639 1443 582 1397 q 649 1426 642 1440 q 662 1394 656 1411 q 668 1364 668 1376 q 663 1350 668 1354 q 596 1314 632 1331 q 525 1285 560 1297 q 570 1246 553 1272 q 588 1181 588 1219 q 551 1085 588 1117 q 456 1054 514 1054 m 460 1100 q 506 1119 488 1100 q 524 1178 524 1138 q 506 1233 524 1214 q 460 1253 488 1253 q 422 1246 436 1253 q 401 1221 408 1240 q 394 1178 394 1201 q 414 1119 394 1138 q 460 1100 433 1100 m 172 72 l 304 42 q 301 17 304 33 q 283 0 299 0 q 276 0 283 0 q 237 1 269 0 q 129 6 204 3 q 42 1 69 3 q 9 0 15 0 q 3 0 3 0 q -15 17 -12 0 q -18 42 -18 35 l 86 72 l 406 972 l 511 972 l 833 72 l 938 42 q 935 17 938 35 q 917 0 932 0 q 908 0 917 0 q 869 1 899 0 q 779 6 840 3 q 669 1 704 3 q 624 0 635 0 q 614 0 614 0 q 596 17 599 0 q 593 42 593 33 l 718 72 l 631 318 l 249 299 l 172 72 m 440 860 l 276 379 l 610 379 l 440 860 z "},"Ã":{"ha":917,"x_min":-18,"x_max":938,"o":"m 172 72 l 304 42 q 301 17 304 33 q 283 0 299 0 q 276 0 283 0 q 237 1 269 0 q 129 6 204 3 q 42 1 69 3 q 9 0 15 0 q 3 0 3 0 q -15 17 -12 0 q -18 42 -18 35 l 86 72 l 406 972 l 511 972 l 833 72 l 938 42 q 935 17 938 35 q 917 0 932 0 q 908 0 917 0 q 869 1 899 0 q 779 6 840 3 q 669 1 704 3 q 624 0 635 0 q 614 0 614 0 q 596 17 599 0 q 593 42 593 33 l 718 72 l 631 318 l 249 299 l 172 72 m 440 860 l 276 379 l 610 379 l 440 860 m 660 1243 l 683 1217 q 613 1134 649 1156 q 543 1113 578 1113 q 479 1122 510 1113 q 418 1141 449 1132 q 354 1150 388 1150 q 310 1139 332 1150 q 268 1108 289 1128 l 244 1135 q 315 1217 281 1196 q 385 1239 350 1239 q 449 1230 418 1239 q 510 1211 479 1221 q 574 1201 542 1201 q 618 1213 597 1201 q 660 1243 639 1224 z "},"Æ":{"ha":1201,"x_min":-18,"x_max":1181,"o":"m 1007 771 l 1007 901 l 600 897 l 681 531 l 1072 531 l 1072 471 l 697 451 l 779 76 l 1086 76 l 1122 207 q 1135 221 1122 217 q 1162 226 1147 225 q 1181 226 1176 226 l 1169 17 q 1140 0 1169 0 q 1135 0 1139 0 q 1111 1 1131 0 q 1048 3 1092 1 q 927 6 1004 4 q 729 11 850 8 l 564 0 q 546 17 549 0 q 543 42 543 33 l 668 72 l 615 318 l 267 301 l 172 72 l 304 42 q 301 17 304 33 q 283 0 299 0 q 276 0 283 0 q 237 1 269 0 q 129 6 204 3 q 42 1 69 3 q 9 0 15 0 q 3 0 3 0 q -15 17 -12 0 q -18 42 -18 35 l 86 72 l 469 972 l 585 967 l 1056 972 q 1087 971 1075 972 q 1100 958 1099 969 l 1067 751 q 1047 752 1061 751 q 1019 757 1032 753 q 1007 771 1007 761 m 499 864 l 299 379 l 603 379 l 499 864 z "},"Ǽ":{"ha":1201,"x_min":-18,"x_max":1181,"o":"m 1007 771 l 1007 901 l 600 897 l 681 531 l 1072 531 l 1072 471 l 697 451 l 779 76 l 1086 76 l 1122 207 q 1135 221 1122 217 q 1162 226 1147 225 q 1181 226 1176 226 l 1169 17 q 1140 0 1169 0 q 1135 0 1139 0 q 1111 1 1131 0 q 1048 3 1092 1 q 927 6 1004 4 q 729 11 850 8 l 564 0 q 546 17 549 0 q 543 42 543 33 l 668 72 l 615 318 l 267 301 l 172 72 l 304 42 q 301 17 304 33 q 283 0 299 0 q 276 0 283 0 q 237 1 269 0 q 129 6 204 3 q 42 1 69 3 q 9 0 15 0 q 3 0 3 0 q -15 17 -12 0 q -18 42 -18 35 l 86 72 l 469 972 l 585 967 l 1056 972 q 1087 971 1075 972 q 1100 958 1099 969 l 1067 751 q 1047 752 1061 751 q 1019 757 1032 753 q 1007 771 1007 761 m 499 864 l 299 379 l 603 379 l 499 864 m 638 1058 l 622 1085 q 661 1112 622 1085 q 762 1185 700 1139 q 889 1283 824 1231 q 901 1262 893 1279 q 917 1224 910 1244 q 924 1190 924 1204 q 917 1174 924 1178 q 815 1121 871 1144 q 711 1081 760 1097 q 638 1058 663 1065 z "},"B":{"ha":850,"x_min":69,"x_max":788,"o":"m 710 735 q 672 610 710 669 q 558 519 633 551 q 731 420 674 492 q 788 267 788 349 q 753 133 788 194 q 655 36 719 72 q 500 0 590 0 q 492 0 499 0 q 462 1 485 0 q 388 5 439 3 q 244 11 336 7 l 90 0 q 72 17 75 0 q 69 42 69 35 l 186 72 l 186 900 l 69 931 q 72 955 69 938 q 90 972 75 972 q 99 972 90 972 q 138 971 107 972 q 233 967 168 969 q 355 971 318 969 q 401 972 392 972 q 414 972 411 972 q 578 938 513 972 q 676 849 643 903 q 710 735 710 794 m 396 919 l 285 900 l 297 533 l 411 533 q 519 569 476 540 q 584 642 563 599 q 606 731 606 685 q 582 822 606 779 q 512 892 558 865 q 396 919 465 919 m 464 61 q 585 91 538 61 q 654 167 632 121 q 676 265 676 214 q 651 369 676 319 q 572 451 625 419 q 439 483 519 483 l 297 467 l 285 81 q 390 66 340 71 q 464 61 439 61 z "},"C":{"ha":892,"x_min":56,"x_max":822,"o":"m 822 269 l 811 71 q 681 8 767 32 q 504 -17 594 -17 q 274 40 376 -17 q 114 208 172 96 q 56 492 56 321 q 119 765 56 654 q 290 933 183 876 q 526 989 397 989 q 813 906 689 989 l 776 699 q 756 699 771 699 q 727 704 740 700 q 714 718 714 708 l 714 872 q 624 897 679 886 q 518 907 568 907 q 413 897 467 907 q 318 874 358 888 q 216 724 254 826 q 178 489 178 621 q 223 247 178 343 q 345 104 268 151 q 518 57 422 57 q 728 108 643 57 l 760 250 q 776 263 763 260 q 803 268 789 267 q 822 269 818 269 z "},"Ć":{"ha":892,"x_min":56,"x_max":822,"o":"m 822 269 l 811 71 q 681 8 767 32 q 504 -17 594 -17 q 274 40 376 -17 q 114 208 172 96 q 56 492 56 321 q 119 765 56 654 q 290 933 183 876 q 526 989 397 989 q 813 906 689 989 l 776 699 q 756 699 771 699 q 727 704 740 700 q 714 718 714 708 l 714 872 q 624 897 679 886 q 518 907 568 907 q 413 897 467 907 q 318 874 358 888 q 216 724 254 826 q 178 489 178 621 q 223 247 178 343 q 345 104 268 151 q 518 57 422 57 q 728 108 643 57 l 760 250 q 776 263 763 260 q 803 268 789 267 q 822 269 818 269 m 381 1058 l 365 1085 q 404 1112 365 1085 q 505 1185 443 1139 q 632 1283 567 1231 q 644 1262 636 1279 q 660 1224 653 1244 q 667 1190 667 1204 q 660 1174 667 1178 q 558 1121 614 1144 q 454 1081 503 1097 q 381 1058 406 1065 z "},"Č":{"ha":892,"x_min":56,"x_max":822,"o":"m 822 269 l 811 71 q 681 8 767 32 q 504 -17 594 -17 q 274 40 376 -17 q 114 208 172 96 q 56 492 56 321 q 119 765 56 654 q 290 933 183 876 q 526 989 397 989 q 813 906 689 989 l 776 699 q 756 699 771 699 q 727 704 740 700 q 714 718 714 708 l 714 872 q 624 897 679 886 q 518 907 568 907 q 413 897 467 907 q 318 874 358 888 q 216 724 254 826 q 178 489 178 621 q 223 247 178 343 q 345 104 268 151 q 518 57 422 57 q 728 108 643 57 l 760 250 q 776 263 763 260 q 803 268 789 267 q 822 269 818 269 m 508 1149 l 651 1290 l 686 1267 q 532 1046 586 1136 l 469 1046 q 419 1146 450 1090 q 346 1267 388 1201 l 383 1290 l 508 1149 z "},"Ç":{"ha":892,"x_min":56,"x_max":822,"o":"m 822 269 l 811 71 q 681 8 767 32 q 504 -17 594 -17 q 274 40 376 -17 q 114 208 172 96 q 56 492 56 321 q 119 765 56 654 q 290 933 183 876 q 526 989 397 989 q 813 906 689 989 l 776 699 q 756 699 771 699 q 727 704 740 700 q 714 718 714 708 l 714 872 q 624 897 679 886 q 518 907 568 907 q 413 897 467 907 q 318 874 358 888 q 216 724 254 826 q 178 489 178 621 q 223 247 178 343 q 345 104 268 151 q 518 57 422 57 q 728 108 643 57 l 760 250 q 776 263 763 260 q 803 268 789 267 q 822 269 818 269 m 378 -115 l 425 0 l 469 0 l 446 -78 q 541 -121 511 -86 q 571 -196 571 -156 q 532 -283 571 -243 q 428 -324 493 -324 q 358 -310 388 -324 q 308 -281 328 -297 l 335 -239 q 411 -265 368 -265 q 465 -244 446 -265 q 483 -197 483 -224 q 458 -142 483 -168 q 378 -115 433 -117 z "},"Ĉ":{"ha":892,"x_min":56,"x_max":822,"o":"m 822 269 l 811 71 q 681 8 767 32 q 504 -17 594 -17 q 274 40 376 -17 q 114 208 172 96 q 56 492 56 321 q 119 765 56 654 q 290 933 183 876 q 526 989 397 989 q 813 906 689 989 l 776 699 q 756 699 771 699 q 727 704 740 700 q 714 718 714 708 l 714 872 q 624 897 679 886 q 518 907 568 907 q 413 897 467 907 q 318 874 358 888 q 216 724 254 826 q 178 489 178 621 q 223 247 178 343 q 345 104 268 151 q 518 57 422 57 q 728 108 643 57 l 760 250 q 776 263 763 260 q 803 268 789 267 q 822 269 818 269 m 517 1188 l 382 1046 l 346 1069 q 426 1190 392 1135 q 485 1290 461 1246 l 547 1290 q 606 1190 571 1246 q 686 1069 640 1135 l 650 1046 l 517 1188 z "},"Ċ":{"ha":892,"x_min":56,"x_max":822,"o":"m 822 269 l 811 71 q 681 8 767 32 q 504 -17 594 -17 q 274 40 376 -17 q 114 208 172 96 q 56 492 56 321 q 119 765 56 654 q 290 933 183 876 q 526 989 397 989 q 813 906 689 989 l 776 699 q 756 699 771 699 q 727 704 740 700 q 714 718 714 708 l 714 872 q 624 897 679 886 q 518 907 568 907 q 413 897 467 907 q 318 874 358 888 q 216 724 254 826 q 178 489 178 621 q 223 247 178 343 q 345 104 268 151 q 518 57 422 57 q 728 108 643 57 l 760 250 q 776 263 763 260 q 803 268 789 267 q 822 269 818 269 m 533 1258 q 570 1235 560 1258 q 581 1181 581 1211 q 576 1128 581 1153 q 571 1103 571 1103 q 546 1097 571 1103 q 500 1090 521 1090 q 461 1115 471 1090 q 451 1167 451 1139 q 457 1223 451 1197 q 463 1249 463 1249 q 488 1253 463 1249 q 533 1258 514 1258 z "},"D":{"ha":1039,"x_min":69,"x_max":983,"o":"m 186 900 l 69 931 q 72 955 69 938 q 90 972 75 972 q 101 972 90 972 q 146 971 113 972 q 244 967 179 969 l 528 989 q 757 935 654 989 q 922 774 860 882 q 983 504 983 667 q 922 215 983 329 q 752 47 860 101 q 506 -8 644 -8 l 244 11 l 90 0 q 72 17 75 0 q 69 42 69 35 l 186 72 l 186 900 m 519 57 q 694 103 617 57 q 816 246 771 150 q 861 489 861 342 q 816 726 861 632 q 694 867 771 819 q 519 914 617 914 q 415 908 475 914 q 289 888 354 903 l 303 486 l 289 85 q 404 65 346 72 q 519 57 463 57 z "},"Ð":{"ha":1039,"x_min":26,"x_max":983,"o":"m 186 900 l 69 931 q 72 955 69 938 q 90 972 75 972 q 101 972 90 972 q 146 971 113 972 q 244 967 179 969 l 528 989 q 757 935 654 989 q 922 774 860 882 q 983 504 983 667 q 922 215 983 329 q 752 47 860 101 q 506 -8 644 -8 l 244 11 l 90 0 q 72 17 75 0 q 69 42 69 35 l 186 72 l 186 469 l 26 469 l 26 515 l 186 515 l 186 900 m 519 57 q 694 103 617 57 q 816 246 771 150 q 861 489 861 342 q 816 726 861 632 q 694 867 771 819 q 519 914 617 914 q 415 908 475 914 q 289 888 354 903 l 301 515 l 551 515 l 551 469 l 303 469 l 289 85 q 404 65 346 72 q 519 57 463 57 z "},"Ď":{"ha":1039,"x_min":69,"x_max":983,"o":"m 186 900 l 69 931 q 72 955 69 938 q 90 972 75 972 q 101 972 90 972 q 146 971 113 972 q 244 967 179 969 l 528 989 q 757 935 654 989 q 922 774 860 882 q 983 504 983 667 q 922 215 983 329 q 752 47 860 101 q 506 -8 644 -8 l 244 11 l 90 0 q 72 17 75 0 q 69 42 69 35 l 186 72 l 186 900 m 519 57 q 694 103 617 57 q 816 246 771 150 q 861 489 861 342 q 816 726 861 632 q 694 867 771 819 q 519 914 617 914 q 415 908 475 914 q 289 888 354 903 l 303 486 l 289 85 q 404 65 346 72 q 519 57 463 57 m 511 1149 l 654 1290 l 689 1267 q 535 1046 589 1136 l 472 1046 q 422 1146 453 1090 q 349 1267 390 1201 l 386 1290 l 511 1149 z "},"Đ":{"ha":1039,"x_min":26,"x_max":983,"o":"m 186 900 l 69 931 q 72 955 69 938 q 90 972 75 972 q 101 972 90 972 q 146 971 113 972 q 244 967 179 969 l 528 989 q 757 935 654 989 q 922 774 860 882 q 983 504 983 667 q 922 215 983 329 q 752 47 860 101 q 506 -8 644 -8 l 244 11 l 90 0 q 72 17 75 0 q 69 42 69 35 l 186 72 l 186 469 l 26 469 l 26 515 l 186 515 l 186 900 m 519 57 q 694 103 617 57 q 816 246 771 150 q 861 489 861 342 q 816 726 861 632 q 694 867 771 819 q 519 914 617 914 q 415 908 475 914 q 289 888 354 903 l 301 515 l 551 515 l 551 469 l 303 469 l 289 85 q 404 65 346 72 q 519 57 463 57 z "},"E":{"ha":835,"x_min":69,"x_max":765,"o":"m 657 771 l 657 901 l 289 897 l 301 531 l 657 531 l 657 471 l 301 453 l 289 76 l 671 76 l 707 207 q 719 221 707 217 q 747 226 732 225 q 765 226 761 226 l 754 17 q 744 3 753 6 q 714 0 735 0 l 236 11 l 90 0 q 72 17 75 0 q 69 42 69 35 l 186 72 l 186 900 l 69 931 q 72 955 69 938 q 90 972 75 972 q 99 972 90 972 q 138 971 107 972 q 233 967 168 969 l 706 972 q 737 971 725 972 q 750 958 749 969 l 717 751 q 697 752 711 751 q 669 757 682 753 q 657 771 657 761 z "},"É":{"ha":835,"x_min":69,"x_max":765,"o":"m 657 771 l 657 901 l 289 897 l 301 531 l 657 531 l 657 471 l 301 453 l 289 76 l 671 76 l 707 207 q 719 221 707 217 q 747 226 732 225 q 765 226 761 226 l 754 17 q 744 3 753 6 q 714 0 735 0 l 236 11 l 90 0 q 72 17 75 0 q 69 42 69 35 l 186 72 l 186 900 l 69 931 q 72 955 69 938 q 90 972 75 972 q 99 972 90 972 q 138 971 107 972 q 233 967 168 969 l 706 972 q 737 971 725 972 q 750 958 749 969 l 717 751 q 697 752 711 751 q 669 757 682 753 q 657 771 657 761 m 308 1058 l 293 1085 q 332 1112 293 1085 q 433 1185 371 1139 q 560 1283 494 1231 q 572 1262 564 1279 q 588 1224 581 1244 q 594 1190 594 1204 q 588 1174 594 1178 q 486 1121 542 1144 q 382 1081 431 1097 q 308 1058 333 1065 z "},"Ĕ":{"ha":835,"x_min":69,"x_max":765,"o":"m 657 771 l 657 901 l 289 897 l 301 531 l 657 531 l 657 471 l 301 453 l 289 76 l 671 76 l 707 207 q 719 221 707 217 q 747 226 732 225 q 765 226 761 226 l 754 17 q 744 3 753 6 q 714 0 735 0 l 236 11 l 90 0 q 72 17 75 0 q 69 42 69 35 l 186 72 l 186 900 l 69 931 q 72 955 69 938 q 90 972 75 972 q 99 972 90 972 q 138 971 107 972 q 233 967 168 969 l 706 972 q 737 971 725 972 q 750 958 749 969 l 717 751 q 697 752 711 751 q 669 757 682 753 q 657 771 657 761 m 444 1140 q 515 1175 485 1140 q 568 1268 546 1210 l 615 1257 q 544 1101 582 1156 q 444 1047 507 1047 q 344 1101 382 1047 q 274 1257 307 1156 l 321 1268 q 375 1175 344 1210 q 444 1140 406 1140 z "},"Ě":{"ha":835,"x_min":69,"x_max":765,"o":"m 657 771 l 657 901 l 289 897 l 301 531 l 657 531 l 657 471 l 301 453 l 289 76 l 671 76 l 707 207 q 719 221 707 217 q 747 226 732 225 q 765 226 761 226 l 754 17 q 744 3 753 6 q 714 0 735 0 l 236 11 l 90 0 q 72 17 75 0 q 69 42 69 35 l 186 72 l 186 900 l 69 931 q 72 955 69 938 q 90 972 75 972 q 99 972 90 972 q 138 971 107 972 q 233 967 168 969 l 706 972 q 737 971 725 972 q 750 958 749 969 l 717 751 q 697 752 711 751 q 669 757 682 753 q 657 771 657 761 m 436 1149 l 579 1290 l 614 1267 q 460 1046 514 1136 l 397 1046 q 347 1146 378 1090 q 274 1267 315 1201 l 311 1290 l 436 1149 z "},"Ê":{"ha":835,"x_min":69,"x_max":765,"o":"m 657 771 l 657 901 l 289 897 l 301 531 l 657 531 l 657 471 l 301 453 l 289 76 l 671 76 l 707 207 q 719 221 707 217 q 747 226 732 225 q 765 226 761 226 l 754 17 q 744 3 753 6 q 714 0 735 0 l 236 11 l 90 0 q 72 17 75 0 q 69 42 69 35 l 186 72 l 186 900 l 69 931 q 72 955 69 938 q 90 972 75 972 q 99 972 90 972 q 138 971 107 972 q 233 967 168 969 l 706 972 q 737 971 725 972 q 750 958 749 969 l 717 751 q 697 752 711 751 q 669 757 682 753 q 657 771 657 761 m 444 1188 l 310 1046 l 274 1069 q 354 1190 319 1135 q 413 1290 389 1246 l 475 1290 q 533 1190 499 1246 q 614 1069 568 1135 l 578 1046 l 444 1188 z "},"Ë":{"ha":835,"x_min":69,"x_max":765,"o":"m 657 771 l 657 901 l 289 897 l 301 531 l 657 531 l 657 471 l 301 453 l 289 76 l 671 76 l 707 207 q 719 221 707 217 q 747 226 732 225 q 765 226 761 226 l 754 17 q 744 3 753 6 q 714 0 735 0 l 236 11 l 90 0 q 72 17 75 0 q 69 42 69 35 l 186 72 l 186 900 l 69 931 q 72 955 69 938 q 90 972 75 972 q 99 972 90 972 q 138 971 107 972 q 233 967 168 969 l 706 972 q 737 971 725 972 q 750 958 749 969 l 717 751 q 697 752 711 751 q 669 757 682 753 q 657 771 657 761 m 343 1250 q 376 1229 367 1250 q 385 1181 385 1208 q 381 1132 385 1154 q 376 1110 376 1110 q 354 1104 376 1110 q 313 1099 332 1099 q 278 1120 286 1099 q 269 1168 269 1142 q 274 1219 269 1196 q 279 1242 279 1242 q 302 1246 279 1242 q 343 1250 325 1250 m 576 1250 q 609 1229 600 1250 q 618 1181 618 1208 q 614 1132 618 1154 q 610 1110 610 1110 q 588 1104 610 1110 q 546 1099 565 1099 q 511 1120 519 1099 q 503 1168 503 1142 q 508 1219 503 1196 q 513 1242 513 1242 q 535 1246 513 1242 q 576 1250 558 1250 z "},"Ė":{"ha":835,"x_min":69,"x_max":765,"o":"m 657 771 l 657 901 l 289 897 l 301 531 l 657 531 l 657 471 l 301 453 l 289 76 l 671 76 l 707 207 q 719 221 707 217 q 747 226 732 225 q 765 226 761 226 l 754 17 q 744 3 753 6 q 714 0 735 0 l 236 11 l 90 0 q 72 17 75 0 q 69 42 69 35 l 186 72 l 186 900 l 69 931 q 72 955 69 938 q 90 972 75 972 q 99 972 90 972 q 138 971 107 972 q 233 967 168 969 l 706 972 q 737 971 725 972 q 750 958 749 969 l 717 751 q 697 752 711 751 q 669 757 682 753 q 657 771 657 761 m 461 1258 q 498 1235 488 1258 q 508 1181 508 1211 q 503 1128 508 1153 q 499 1103 499 1103 q 474 1097 499 1103 q 428 1090 449 1090 q 389 1115 399 1090 q 379 1167 379 1139 q 385 1223 379 1197 q 390 1249 390 1249 q 416 1253 390 1249 q 461 1258 442 1258 z "},"È":{"ha":835,"x_min":69,"x_max":765,"o":"m 657 771 l 657 901 l 289 897 l 301 531 l 657 531 l 657 471 l 301 453 l 289 76 l 671 76 l 707 207 q 719 221 707 217 q 747 226 732 225 q 765 226 761 226 l 754 17 q 744 3 753 6 q 714 0 735 0 l 236 11 l 90 0 q 72 17 75 0 q 69 42 69 35 l 186 72 l 186 900 l 69 931 q 72 955 69 938 q 90 972 75 972 q 99 972 90 972 q 138 971 107 972 q 233 967 168 969 l 706 972 q 737 971 725 972 q 750 958 749 969 l 717 751 q 697 752 711 751 q 669 757 682 753 q 657 771 657 761 m 594 1085 l 579 1058 q 506 1081 554 1065 q 402 1121 457 1097 q 300 1174 347 1144 q 293 1190 293 1178 q 300 1224 293 1204 q 316 1262 307 1244 q 328 1283 325 1279 q 456 1185 394 1231 q 556 1112 517 1139 q 594 1085 594 1085 z "},"Ē":{"ha":835,"x_min":69,"x_max":765,"o":"m 657 771 l 657 901 l 289 897 l 301 531 l 657 531 l 657 471 l 301 453 l 289 76 l 671 76 l 707 207 q 719 221 707 217 q 747 226 732 225 q 765 226 761 226 l 754 17 q 744 3 753 6 q 714 0 735 0 l 236 11 l 90 0 q 72 17 75 0 q 69 42 69 35 l 186 72 l 186 900 l 69 931 q 72 955 69 938 q 90 972 75 972 q 99 972 90 972 q 138 971 107 972 q 233 967 168 969 l 706 972 q 737 971 725 972 q 750 958 749 969 l 717 751 q 697 752 711 751 q 669 757 682 753 q 657 771 657 761 m 249 1131 l 249 1218 l 639 1218 l 639 1131 l 249 1131 z "},"Ę":{"ha":835,"x_min":69,"x_max":765,"o":"m 657 771 l 657 901 l 289 897 l 301 531 l 657 531 l 657 471 l 301 453 l 289 76 l 671 76 l 707 207 q 719 221 707 217 q 747 226 732 225 q 765 226 761 226 l 754 17 q 744 3 753 6 q 714 0 735 0 l 236 11 l 90 0 q 72 17 75 0 q 69 42 69 35 l 186 72 l 186 900 l 69 931 q 72 955 69 938 q 90 972 75 972 q 99 972 90 972 q 138 971 107 972 q 233 967 168 969 l 706 972 q 737 971 725 972 q 750 958 749 969 l 717 751 q 697 752 711 751 q 669 757 682 753 q 657 771 657 761 m 619 6 l 729 6 q 625 -42 665 -11 q 566 -110 585 -74 q 547 -181 547 -147 q 572 -239 547 -221 q 626 -257 596 -257 q 703 -233 668 -257 q 726 -275 721 -250 q 678 -305 708 -292 q 607 -318 647 -318 q 501 -280 538 -318 q 464 -190 464 -242 q 501 -84 464 -139 q 619 6 539 -29 z "},"F":{"ha":764,"x_min":69,"x_max":708,"o":"m 615 771 l 615 901 l 289 897 l 301 510 l 643 508 l 643 449 l 300 431 l 289 72 l 443 42 q 440 17 443 35 q 422 0 438 0 q 376 1 422 0 q 233 6 331 1 q 138 1 168 3 q 99 0 107 0 q 90 0 90 0 q 72 17 75 0 q 69 42 69 35 l 186 72 l 186 900 l 69 931 q 72 955 69 938 q 90 972 75 972 q 99 972 90 972 q 138 971 107 972 q 233 967 168 969 l 664 972 q 695 971 683 972 q 708 958 707 969 l 675 751 q 655 752 669 751 q 628 757 640 753 q 615 771 615 761 z "},"G":{"ha":924,"x_min":56,"x_max":840,"o":"m 828 154 l 840 100 q 668 11 756 39 q 490 -17 581 -17 q 268 40 367 -17 q 113 208 169 96 q 56 492 56 321 q 119 765 56 654 q 290 933 183 876 q 526 989 397 989 q 833 906 701 989 l 797 699 q 776 699 792 699 q 748 704 761 700 q 735 718 735 708 l 735 872 q 635 897 696 886 q 518 907 574 907 q 413 897 467 907 q 318 874 358 888 q 216 724 254 826 q 178 489 178 621 q 221 247 178 343 q 338 104 264 151 q 504 57 413 57 q 633 78 567 57 q 744 135 699 100 l 721 425 l 464 440 l 464 500 l 828 500 l 828 154 z "},"Ğ":{"ha":924,"x_min":56,"x_max":840,"o":"m 828 154 l 840 100 q 668 11 756 39 q 490 -17 581 -17 q 268 40 367 -17 q 113 208 169 96 q 56 492 56 321 q 119 765 56 654 q 290 933 183 876 q 526 989 397 989 q 833 906 701 989 l 797 699 q 776 699 792 699 q 748 704 761 700 q 735 718 735 708 l 735 872 q 635 897 696 886 q 518 907 574 907 q 413 897 467 907 q 318 874 358 888 q 216 724 254 826 q 178 489 178 621 q 221 247 178 343 q 338 104 264 151 q 504 57 413 57 q 633 78 567 57 q 744 135 699 100 l 721 425 l 464 440 l 464 500 l 828 500 l 828 154 m 518 1140 q 589 1175 558 1140 q 642 1268 619 1210 l 689 1257 q 618 1101 656 1156 q 518 1047 581 1047 q 418 1101 456 1047 q 347 1257 381 1156 l 394 1268 q 449 1175 418 1210 q 518 1140 479 1140 z "},"Ĝ":{"ha":924,"x_min":56,"x_max":840,"o":"m 828 154 l 840 100 q 668 11 756 39 q 490 -17 581 -17 q 268 40 367 -17 q 113 208 169 96 q 56 492 56 321 q 119 765 56 654 q 290 933 183 876 q 526 989 397 989 q 833 906 701 989 l 797 699 q 776 699 792 699 q 748 704 761 700 q 735 718 735 708 l 735 872 q 635 897 696 886 q 518 907 574 907 q 413 897 467 907 q 318 874 358 888 q 216 724 254 826 q 178 489 178 621 q 221 247 178 343 q 338 104 264 151 q 504 57 413 57 q 633 78 567 57 q 744 135 699 100 l 721 425 l 464 440 l 464 500 l 828 500 l 828 154 m 518 1188 l 383 1046 l 347 1069 q 428 1190 393 1135 q 486 1290 463 1246 l 549 1290 q 607 1190 572 1246 q 688 1069 642 1135 l 651 1046 l 518 1188 z "},"Ģ":{"ha":924,"x_min":56,"x_max":840,"o":"m 828 154 l 840 100 q 668 11 756 39 q 490 -17 581 -17 q 268 40 367 -17 q 113 208 169 96 q 56 492 56 321 q 119 765 56 654 q 290 933 183 876 q 526 989 397 989 q 833 906 701 989 l 797 699 q 776 699 792 699 q 748 704 761 700 q 735 718 735 708 l 735 872 q 635 897 696 886 q 518 907 574 907 q 413 897 467 907 q 318 874 358 888 q 216 724 254 826 q 178 489 178 621 q 221 247 178 343 q 338 104 264 151 q 504 57 413 57 q 633 78 567 57 q 744 135 699 100 l 721 425 l 464 440 l 464 500 l 828 500 l 828 154 m 415 -426 l 399 -385 q 464 -333 440 -365 q 488 -258 488 -300 l 488 -251 q 476 -253 481 -253 q 465 -253 472 -253 q 414 -169 414 -253 q 417 -127 414 -150 q 425 -79 419 -104 q 467 -72 444 -75 q 507 -69 489 -69 q 553 -112 535 -69 q 571 -221 571 -154 q 527 -347 571 -290 q 415 -426 483 -403 z "},"Ġ":{"ha":924,"x_min":56,"x_max":840,"o":"m 828 154 l 840 100 q 668 11 756 39 q 490 -17 581 -17 q 268 40 367 -17 q 113 208 169 96 q 56 492 56 321 q 119 765 56 654 q 290 933 183 876 q 526 989 397 989 q 833 906 701 989 l 797 699 q 776 699 792 699 q 748 704 761 700 q 735 718 735 708 l 735 872 q 635 897 696 886 q 518 907 574 907 q 413 897 467 907 q 318 874 358 888 q 216 724 254 826 q 178 489 178 621 q 221 247 178 343 q 338 104 264 151 q 504 57 413 57 q 633 78 567 57 q 744 135 699 100 l 721 425 l 464 440 l 464 500 l 828 500 l 828 154 m 535 1258 q 572 1235 561 1258 q 582 1181 582 1211 q 577 1128 582 1153 q 572 1103 572 1103 q 547 1097 572 1103 q 501 1090 522 1090 q 463 1115 472 1090 q 453 1167 453 1139 q 458 1223 453 1197 q 464 1249 464 1249 q 490 1253 464 1249 q 535 1258 515 1258 z "},"H":{"ha":1096,"x_min":69,"x_max":1026,"o":"m 1026 931 l 910 900 l 910 72 l 1026 42 q 1024 17 1026 35 q 1006 0 1021 0 q 997 0 1006 0 q 958 1 989 0 q 863 6 928 3 q 767 1 799 3 q 726 0 736 0 q 717 0 717 0 q 699 17 701 0 q 696 42 696 35 l 807 72 l 793 472 l 301 453 l 289 72 l 400 42 q 397 17 400 35 q 379 0 394 0 q 369 0 379 0 q 329 1 360 0 q 233 6 299 3 q 138 1 168 3 q 99 0 107 0 q 90 0 90 0 q 72 17 75 0 q 69 42 69 35 l 186 72 l 186 900 l 69 931 q 72 955 69 938 q 90 972 75 972 q 99 972 90 972 q 138 971 107 972 q 233 967 168 969 q 329 971 299 969 q 369 972 360 972 q 379 972 379 972 q 397 955 394 972 q 400 931 400 938 l 289 900 l 301 533 l 794 533 l 807 900 l 696 931 q 699 955 696 938 q 717 972 701 972 q 726 972 717 972 q 767 971 736 972 q 863 967 799 969 q 958 971 928 969 q 997 972 989 972 q 1006 972 1006 972 q 1024 955 1021 972 q 1026 931 1026 938 z "},"Ħ":{"ha":1096,"x_min":69,"x_max":1026,"o":"m 1019 738 l 1019 692 l 910 692 l 910 72 l 1026 42 q 1024 17 1026 35 q 1006 0 1021 0 q 997 0 1006 0 q 958 1 989 0 q 863 6 928 3 q 767 1 799 3 q 726 0 736 0 q 717 0 717 0 q 699 17 701 0 q 696 42 696 35 l 807 72 l 793 472 l 301 453 l 289 72 l 400 42 q 397 17 400 35 q 379 0 394 0 q 369 0 379 0 q 329 1 360 0 q 233 6 299 3 q 138 1 168 3 q 99 0 107 0 q 90 0 90 0 q 72 17 75 0 q 69 42 69 35 l 186 72 l 186 692 l 75 692 l 75 738 l 186 738 l 186 900 l 69 931 q 72 955 69 938 q 90 972 75 972 q 99 972 90 972 q 138 971 107 972 q 233 967 168 969 q 329 971 299 969 q 369 972 360 972 q 379 972 379 972 q 397 955 394 972 q 400 931 400 938 l 289 900 l 294 738 l 801 738 l 807 900 l 696 931 q 699 955 696 938 q 717 972 701 972 q 726 972 717 972 q 767 971 736 972 q 863 967 799 969 q 958 971 928 969 q 997 972 989 972 q 1006 972 1006 972 q 1024 955 1021 972 q 1026 931 1026 938 l 910 900 l 910 738 l 1019 738 m 301 533 l 794 533 l 800 692 l 296 692 l 301 533 z "},"Ĥ":{"ha":1096,"x_min":69,"x_max":1026,"o":"m 1026 931 l 910 900 l 910 72 l 1026 42 q 1024 17 1026 35 q 1006 0 1021 0 q 997 0 1006 0 q 958 1 989 0 q 863 6 928 3 q 767 1 799 3 q 726 0 736 0 q 717 0 717 0 q 699 17 701 0 q 696 42 696 35 l 807 72 l 793 472 l 301 453 l 289 72 l 400 42 q 397 17 400 35 q 379 0 394 0 q 369 0 379 0 q 329 1 360 0 q 233 6 299 3 q 138 1 168 3 q 99 0 107 0 q 90 0 90 0 q 72 17 75 0 q 69 42 69 35 l 186 72 l 186 900 l 69 931 q 72 955 69 938 q 90 972 75 972 q 99 972 90 972 q 138 971 107 972 q 233 967 168 969 q 329 971 299 969 q 369 972 360 972 q 379 972 379 972 q 397 955 394 972 q 400 931 400 938 l 289 900 l 301 533 l 794 533 l 807 900 l 696 931 q 699 955 696 938 q 717 972 701 972 q 726 972 717 972 q 767 971 736 972 q 863 967 799 969 q 958 971 928 969 q 997 972 989 972 q 1006 972 1006 972 q 1024 955 1021 972 q 1026 931 1026 938 m 549 1188 l 414 1046 l 378 1069 q 458 1190 424 1135 q 517 1290 493 1246 l 579 1290 q 638 1190 603 1246 q 718 1069 672 1135 l 682 1046 l 549 1188 z "},"I":{"ha":479,"x_min":69,"x_max":410,"o":"m 189 900 l 69 931 q 72 955 69 938 q 90 972 75 972 q 102 972 90 972 q 147 971 114 972 q 246 967 181 969 q 341 971 311 969 q 380 972 371 972 q 389 972 389 972 q 407 955 404 972 q 410 931 410 938 l 290 900 l 297 486 l 290 72 l 410 42 q 407 17 410 35 q 389 0 404 0 q 380 0 389 0 q 341 1 371 0 q 246 6 311 3 q 147 1 181 3 q 102 0 114 0 q 90 0 90 0 q 72 17 75 0 q 69 42 69 35 l 189 72 l 182 486 l 189 900 z "},"Ĳ":{"ha":917,"x_min":69,"x_max":890,"o":"m 189 900 l 69 931 q 72 955 69 938 q 90 972 75 972 q 102 972 90 972 q 147 971 114 972 q 246 967 181 969 q 341 971 311 969 q 380 972 371 972 q 389 972 389 972 q 407 955 404 972 q 410 931 410 938 l 290 900 l 297 486 l 290 72 l 410 42 q 407 17 410 35 q 389 0 404 0 q 380 0 389 0 q 341 1 371 0 q 246 6 311 3 q 147 1 181 3 q 102 0 114 0 q 90 0 90 0 q 72 17 75 0 q 69 42 69 35 l 189 72 l 182 486 l 189 900 m 664 221 l 664 900 l 532 931 q 535 955 532 938 q 554 972 538 972 q 586 972 554 972 q 715 967 618 971 q 814 971 781 969 q 858 972 847 972 q 869 972 869 972 q 888 954 885 972 q 890 929 890 936 l 774 900 l 774 258 q 703 -19 774 115 q 515 -283 632 -154 l 474 -254 q 612 -23 560 -142 q 664 221 664 96 z "},"Í":{"ha":479,"x_min":69,"x_max":410,"o":"m 189 900 l 69 931 q 72 955 69 938 q 90 972 75 972 q 102 972 90 972 q 147 971 114 972 q 246 967 181 969 q 341 971 311 969 q 380 972 371 972 q 389 972 389 972 q 407 955 404 972 q 410 931 410 938 l 290 900 l 297 486 l 290 72 l 410 42 q 407 17 410 35 q 389 0 404 0 q 380 0 389 0 q 341 1 371 0 q 246 6 311 3 q 147 1 181 3 q 102 0 114 0 q 90 0 90 0 q 72 17 75 0 q 69 42 69 35 l 189 72 l 182 486 l 189 900 m 104 1058 l 89 1085 q 128 1112 89 1085 q 228 1185 167 1139 q 356 1283 290 1231 q 368 1262 360 1279 q 383 1224 376 1244 q 390 1190 390 1204 q 383 1174 390 1178 q 282 1121 338 1144 q 178 1081 226 1097 q 104 1058 129 1065 z "},"Ĭ":{"ha":479,"x_min":69,"x_max":411,"o":"m 189 900 l 69 931 q 72 955 69 938 q 90 972 75 972 q 102 972 90 972 q 147 971 114 972 q 246 967 181 969 q 341 971 311 969 q 380 972 371 972 q 389 972 389 972 q 407 955 404 972 q 410 931 410 938 l 290 900 l 297 486 l 290 72 l 410 42 q 407 17 410 35 q 389 0 404 0 q 380 0 389 0 q 341 1 371 0 q 246 6 311 3 q 147 1 181 3 q 102 0 114 0 q 90 0 90 0 q 72 17 75 0 q 69 42 69 35 l 189 72 l 182 486 l 189 900 m 240 1140 q 311 1175 281 1140 q 364 1268 342 1210 l 411 1257 q 340 1101 378 1156 q 240 1047 303 1047 q 140 1101 178 1047 q 69 1257 103 1156 l 117 1268 q 171 1175 140 1210 q 240 1140 201 1140 z "},"Î":{"ha":479,"x_min":69,"x_max":410,"o":"m 189 900 l 69 931 q 72 955 69 938 q 90 972 75 972 q 102 972 90 972 q 147 971 114 972 q 246 967 181 969 q 341 971 311 969 q 380 972 371 972 q 389 972 389 972 q 407 955 404 972 q 410 931 410 938 l 290 900 l 297 486 l 290 72 l 410 42 q 407 17 410 35 q 389 0 404 0 q 380 0 389 0 q 341 1 371 0 q 246 6 311 3 q 147 1 181 3 q 102 0 114 0 q 90 0 90 0 q 72 17 75 0 q 69 42 69 35 l 189 72 l 182 486 l 189 900 m 240 1188 l 106 1046 l 69 1069 q 150 1190 115 1135 q 208 1290 185 1246 l 271 1290 q 329 1190 294 1246 q 410 1069 364 1135 l 374 1046 l 240 1188 z "},"Ï":{"ha":479,"x_min":65,"x_max":414,"o":"m 189 900 l 69 931 q 72 955 69 938 q 90 972 75 972 q 102 972 90 972 q 147 971 114 972 q 246 967 181 969 q 341 971 311 969 q 380 972 371 972 q 389 972 389 972 q 407 955 404 972 q 410 931 410 938 l 290 900 l 297 486 l 290 72 l 410 42 q 407 17 410 35 q 389 0 404 0 q 380 0 389 0 q 341 1 371 0 q 246 6 311 3 q 147 1 181 3 q 102 0 114 0 q 90 0 90 0 q 72 17 75 0 q 69 42 69 35 l 189 72 l 182 486 l 189 900 m 139 1250 q 172 1229 163 1250 q 181 1181 181 1208 q 176 1132 181 1154 q 172 1110 172 1110 q 150 1104 172 1110 q 108 1099 128 1099 q 74 1120 82 1099 q 65 1168 65 1142 q 70 1219 65 1196 q 75 1242 75 1242 q 98 1246 75 1242 q 139 1250 121 1250 m 372 1250 q 405 1229 396 1250 q 414 1181 414 1208 q 410 1132 414 1154 q 406 1110 406 1110 q 383 1104 406 1110 q 342 1099 361 1099 q 307 1120 315 1099 q 299 1168 299 1142 q 303 1219 299 1196 q 308 1242 308 1242 q 331 1246 308 1242 q 372 1250 354 1250 z "},"İ":{"ha":479,"x_min":69,"x_max":410,"o":"m 189 900 l 69 931 q 72 955 69 938 q 90 972 75 972 q 102 972 90 972 q 147 971 114 972 q 246 967 181 969 q 341 971 311 969 q 380 972 371 972 q 389 972 389 972 q 407 955 404 972 q 410 931 410 938 l 290 900 l 297 486 l 290 72 l 410 42 q 407 17 410 35 q 389 0 404 0 q 380 0 389 0 q 341 1 371 0 q 246 6 311 3 q 147 1 181 3 q 102 0 114 0 q 90 0 90 0 q 72 17 75 0 q 69 42 69 35 l 189 72 l 182 486 l 189 900 m 257 1258 q 294 1235 283 1258 q 304 1181 304 1211 q 299 1128 304 1153 q 294 1103 294 1103 q 269 1097 294 1103 q 224 1090 244 1090 q 185 1115 194 1090 q 175 1167 175 1139 q 181 1223 175 1197 q 186 1249 186 1249 q 212 1253 186 1249 q 257 1258 238 1258 z "},"Ì":{"ha":479,"x_min":69,"x_max":410,"o":"m 189 900 l 69 931 q 72 955 69 938 q 90 972 75 972 q 102 972 90 972 q 147 971 114 972 q 246 967 181 969 q 341 971 311 969 q 380 972 371 972 q 389 972 389 972 q 407 955 404 972 q 410 931 410 938 l 290 900 l 297 486 l 290 72 l 410 42 q 407 17 410 35 q 389 0 404 0 q 380 0 389 0 q 341 1 371 0 q 246 6 311 3 q 147 1 181 3 q 102 0 114 0 q 90 0 90 0 q 72 17 75 0 q 69 42 69 35 l 189 72 l 182 486 l 189 900 m 390 1085 l 375 1058 q 301 1081 350 1065 q 198 1121 253 1097 q 96 1174 143 1144 q 89 1190 89 1178 q 96 1224 89 1204 q 112 1262 103 1244 q 124 1283 121 1279 q 251 1185 190 1231 q 351 1112 313 1139 q 390 1085 390 1085 z "},"Ī":{"ha":479,"x_min":44,"x_max":435,"o":"m 189 900 l 69 931 q 72 955 69 938 q 90 972 75 972 q 102 972 90 972 q 147 971 114 972 q 246 967 181 969 q 341 971 311 969 q 380 972 371 972 q 389 972 389 972 q 407 955 404 972 q 410 931 410 938 l 290 900 l 297 486 l 290 72 l 410 42 q 407 17 410 35 q 389 0 404 0 q 380 0 389 0 q 341 1 371 0 q 246 6 311 3 q 147 1 181 3 q 102 0 114 0 q 90 0 90 0 q 72 17 75 0 q 69 42 69 35 l 189 72 l 182 486 l 189 900 m 44 1131 l 44 1218 l 435 1218 l 435 1131 l 44 1131 z "},"Į":{"ha":479,"x_min":69,"x_max":410,"o":"m 189 900 l 69 931 q 72 955 69 938 q 90 972 75 972 q 102 972 90 972 q 147 971 114 972 q 246 967 181 969 q 341 971 311 969 q 380 972 371 972 q 389 972 389 972 q 407 955 404 972 q 410 931 410 938 l 290 900 l 297 486 l 290 72 l 410 42 q 407 17 410 35 q 389 0 404 0 q 380 0 389 0 q 341 1 371 0 q 246 6 311 3 q 147 1 181 3 q 102 0 114 0 q 90 0 90 0 q 72 17 75 0 q 69 42 69 35 l 189 72 l 182 486 l 189 900 m 250 6 l 360 6 q 256 -42 296 -11 q 197 -110 215 -74 q 178 -181 178 -147 q 202 -239 178 -221 q 257 -257 226 -257 q 333 -233 299 -257 q 357 -275 351 -250 q 308 -305 339 -292 q 238 -318 278 -318 q 131 -280 168 -318 q 94 -190 94 -242 q 132 -84 94 -139 q 250 6 169 -29 z "},"Ĩ":{"ha":479,"x_min":21,"x_max":460,"o":"m 189 900 l 69 931 q 72 955 69 938 q 90 972 75 972 q 102 972 90 972 q 147 971 114 972 q 246 967 181 969 q 341 971 311 969 q 380 972 371 972 q 389 972 389 972 q 407 955 404 972 q 410 931 410 938 l 290 900 l 297 486 l 290 72 l 410 42 q 407 17 410 35 q 389 0 404 0 q 380 0 389 0 q 341 1 371 0 q 246 6 311 3 q 147 1 181 3 q 102 0 114 0 q 90 0 90 0 q 72 17 75 0 q 69 42 69 35 l 189 72 l 182 486 l 189 900 m 436 1243 l 460 1217 q 390 1134 425 1156 q 319 1113 354 1113 q 256 1122 286 1113 q 194 1141 225 1132 q 131 1150 164 1150 q 87 1139 108 1150 q 44 1108 65 1128 l 21 1135 q 92 1217 57 1196 q 161 1239 126 1239 q 225 1230 194 1239 q 287 1211 256 1221 q 350 1201 318 1201 q 394 1213 374 1201 q 436 1243 415 1224 z "},"J":{"ha":438,"x_min":-6,"x_max":411,"o":"m 185 221 l 185 900 l 53 931 q 56 955 53 938 q 75 972 58 972 q 107 972 75 972 q 236 967 139 971 q 335 971 301 969 q 379 972 368 972 q 390 972 390 972 q 408 954 406 972 q 411 929 411 936 l 294 900 l 294 258 q 224 -19 294 115 q 36 -283 153 -154 l -6 -254 q 133 -23 81 -142 q 185 221 185 96 z "},"Ĵ":{"ha":438,"x_min":-6,"x_max":411,"o":"m 185 221 l 185 900 l 53 931 q 56 955 53 938 q 75 972 58 972 q 107 972 75 972 q 236 967 139 971 q 335 971 301 969 q 379 972 368 972 q 390 972 390 972 q 408 954 406 972 q 411 929 411 936 l 294 900 l 294 258 q 224 -19 294 115 q 36 -283 153 -154 l -6 -254 q 133 -23 81 -142 q 185 221 185 96 m 240 1188 l 106 1046 l 69 1069 q 150 1190 115 1135 q 208 1290 185 1246 l 271 1290 q 329 1190 294 1246 q 410 1069 364 1135 l 374 1046 l 240 1188 z "},"K":{"ha":865,"x_min":69,"x_max":906,"o":"m 575 972 l 688 967 l 819 972 q 835 956 832 974 q 839 931 839 938 l 746 900 l 515 496 q 553 469 535 488 q 593 415 572 451 l 794 72 l 906 42 q 903 17 906 35 q 885 0 900 0 l 703 0 l 479 410 q 438 467 458 450 l 301 450 l 289 72 l 429 42 q 426 17 429 35 q 408 0 424 0 q 369 1 408 0 q 233 6 331 1 q 138 1 168 3 q 99 0 107 0 q 90 0 90 0 q 72 17 75 0 q 69 42 69 35 l 186 72 l 186 900 l 69 931 q 72 955 69 938 q 90 972 75 972 q 99 972 90 972 q 138 971 107 972 q 233 967 168 969 q 329 971 299 969 q 369 972 360 972 q 379 972 379 972 q 397 955 394 972 q 400 931 400 938 l 289 900 l 301 517 l 460 517 l 654 903 l 554 931 q 557 955 554 938 q 575 972 560 972 z "},"Ķ":{"ha":865,"x_min":69,"x_max":906,"o":"m 575 972 l 688 967 l 819 972 q 835 956 832 974 q 839 931 839 938 l 746 900 l 515 496 q 553 469 535 488 q 593 415 572 451 l 794 72 l 906 42 q 903 17 906 35 q 885 0 900 0 l 703 0 l 479 410 q 438 467 458 450 l 301 450 l 289 72 l 429 42 q 426 17 429 35 q 408 0 424 0 q 369 1 408 0 q 233 6 331 1 q 138 1 168 3 q 99 0 107 0 q 90 0 90 0 q 72 17 75 0 q 69 42 69 35 l 186 72 l 186 900 l 69 931 q 72 955 69 938 q 90 972 75 972 q 99 972 90 972 q 138 971 107 972 q 233 967 168 969 q 329 971 299 969 q 369 972 360 972 q 379 972 379 972 q 397 955 394 972 q 400 931 400 938 l 289 900 l 301 517 l 460 517 l 654 903 l 554 931 q 557 955 554 938 q 575 972 560 972 m 418 -426 l 401 -385 q 467 -333 443 -365 q 490 -258 490 -300 l 490 -251 q 479 -253 483 -253 q 468 -253 475 -253 q 417 -169 417 -253 q 419 -127 417 -150 q 428 -79 422 -104 q 469 -72 447 -75 q 510 -69 492 -69 q 556 -112 538 -69 q 574 -221 574 -154 q 530 -347 574 -290 q 418 -426 486 -403 z "},"L":{"ha":724,"x_min":68,"x_max":710,"o":"m 188 900 l 68 931 q 71 955 68 938 q 89 972 74 972 q 101 972 89 972 q 146 971 113 972 q 244 967 179 969 q 340 971 310 969 q 378 972 369 972 q 388 972 388 972 q 406 955 403 972 q 408 931 408 938 l 289 900 l 296 486 l 289 76 l 615 76 l 651 207 q 679 224 656 221 q 710 226 703 226 l 699 17 q 658 0 697 -1 l 244 11 l 89 0 q 71 17 74 0 q 68 42 68 35 l 188 72 l 181 486 l 188 900 z "},"Ĺ":{"ha":724,"x_min":68,"x_max":710,"o":"m 188 900 l 68 931 q 71 955 68 938 q 89 972 74 972 q 101 972 89 972 q 146 971 113 972 q 244 967 179 969 q 340 971 310 969 q 378 972 369 972 q 388 972 388 972 q 406 955 403 972 q 408 931 408 938 l 289 900 l 296 486 l 289 76 l 615 76 l 651 207 q 679 224 656 221 q 710 226 703 226 l 699 17 q 658 0 697 -1 l 244 11 l 89 0 q 71 17 74 0 q 68 42 68 35 l 188 72 l 181 486 l 188 900 m 129 1058 l 114 1085 q 153 1112 114 1085 q 253 1185 192 1139 q 381 1283 315 1231 q 393 1262 385 1279 q 408 1224 401 1244 q 415 1190 415 1204 q 408 1174 415 1178 q 307 1121 363 1144 q 203 1081 251 1097 q 129 1058 154 1065 z "},"Ľ":{"ha":724,"x_min":68,"x_max":710,"o":"m 188 900 l 68 931 q 71 955 68 938 q 89 972 74 972 q 101 972 89 972 q 146 971 113 972 q 244 967 179 969 q 340 971 310 969 q 378 972 369 972 q 388 972 388 972 q 406 955 403 972 q 408 931 408 938 l 289 900 l 296 486 l 289 76 l 615 76 l 651 207 q 679 224 656 221 q 710 226 703 226 l 699 17 q 658 0 697 -1 l 244 11 l 89 0 q 71 17 74 0 q 68 42 68 35 l 188 72 l 181 486 l 188 900 m 497 632 l 481 674 q 546 726 522 693 q 569 800 569 758 l 569 807 q 558 806 563 806 q 547 806 554 806 q 496 889 496 806 q 499 931 496 908 q 507 979 501 954 q 549 986 526 983 q 589 989 571 989 q 635 947 617 989 q 653 838 653 904 q 609 712 653 768 q 497 632 565 656 z "},"Ļ":{"ha":724,"x_min":68,"x_max":710,"o":"m 188 900 l 68 931 q 71 955 68 938 q 89 972 74 972 q 101 972 89 972 q 146 971 113 972 q 244 967 179 969 q 340 971 310 969 q 378 972 369 972 q 388 972 388 972 q 406 955 403 972 q 408 931 408 938 l 289 900 l 296 486 l 289 76 l 615 76 l 651 207 q 679 224 656 221 q 710 226 703 226 l 699 17 q 658 0 697 -1 l 244 11 l 89 0 q 71 17 74 0 q 68 42 68 35 l 188 72 l 181 486 l 188 900 m 340 -426 l 324 -385 q 389 -333 365 -365 q 413 -258 413 -300 l 413 -251 q 401 -253 406 -253 q 390 -253 397 -253 q 339 -169 339 -253 q 342 -127 339 -150 q 350 -79 344 -104 q 392 -72 369 -75 q 432 -69 414 -69 q 478 -112 460 -69 q 496 -221 496 -154 q 452 -347 496 -290 q 340 -426 408 -403 z "},"Ŀ":{"ha":724,"x_min":68,"x_max":710,"o":"m 188 900 l 68 931 q 71 955 68 938 q 89 972 74 972 q 101 972 89 972 q 146 971 113 972 q 244 967 179 969 q 340 971 310 969 q 378 972 369 972 q 388 972 388 972 q 406 955 403 972 q 408 931 408 938 l 289 900 l 296 486 l 289 76 l 615 76 l 651 207 q 679 224 656 221 q 710 226 703 226 l 699 17 q 658 0 697 -1 l 244 11 l 89 0 q 71 17 74 0 q 68 42 68 35 l 188 72 l 181 486 l 188 900 m 544 633 q 583 608 572 633 q 594 547 594 582 q 590 489 594 517 q 585 461 585 461 q 557 455 585 461 q 506 449 529 449 q 465 475 475 449 q 454 533 454 501 q 460 594 454 565 q 465 624 465 624 q 494 628 465 624 q 544 633 522 633 z "},"Ł":{"ha":724,"x_min":38,"x_max":710,"o":"m 74 389 l 38 461 l 182 535 l 188 900 l 68 931 q 71 955 68 938 q 89 972 74 972 q 101 972 89 972 q 146 971 113 972 q 244 967 179 969 q 340 971 310 969 q 378 972 369 972 q 388 972 388 972 q 406 955 403 972 q 408 931 408 938 l 289 900 l 294 592 l 413 651 l 439 599 l 296 517 l 296 486 l 289 76 l 615 76 l 651 207 q 679 224 656 221 q 710 226 703 226 l 699 17 q 658 0 697 -1 l 244 11 l 89 0 q 71 17 74 0 q 68 42 68 35 l 188 72 l 181 450 l 74 389 z "},"M":{"ha":1261,"x_min":35,"x_max":1226,"o":"m 192 6 q 103 1 132 3 q 65 0 74 0 q 56 0 56 0 q 38 17 40 0 q 35 42 35 35 l 153 72 l 196 899 l 82 929 q 85 954 82 936 q 103 972 88 972 q 151 972 103 972 q 328 967 200 971 l 618 256 l 939 967 q 1113 972 1067 971 q 1158 972 1158 972 q 1176 954 1174 972 q 1179 929 1179 936 l 1065 899 l 1108 72 l 1226 42 q 1224 17 1226 35 q 1206 0 1221 0 q 1169 1 1206 0 q 1042 6 1132 1 l 885 0 q 865 17 868 0 q 863 42 863 33 l 994 72 l 965 835 l 614 69 l 588 69 l 267 825 l 235 72 l 367 42 q 364 17 367 33 q 344 0 361 0 l 192 6 z "},"N":{"ha":1097,"x_min":69,"x_max":1042,"o":"m 854 900 l 708 931 q 711 956 708 939 q 731 972 714 972 l 899 967 q 985 971 960 969 q 1015 972 1010 972 q 1021 972 1021 972 q 1039 955 1036 972 q 1042 931 1042 938 l 938 900 l 933 0 l 856 0 l 258 810 l 269 72 l 417 42 q 414 17 417 33 q 394 0 411 0 l 226 6 q 138 1 167 3 q 99 0 108 0 q 90 0 90 0 q 72 17 75 0 q 69 42 69 35 l 183 72 l 183 899 l 69 929 q 72 954 69 936 q 90 972 75 972 q 101 972 90 972 q 153 971 113 972 q 278 967 193 969 l 863 175 l 854 900 z "},"Ń":{"ha":1097,"x_min":69,"x_max":1042,"o":"m 854 900 l 708 931 q 711 956 708 939 q 731 972 714 972 l 899 967 q 985 971 960 969 q 1015 972 1010 972 q 1021 972 1021 972 q 1039 955 1036 972 q 1042 931 1042 938 l 938 900 l 933 0 l 856 0 l 258 810 l 269 72 l 417 42 q 414 17 417 33 q 394 0 411 0 l 226 6 q 138 1 167 3 q 99 0 108 0 q 90 0 90 0 q 72 17 75 0 q 69 42 69 35 l 183 72 l 183 899 l 69 929 q 72 954 69 936 q 90 972 75 972 q 101 972 90 972 q 153 971 113 972 q 278 967 193 969 l 863 175 l 854 900 m 426 1058 l 411 1085 q 450 1112 411 1085 q 551 1185 489 1139 q 678 1283 613 1231 q 690 1262 682 1279 q 706 1224 699 1244 q 713 1190 713 1204 q 706 1174 713 1178 q 604 1121 660 1144 q 500 1081 549 1097 q 426 1058 451 1065 z "},"Ň":{"ha":1097,"x_min":69,"x_max":1042,"o":"m 854 900 l 708 931 q 711 956 708 939 q 731 972 714 972 l 899 967 q 985 971 960 969 q 1015 972 1010 972 q 1021 972 1021 972 q 1039 955 1036 972 q 1042 931 1042 938 l 938 900 l 933 0 l 856 0 l 258 810 l 269 72 l 417 42 q 414 17 417 33 q 394 0 411 0 l 226 6 q 138 1 167 3 q 99 0 108 0 q 90 0 90 0 q 72 17 75 0 q 69 42 69 35 l 183 72 l 183 899 l 69 929 q 72 954 69 936 q 90 972 75 972 q 101 972 90 972 q 153 971 113 972 q 278 967 193 969 l 863 175 l 854 900 m 554 1149 l 697 1290 l 732 1267 q 578 1046 632 1136 l 515 1046 q 465 1146 496 1090 q 392 1267 433 1201 l 429 1290 l 554 1149 z "},"Ņ":{"ha":1097,"x_min":69,"x_max":1042,"o":"m 854 900 l 708 931 q 711 956 708 939 q 731 972 714 972 l 899 967 q 985 971 960 969 q 1015 972 1010 972 q 1021 972 1021 972 q 1039 955 1036 972 q 1042 931 1042 938 l 938 900 l 933 0 l 856 0 l 258 810 l 269 72 l 417 42 q 414 17 417 33 q 394 0 411 0 l 226 6 q 138 1 167 3 q 99 0 108 0 q 90 0 90 0 q 72 17 75 0 q 69 42 69 35 l 183 72 l 183 899 l 69 929 q 72 954 69 936 q 90 972 75 972 q 101 972 90 972 q 153 971 113 972 q 278 967 193 969 l 863 175 l 854 900 m 501 -426 l 485 -385 q 550 -333 526 -365 q 574 -258 574 -300 l 574 -251 q 563 -253 567 -253 q 551 -253 558 -253 q 500 -169 500 -253 q 503 -127 500 -150 q 511 -79 506 -104 q 553 -72 531 -75 q 593 -69 575 -69 q 639 -112 621 -69 q 657 -221 657 -154 q 613 -347 657 -290 q 501 -426 569 -403 z "},"Ñ":{"ha":1097,"x_min":69,"x_max":1042,"o":"m 854 900 l 708 931 q 711 956 708 939 q 731 972 714 972 l 899 967 q 985 971 960 969 q 1015 972 1010 972 q 1021 972 1021 972 q 1039 955 1036 972 q 1042 931 1042 938 l 938 900 l 933 0 l 856 0 l 258 810 l 269 72 l 417 42 q 414 17 417 33 q 394 0 411 0 l 226 6 q 138 1 167 3 q 99 0 108 0 q 90 0 90 0 q 72 17 75 0 q 69 42 69 35 l 183 72 l 183 899 l 69 929 q 72 954 69 936 q 90 972 75 972 q 101 972 90 972 q 153 971 113 972 q 278 967 193 969 l 863 175 l 854 900 m 758 1243 l 782 1217 q 712 1134 747 1156 q 642 1113 676 1113 q 578 1122 608 1113 q 517 1141 547 1132 q 453 1150 486 1150 q 409 1139 431 1150 q 367 1108 388 1128 l 343 1135 q 414 1217 379 1196 q 483 1239 449 1239 q 547 1230 517 1239 q 609 1211 578 1221 q 672 1201 640 1201 q 717 1213 696 1201 q 758 1243 738 1224 z "},"Ŋ":{"ha":1097,"x_min":69,"x_max":1042,"o":"m 854 900 l 708 931 q 711 956 708 939 q 731 972 714 972 l 899 967 q 985 971 960 969 q 1015 972 1010 972 q 1021 972 1021 972 q 1039 955 1036 972 q 1042 931 1042 938 l 938 900 l 933 189 q 863 -89 933 46 q 676 -353 793 -224 l 635 -324 q 751 -139 704 -233 q 815 53 799 -44 l 258 810 l 269 72 l 417 42 q 414 17 417 33 q 394 0 411 0 l 226 6 q 138 1 167 3 q 99 0 108 0 q 90 0 90 0 q 72 17 75 0 q 69 42 69 35 l 183 72 l 183 899 l 69 929 q 72 954 69 936 q 90 972 75 972 q 101 972 90 972 q 153 971 113 972 q 278 967 193 969 l 863 175 l 854 900 z "},"O":{"ha":1038,"x_min":56,"x_max":982,"o":"m 982 504 q 920 213 982 329 q 751 40 858 97 q 504 -17 643 -17 q 274 40 376 -17 q 114 208 172 96 q 56 492 56 321 q 119 765 56 654 q 290 933 183 876 q 526 989 397 989 q 756 935 653 989 q 920 774 858 882 q 982 504 982 667 m 178 489 q 223 244 178 342 q 345 99 268 147 q 518 50 422 50 q 692 99 615 50 q 815 244 769 147 q 860 489 860 342 q 815 726 860 632 q 692 867 769 819 q 518 914 615 914 q 413 904 467 914 q 318 881 358 894 q 216 727 254 832 q 178 489 178 622 z "},"Ó":{"ha":1038,"x_min":56,"x_max":982,"o":"m 982 504 q 920 213 982 329 q 751 40 858 97 q 504 -17 643 -17 q 274 40 376 -17 q 114 208 172 96 q 56 492 56 321 q 119 765 56 654 q 290 933 183 876 q 526 989 397 989 q 756 935 653 989 q 920 774 858 882 q 982 504 982 667 m 178 489 q 223 244 178 342 q 345 99 268 147 q 518 50 422 50 q 692 99 615 50 q 815 244 769 147 q 860 489 860 342 q 815 726 860 632 q 692 867 769 819 q 518 914 615 914 q 413 904 467 914 q 318 881 358 894 q 216 727 254 832 q 178 489 178 622 m 383 1058 l 368 1085 q 407 1112 368 1085 q 508 1185 446 1139 q 635 1283 569 1231 q 647 1262 639 1279 q 663 1224 656 1244 q 669 1190 669 1204 q 663 1174 669 1178 q 561 1121 617 1144 q 457 1081 506 1097 q 383 1058 408 1065 z "},"Ŏ":{"ha":1038,"x_min":56,"x_max":982,"o":"m 982 504 q 920 213 982 329 q 751 40 858 97 q 504 -17 643 -17 q 274 40 376 -17 q 114 208 172 96 q 56 492 56 321 q 119 765 56 654 q 290 933 183 876 q 526 989 397 989 q 756 935 653 989 q 920 774 858 882 q 982 504 982 667 m 178 489 q 223 244 178 342 q 345 99 268 147 q 518 50 422 50 q 692 99 615 50 q 815 244 769 147 q 860 489 860 342 q 815 726 860 632 q 692 867 769 819 q 518 914 615 914 q 413 904 467 914 q 318 881 358 894 q 216 727 254 832 q 178 489 178 622 m 519 1140 q 590 1175 560 1140 q 643 1268 621 1210 l 690 1257 q 619 1101 657 1156 q 519 1047 582 1047 q 419 1101 457 1047 q 349 1257 382 1156 l 396 1268 q 450 1175 419 1210 q 519 1140 481 1140 z "},"Ô":{"ha":1038,"x_min":56,"x_max":982,"o":"m 982 504 q 920 213 982 329 q 751 40 858 97 q 504 -17 643 -17 q 274 40 376 -17 q 114 208 172 96 q 56 492 56 321 q 119 765 56 654 q 290 933 183 876 q 526 989 397 989 q 756 935 653 989 q 920 774 858 882 q 982 504 982 667 m 178 489 q 223 244 178 342 q 345 99 268 147 q 518 50 422 50 q 692 99 615 50 q 815 244 769 147 q 860 489 860 342 q 815 726 860 632 q 692 867 769 819 q 518 914 615 914 q 413 904 467 914 q 318 881 358 894 q 216 727 254 832 q 178 489 178 622 m 519 1188 l 385 1046 l 349 1069 q 429 1190 394 1135 q 488 1290 464 1246 l 550 1290 q 608 1190 574 1246 q 689 1069 643 1135 l 653 1046 l 519 1188 z "},"Ö":{"ha":1038,"x_min":56,"x_max":982,"o":"m 982 504 q 920 213 982 329 q 751 40 858 97 q 504 -17 643 -17 q 274 40 376 -17 q 114 208 172 96 q 56 492 56 321 q 119 765 56 654 q 290 933 183 876 q 526 989 397 989 q 756 935 653 989 q 920 774 858 882 q 982 504 982 667 m 178 489 q 223 244 178 342 q 345 99 268 147 q 518 50 422 50 q 692 99 615 50 q 815 244 769 147 q 860 489 860 342 q 815 726 860 632 q 692 867 769 819 q 518 914 615 914 q 413 904 467 914 q 318 881 358 894 q 216 727 254 832 q 178 489 178 622 m 418 1250 q 451 1229 442 1250 q 460 1181 460 1208 q 456 1132 460 1154 q 451 1110 451 1110 q 429 1104 451 1110 q 388 1099 407 1099 q 353 1120 361 1099 q 344 1168 344 1142 q 349 1219 344 1196 q 354 1242 354 1242 q 377 1246 354 1242 q 418 1250 400 1250 m 651 1250 q 684 1229 675 1250 q 693 1181 693 1208 q 689 1132 693 1154 q 685 1110 685 1110 q 663 1104 685 1110 q 621 1099 640 1099 q 586 1120 594 1099 q 578 1168 578 1142 q 583 1219 578 1196 q 588 1242 588 1242 q 610 1246 588 1242 q 651 1250 633 1250 z "},"Ò":{"ha":1038,"x_min":56,"x_max":982,"o":"m 982 504 q 920 213 982 329 q 751 40 858 97 q 504 -17 643 -17 q 274 40 376 -17 q 114 208 172 96 q 56 492 56 321 q 119 765 56 654 q 290 933 183 876 q 526 989 397 989 q 756 935 653 989 q 920 774 858 882 q 982 504 982 667 m 178 489 q 223 244 178 342 q 345 99 268 147 q 518 50 422 50 q 692 99 615 50 q 815 244 769 147 q 860 489 860 342 q 815 726 860 632 q 692 867 769 819 q 518 914 615 914 q 413 904 467 914 q 318 881 358 894 q 216 727 254 832 q 178 489 178 622 m 669 1085 l 654 1058 q 581 1081 629 1065 q 477 1121 532 1097 q 375 1174 422 1144 q 368 1190 368 1178 q 375 1224 368 1204 q 391 1262 382 1244 q 403 1283 400 1279 q 531 1185 469 1231 q 631 1112 592 1139 q 669 1085 669 1085 z "},"Ő":{"ha":1038,"x_min":56,"x_max":982,"o":"m 982 504 q 920 213 982 329 q 751 40 858 97 q 504 -17 643 -17 q 274 40 376 -17 q 114 208 172 96 q 56 492 56 321 q 119 765 56 654 q 290 933 183 876 q 526 989 397 989 q 756 935 653 989 q 920 774 858 882 q 982 504 982 667 m 178 489 q 223 244 178 342 q 345 99 268 147 q 518 50 422 50 q 692 99 615 50 q 815 244 769 147 q 860 489 860 342 q 815 726 860 632 q 692 867 769 819 q 518 914 615 914 q 413 904 467 914 q 318 881 358 894 q 216 727 254 832 q 178 489 178 622 m 317 1058 l 301 1085 q 337 1109 301 1085 q 431 1178 372 1133 q 554 1283 489 1224 q 567 1262 558 1279 q 582 1224 575 1244 q 589 1190 589 1204 q 582 1174 589 1178 q 484 1121 536 1144 q 387 1081 432 1097 q 317 1058 342 1065 m 549 1058 l 533 1085 q 569 1109 533 1085 q 663 1178 604 1133 q 786 1283 721 1224 q 799 1262 790 1279 q 814 1224 807 1244 q 821 1190 821 1204 q 814 1174 821 1178 q 716 1121 768 1144 q 619 1081 664 1097 q 549 1058 574 1065 z "},"Ō":{"ha":1038,"x_min":56,"x_max":982,"o":"m 982 504 q 920 213 982 329 q 751 40 858 97 q 504 -17 643 -17 q 274 40 376 -17 q 114 208 172 96 q 56 492 56 321 q 119 765 56 654 q 290 933 183 876 q 526 989 397 989 q 756 935 653 989 q 920 774 858 882 q 982 504 982 667 m 178 489 q 223 244 178 342 q 345 99 268 147 q 518 50 422 50 q 692 99 615 50 q 815 244 769 147 q 860 489 860 342 q 815 726 860 632 q 692 867 769 819 q 518 914 615 914 q 413 904 467 914 q 318 881 358 894 q 216 727 254 832 q 178 489 178 622 m 324 1131 l 324 1218 l 714 1218 l 714 1131 l 324 1131 z "},"Ø":{"ha":1010,"x_min":56,"x_max":982,"o":"m 236 -69 l 281 36 q 117 206 178 92 q 56 492 56 319 q 119 765 56 654 q 290 933 183 876 q 526 989 397 989 q 669 969 601 989 l 699 1042 l 774 1042 l 733 946 q 913 785 844 896 q 982 504 982 675 q 920 213 982 329 q 751 40 858 97 q 504 -17 643 -17 q 343 8 418 -17 l 311 -69 l 236 -69 m 178 489 q 215 265 178 357 q 315 119 251 172 l 638 894 q 518 914 582 914 q 413 904 467 914 q 318 881 358 894 q 216 727 254 832 q 178 489 178 622 m 860 489 q 816 722 860 628 q 699 863 772 815 l 374 82 q 518 50 439 50 q 692 99 615 50 q 815 244 769 147 q 860 489 860 342 z "},"Ǿ":{"ha":1010,"x_min":56,"x_max":982,"o":"m 236 -69 l 281 36 q 117 206 178 92 q 56 492 56 319 q 119 765 56 654 q 290 933 183 876 q 526 989 397 989 q 669 969 601 989 l 699 1042 l 774 1042 l 733 946 q 913 785 844 896 q 982 504 982 675 q 920 213 982 329 q 751 40 858 97 q 504 -17 643 -17 q 343 8 418 -17 l 311 -69 l 236 -69 m 178 489 q 215 265 178 357 q 315 119 251 172 l 638 894 q 518 914 582 914 q 413 904 467 914 q 318 881 358 894 q 216 727 254 832 q 178 489 178 622 m 860 489 q 816 722 860 628 q 699 863 772 815 l 374 82 q 518 50 439 50 q 692 99 615 50 q 815 244 769 147 q 860 489 860 342 m 383 1058 l 368 1085 q 407 1112 368 1085 q 508 1185 446 1139 q 635 1283 569 1231 q 647 1262 639 1279 q 663 1224 656 1244 q 669 1190 669 1204 q 663 1174 669 1178 q 561 1121 617 1144 q 457 1081 506 1097 q 383 1058 408 1065 z "},"Õ":{"ha":1038,"x_min":56,"x_max":982,"o":"m 982 504 q 920 213 982 329 q 751 40 858 97 q 504 -17 643 -17 q 274 40 376 -17 q 114 208 172 96 q 56 492 56 321 q 119 765 56 654 q 290 933 183 876 q 526 989 397 989 q 756 935 653 989 q 920 774 858 882 q 982 504 982 667 m 178 489 q 223 244 178 342 q 345 99 268 147 q 518 50 422 50 q 692 99 615 50 q 815 244 769 147 q 860 489 860 342 q 815 726 860 632 q 692 867 769 819 q 518 914 615 914 q 413 904 467 914 q 318 881 358 894 q 216 727 254 832 q 178 489 178 622 m 715 1243 l 739 1217 q 669 1134 704 1156 q 599 1113 633 1113 q 535 1122 565 1113 q 474 1141 504 1132 q 410 1150 443 1150 q 366 1139 388 1150 q 324 1108 344 1128 l 300 1135 q 371 1217 336 1196 q 440 1239 406 1239 q 504 1230 474 1239 q 566 1211 535 1221 q 629 1201 597 1201 q 674 1213 653 1201 q 715 1243 694 1224 z "},"Œ":{"ha":1328,"x_min":56,"x_max":1258,"o":"m 1150 771 l 1150 901 l 782 897 l 794 531 l 1150 531 l 1150 471 l 794 453 l 782 76 l 1164 76 l 1200 207 q 1213 221 1200 217 q 1240 226 1225 225 q 1258 226 1254 226 l 1247 17 q 1237 3 1246 6 q 1207 0 1228 0 l 729 11 q 614 -10 674 -3 q 501 -17 554 -17 q 274 35 375 -17 q 115 197 174 88 q 56 474 56 306 q 114 764 56 650 q 272 933 172 878 q 493 989 371 989 q 610 983 553 989 q 726 967 668 976 l 1199 972 q 1230 971 1218 972 q 1243 958 1242 969 l 1210 751 q 1190 752 1204 751 q 1163 757 1175 753 q 1150 771 1150 761 m 178 493 q 223 246 178 344 q 346 99 268 147 q 521 50 424 50 q 599 58 561 50 q 679 79 636 65 l 679 893 q 589 911 633 904 q 500 918 544 918 q 413 911 457 918 q 319 888 368 904 q 216 733 254 838 q 178 493 178 628 z "},"P":{"ha":782,"x_min":69,"x_max":740,"o":"m 186 900 l 69 931 q 72 955 69 938 q 90 972 75 972 q 99 972 90 972 q 138 971 107 972 q 233 967 168 969 l 453 972 q 608 935 543 972 q 706 833 672 897 q 740 690 740 769 q 702 555 740 619 q 587 447 664 490 q 392 392 510 403 l 299 383 l 289 72 l 443 42 q 440 17 443 35 q 422 0 438 0 q 376 1 422 0 q 233 6 331 1 q 138 1 168 3 q 99 0 107 0 q 90 0 90 0 q 72 17 75 0 q 69 42 69 35 l 186 72 l 186 900 m 428 914 l 289 900 l 303 460 l 403 454 q 540 490 488 454 q 616 580 592 525 q 640 692 640 635 q 618 798 640 747 q 549 881 596 849 q 428 914 501 914 z "},"Þ":{"ha":781,"x_min":69,"x_max":739,"o":"m 189 900 l 69 931 q 72 955 69 938 q 90 972 75 972 q 102 972 90 972 q 147 971 114 972 q 246 967 181 969 q 341 971 311 969 q 380 972 371 972 q 389 972 389 972 q 407 955 404 972 q 410 931 410 938 l 290 900 l 292 796 l 451 800 q 606 763 542 800 q 705 661 671 725 q 739 518 739 597 q 701 382 739 447 q 585 274 663 317 q 390 224 508 231 l 293 218 l 290 72 l 410 42 q 407 17 410 35 q 389 0 404 0 q 380 0 389 0 q 341 1 371 0 q 246 6 311 3 q 147 1 181 3 q 102 0 114 0 q 90 0 90 0 q 72 17 75 0 q 69 42 69 35 l 189 72 l 182 486 l 189 900 m 426 742 l 293 728 l 297 486 l 294 289 l 294 289 l 401 282 q 538 317 486 282 q 615 408 590 353 q 639 519 639 463 q 617 626 639 575 q 547 709 594 676 q 426 742 500 742 z "},"Q":{"ha":1038,"x_min":56,"x_max":982,"o":"m 639 -294 l 511 -17 q 276 40 379 -17 q 115 208 174 96 q 56 492 56 321 q 119 765 56 654 q 290 933 183 876 q 526 989 397 989 q 756 935 653 989 q 920 774 858 882 q 982 504 982 667 q 933 238 982 347 q 795 67 883 129 q 592 -11 707 6 l 768 -292 q 722 -314 743 -307 q 685 -321 701 -321 q 639 -294 650 -321 m 178 489 q 223 244 178 342 q 345 99 268 147 q 518 50 422 50 q 692 99 615 50 q 815 244 769 147 q 860 489 860 342 q 815 726 860 632 q 692 867 769 819 q 518 914 615 914 q 413 904 467 914 q 318 881 358 894 q 216 727 254 832 q 178 489 178 622 z "},"R":{"ha":828,"x_min":69,"x_max":882,"o":"m 186 900 l 69 931 q 72 955 69 938 q 90 972 75 972 q 99 972 90 972 q 138 971 107 972 q 233 967 168 969 q 356 970 313 969 q 419 972 399 971 q 444 972 439 972 q 450 972 449 972 q 599 935 538 972 q 694 838 661 899 q 726 706 726 778 q 704 610 726 658 q 638 521 682 561 q 526 458 593 481 q 558 431 542 449 q 593 383 575 414 l 771 72 l 882 42 q 879 17 882 35 q 861 0 876 0 l 679 0 l 479 378 q 431 439 454 422 l 300 418 l 289 72 l 429 42 q 426 17 429 35 q 408 0 424 0 q 369 1 408 0 q 233 6 331 1 q 138 1 168 3 q 99 0 107 0 q 90 0 90 0 q 72 17 75 0 q 69 42 69 35 l 186 72 l 186 900 m 414 914 l 289 900 l 301 497 l 389 492 q 526 524 474 492 q 602 606 578 556 q 626 708 626 656 q 604 806 626 760 q 535 883 582 853 q 414 914 488 914 z "},"Ŕ":{"ha":828,"x_min":69,"x_max":882,"o":"m 186 900 l 69 931 q 72 955 69 938 q 90 972 75 972 q 99 972 90 972 q 138 971 107 972 q 233 967 168 969 q 356 970 313 969 q 419 972 399 971 q 444 972 439 972 q 450 972 449 972 q 599 935 538 972 q 694 838 661 899 q 726 706 726 778 q 704 610 726 658 q 638 521 682 561 q 526 458 593 481 q 558 431 542 449 q 593 383 575 414 l 771 72 l 882 42 q 879 17 882 35 q 861 0 876 0 l 679 0 l 479 378 q 431 439 454 422 l 300 418 l 289 72 l 429 42 q 426 17 429 35 q 408 0 424 0 q 369 1 408 0 q 233 6 331 1 q 138 1 168 3 q 99 0 107 0 q 90 0 90 0 q 72 17 75 0 q 69 42 69 35 l 186 72 l 186 900 m 414 914 l 289 900 l 301 497 l 389 492 q 526 524 474 492 q 602 606 578 556 q 626 708 626 656 q 604 806 626 760 q 535 883 582 853 q 414 914 488 914 m 306 1058 l 290 1085 q 329 1112 290 1085 q 430 1185 368 1139 q 557 1283 492 1231 q 569 1262 561 1279 q 585 1224 578 1244 q 592 1190 592 1204 q 585 1174 592 1178 q 483 1121 539 1144 q 379 1081 428 1097 q 306 1058 331 1065 z "},"Ř":{"ha":828,"x_min":69,"x_max":882,"o":"m 186 900 l 69 931 q 72 955 69 938 q 90 972 75 972 q 99 972 90 972 q 138 971 107 972 q 233 967 168 969 q 356 970 313 969 q 419 972 399 971 q 444 972 439 972 q 450 972 449 972 q 599 935 538 972 q 694 838 661 899 q 726 706 726 778 q 704 610 726 658 q 638 521 682 561 q 526 458 593 481 q 558 431 542 449 q 593 383 575 414 l 771 72 l 882 42 q 879 17 882 35 q 861 0 876 0 l 679 0 l 479 378 q 431 439 454 422 l 300 418 l 289 72 l 429 42 q 426 17 429 35 q 408 0 424 0 q 369 1 408 0 q 233 6 331 1 q 138 1 168 3 q 99 0 107 0 q 90 0 90 0 q 72 17 75 0 q 69 42 69 35 l 186 72 l 186 900 m 414 914 l 289 900 l 301 497 l 389 492 q 526 524 474 492 q 602 606 578 556 q 626 708 626 656 q 604 806 626 760 q 535 883 582 853 q 414 914 488 914 m 433 1149 l 576 1290 l 611 1267 q 457 1046 511 1136 l 394 1046 q 344 1146 375 1090 q 271 1267 313 1201 l 308 1290 l 433 1149 z "},"Ŗ":{"ha":828,"x_min":69,"x_max":882,"o":"m 186 900 l 69 931 q 72 955 69 938 q 90 972 75 972 q 99 972 90 972 q 138 971 107 972 q 233 967 168 969 q 356 970 313 969 q 419 972 399 971 q 444 972 439 972 q 450 972 449 972 q 599 935 538 972 q 694 838 661 899 q 726 706 726 778 q 704 610 726 658 q 638 521 682 561 q 526 458 593 481 q 558 431 542 449 q 593 383 575 414 l 771 72 l 882 42 q 879 17 882 35 q 861 0 876 0 l 679 0 l 479 378 q 431 439 454 422 l 300 418 l 289 72 l 429 42 q 426 17 429 35 q 408 0 424 0 q 369 1 408 0 q 233 6 331 1 q 138 1 168 3 q 99 0 107 0 q 90 0 90 0 q 72 17 75 0 q 69 42 69 35 l 186 72 l 186 900 m 414 914 l 289 900 l 301 497 l 389 492 q 526 524 474 492 q 602 606 578 556 q 626 708 626 656 q 604 806 626 760 q 535 883 582 853 q 414 914 488 914 m 414 -426 l 397 -385 q 463 -333 439 -365 q 486 -258 486 -300 l 486 -251 q 475 -253 479 -253 q 464 -253 471 -253 q 413 -169 413 -253 q 415 -127 413 -150 q 424 -79 418 -104 q 465 -72 443 -75 q 506 -69 488 -69 q 551 -112 533 -69 q 569 -221 569 -154 q 526 -347 569 -290 q 414 -426 482 -403 z "},"S":{"ha":769,"x_min":76,"x_max":700,"o":"m 700 236 q 657 97 700 154 q 540 12 614 40 q 372 -17 465 -17 q 230 -1 303 -17 q 76 50 157 15 q 84 110 79 72 q 94 188 89 149 q 104 253 100 226 q 108 279 108 279 q 128 278 114 279 q 156 274 143 278 q 168 263 168 271 l 168 108 q 272 65 213 81 q 383 50 331 50 q 535 100 488 50 q 582 218 582 150 q 562 295 582 253 q 483 371 542 338 l 238 511 q 131 611 165 551 q 96 733 96 671 q 133 857 96 799 q 240 952 169 915 q 414 989 311 989 q 535 975 475 989 q 654 939 596 961 l 618 725 q 599 726 613 725 q 572 731 585 726 q 560 744 560 735 l 560 885 q 490 909 531 899 q 406 919 450 919 q 292 896 347 919 q 200 815 236 872 q 194 787 196 801 q 193 760 193 772 q 226 664 193 700 q 297 604 258 628 l 536 468 q 659 358 618 421 q 700 236 700 296 z "},"Ś":{"ha":769,"x_min":76,"x_max":700,"o":"m 700 236 q 657 97 700 154 q 540 12 614 40 q 372 -17 465 -17 q 230 -1 303 -17 q 76 50 157 15 q 84 110 79 72 q 94 188 89 149 q 104 253 100 226 q 108 279 108 279 q 128 278 114 279 q 156 274 143 278 q 168 263 168 271 l 168 108 q 272 65 213 81 q 383 50 331 50 q 535 100 488 50 q 582 218 582 150 q 562 295 582 253 q 483 371 542 338 l 238 511 q 131 611 165 551 q 96 733 96 671 q 133 857 96 799 q 240 952 169 915 q 414 989 311 989 q 535 975 475 989 q 654 939 596 961 l 618 725 q 599 726 613 725 q 572 731 585 726 q 560 744 560 735 l 560 885 q 490 909 531 899 q 406 919 450 919 q 292 896 347 919 q 200 815 236 872 q 194 787 196 801 q 193 760 193 772 q 226 664 193 700 q 297 604 258 628 l 536 468 q 659 358 618 421 q 700 236 700 296 m 263 1058 l 247 1085 q 286 1112 247 1085 q 387 1185 325 1139 q 514 1283 449 1231 q 526 1262 518 1279 q 542 1224 535 1244 q 549 1190 549 1204 q 542 1174 549 1178 q 440 1121 496 1144 q 336 1081 385 1097 q 263 1058 288 1065 z "},"Š":{"ha":769,"x_min":76,"x_max":700,"o":"m 700 236 q 657 97 700 154 q 540 12 614 40 q 372 -17 465 -17 q 230 -1 303 -17 q 76 50 157 15 q 84 110 79 72 q 94 188 89 149 q 104 253 100 226 q 108 279 108 279 q 128 278 114 279 q 156 274 143 278 q 168 263 168 271 l 168 108 q 272 65 213 81 q 383 50 331 50 q 535 100 488 50 q 582 218 582 150 q 562 295 582 253 q 483 371 542 338 l 238 511 q 131 611 165 551 q 96 733 96 671 q 133 857 96 799 q 240 952 169 915 q 414 989 311 989 q 535 975 475 989 q 654 939 596 961 l 618 725 q 599 726 613 725 q 572 731 585 726 q 560 744 560 735 l 560 885 q 490 909 531 899 q 406 919 450 919 q 292 896 347 919 q 200 815 236 872 q 194 787 196 801 q 193 760 193 772 q 226 664 193 700 q 297 604 258 628 l 536 468 q 659 358 618 421 q 700 236 700 296 m 390 1149 l 533 1290 l 568 1267 q 414 1046 468 1136 l 351 1046 q 301 1146 332 1090 q 228 1267 269 1201 l 265 1290 l 390 1149 z "},"Ş":{"ha":769,"x_min":76,"x_max":700,"o":"m 700 236 q 657 97 700 154 q 540 12 614 40 q 372 -17 465 -17 q 230 -1 303 -17 q 76 50 157 15 q 84 110 79 72 q 94 188 89 149 q 104 253 100 226 q 108 279 108 279 q 128 278 114 279 q 156 274 143 278 q 168 263 168 271 l 168 108 q 272 65 213 81 q 383 50 331 50 q 535 100 488 50 q 582 218 582 150 q 562 295 582 253 q 483 371 542 338 l 238 511 q 131 611 165 551 q 96 733 96 671 q 133 857 96 799 q 240 952 169 915 q 414 989 311 989 q 535 975 475 989 q 654 939 596 961 l 618 725 q 599 726 613 725 q 572 731 585 726 q 560 744 560 735 l 560 885 q 490 909 531 899 q 406 919 450 919 q 292 896 347 919 q 200 815 236 872 q 194 787 196 801 q 193 760 193 772 q 226 664 193 700 q 297 604 258 628 l 536 468 q 659 358 618 421 q 700 236 700 296 m 296 -115 l 343 0 l 388 0 l 364 -78 q 459 -121 429 -86 q 489 -196 489 -156 q 450 -283 489 -243 q 346 -324 411 -324 q 276 -310 306 -324 q 226 -281 246 -297 l 253 -239 q 329 -265 286 -265 q 383 -244 364 -265 q 401 -197 401 -224 q 376 -142 401 -168 q 296 -115 351 -117 z "},"Ŝ":{"ha":769,"x_min":76,"x_max":700,"o":"m 700 236 q 657 97 700 154 q 540 12 614 40 q 372 -17 465 -17 q 230 -1 303 -17 q 76 50 157 15 q 84 110 79 72 q 94 188 89 149 q 104 253 100 226 q 108 279 108 279 q 128 278 114 279 q 156 274 143 278 q 168 263 168 271 l 168 108 q 272 65 213 81 q 383 50 331 50 q 535 100 488 50 q 582 218 582 150 q 562 295 582 253 q 483 371 542 338 l 238 511 q 131 611 165 551 q 96 733 96 671 q 133 857 96 799 q 240 952 169 915 q 414 989 311 989 q 535 975 475 989 q 654 939 596 961 l 618 725 q 599 726 613 725 q 572 731 585 726 q 560 744 560 735 l 560 885 q 490 909 531 899 q 406 919 450 919 q 292 896 347 919 q 200 815 236 872 q 194 787 196 801 q 193 760 193 772 q 226 664 193 700 q 297 604 258 628 l 536 468 q 659 358 618 421 q 700 236 700 296 m 399 1188 l 264 1046 l 228 1069 q 308 1190 274 1135 q 367 1290 343 1246 l 429 1290 q 488 1190 453 1246 q 568 1069 522 1135 l 532 1046 l 399 1188 z "},"Ș":{"ha":769,"x_min":76,"x_max":700,"o":"m 700 236 q 657 97 700 154 q 540 12 614 40 q 372 -17 465 -17 q 230 -1 303 -17 q 76 50 157 15 q 84 110 79 72 q 94 188 89 149 q 104 253 100 226 q 108 279 108 279 q 128 278 114 279 q 156 274 143 278 q 168 263 168 271 l 168 108 q 272 65 213 81 q 383 50 331 50 q 535 100 488 50 q 582 218 582 150 q 562 295 582 253 q 483 371 542 338 l 238 511 q 131 611 165 551 q 96 733 96 671 q 133 857 96 799 q 240 952 169 915 q 414 989 311 989 q 535 975 475 989 q 654 939 596 961 l 618 725 q 599 726 613 725 q 572 731 585 726 q 560 744 560 735 l 560 885 q 490 909 531 899 q 406 919 450 919 q 292 896 347 919 q 200 815 236 872 q 194 787 196 801 q 193 760 193 772 q 226 664 193 700 q 297 604 258 628 l 536 468 q 659 358 618 421 q 700 236 700 296 m 311 -426 l 294 -385 q 360 -333 336 -365 q 383 -258 383 -300 l 383 -251 q 372 -253 376 -253 q 361 -253 368 -253 q 310 -169 310 -253 q 313 -127 310 -150 q 321 -79 315 -104 q 363 -72 340 -75 q 403 -69 385 -69 q 449 -112 431 -69 q 467 -221 467 -154 q 423 -347 467 -290 q 311 -426 379 -403 z "},"T":{"ha":782,"x_min":7,"x_max":775,"o":"m 390 965 l 731 972 q 762 971 750 972 q 775 958 774 969 l 760 740 q 740 741 754 740 q 714 746 726 742 q 701 760 701 750 l 681 903 l 442 897 l 449 486 l 442 72 l 599 42 q 596 17 599 35 q 578 0 593 0 q 535 1 578 0 q 394 6 492 1 q 251 1 297 1 q 204 0 204 0 q 186 17 189 0 q 183 42 183 35 l 340 72 l 333 486 l 340 897 l 101 903 l 81 760 q 67 746 79 750 q 42 741 56 742 q 22 740 28 740 l 7 958 q 21 971 8 969 q 51 972 33 972 l 390 965 z "},"Ŧ":{"ha":782,"x_min":7,"x_max":775,"o":"m 706 515 l 706 469 l 449 469 l 442 72 l 599 42 q 596 17 599 35 q 578 0 593 0 q 535 1 578 0 q 394 6 492 1 q 251 1 297 1 q 204 0 204 0 q 186 17 189 0 q 183 42 183 35 l 340 72 l 333 469 l 75 469 l 75 515 l 333 515 l 340 897 l 101 903 l 81 760 q 67 746 79 750 q 42 741 56 742 q 22 740 28 740 l 7 958 q 21 971 8 969 q 51 972 33 972 l 390 965 l 731 972 q 762 971 750 972 q 775 958 774 969 l 760 740 q 740 741 754 740 q 714 746 726 742 q 701 760 701 750 l 681 903 l 442 897 l 449 515 l 706 515 z "},"Ť":{"ha":782,"x_min":7,"x_max":775,"o":"m 390 965 l 731 972 q 762 971 750 972 q 775 958 774 969 l 760 740 q 740 741 754 740 q 714 746 726 742 q 701 760 701 750 l 681 903 l 442 897 l 449 486 l 442 72 l 599 42 q 596 17 599 35 q 578 0 593 0 q 535 1 578 0 q 394 6 492 1 q 251 1 297 1 q 204 0 204 0 q 186 17 189 0 q 183 42 183 35 l 340 72 l 333 486 l 340 897 l 101 903 l 81 760 q 67 746 79 750 q 42 741 56 742 q 22 740 28 740 l 7 958 q 21 971 8 969 q 51 972 33 972 l 390 965 m 383 1149 l 526 1290 l 561 1267 q 407 1046 461 1136 l 344 1046 q 294 1146 325 1090 q 221 1267 263 1201 l 258 1290 l 383 1149 z "},"Ţ":{"ha":782,"x_min":7,"x_max":775,"o":"m 390 965 l 731 972 q 762 971 750 972 q 775 958 774 969 l 760 740 q 740 741 754 740 q 714 746 726 742 q 701 760 701 750 l 681 903 l 442 897 l 449 486 l 442 72 l 599 42 q 596 17 599 35 q 578 0 593 0 q 535 1 578 0 q 394 6 492 1 q 251 1 297 1 q 204 0 204 0 q 186 17 189 0 q 183 42 183 35 l 340 72 l 333 486 l 340 897 l 101 903 l 81 760 q 67 746 79 750 q 42 741 56 742 q 22 740 28 740 l 7 958 q 21 971 8 969 q 51 972 33 972 l 390 965 m 329 -110 l 376 6 l 421 6 l 397 -72 q 492 -115 463 -81 q 522 -190 522 -150 q 483 -278 522 -237 q 379 -318 444 -318 q 309 -305 339 -318 q 260 -275 279 -292 l 286 -233 q 363 -260 319 -260 q 416 -239 397 -260 q 435 -192 435 -218 q 410 -137 435 -162 q 329 -110 385 -111 z "},"Ț":{"ha":782,"x_min":7,"x_max":775,"o":"m 390 965 l 731 972 q 762 971 750 972 q 775 958 774 969 l 760 740 q 740 741 754 740 q 714 746 726 742 q 701 760 701 750 l 681 903 l 442 897 l 449 486 l 442 72 l 599 42 q 596 17 599 35 q 578 0 593 0 q 535 1 578 0 q 394 6 492 1 q 251 1 297 1 q 204 0 204 0 q 186 17 189 0 q 183 42 183 35 l 340 72 l 333 486 l 340 897 l 101 903 l 81 760 q 67 746 79 750 q 42 741 56 742 q 22 740 28 740 l 7 958 q 21 971 8 969 q 51 972 33 972 l 390 965 m 344 -421 l 328 -379 q 393 -327 369 -360 q 417 -253 417 -294 l 417 -246 q 406 -247 410 -247 q 394 -247 401 -247 q 343 -164 343 -247 q 346 -122 343 -144 q 354 -74 349 -99 q 396 -67 374 -69 q 436 -64 418 -64 q 482 -106 464 -64 q 500 -215 500 -149 q 456 -341 500 -285 q 344 -421 413 -397 z "},"U":{"ha":1018,"x_min":56,"x_max":969,"o":"m 376 972 q 396 955 393 972 q 399 931 399 938 l 267 900 l 267 299 q 328 127 267 194 q 531 60 390 60 q 683 94 624 60 q 770 183 742 128 q 799 300 799 239 l 799 900 l 667 931 q 669 956 667 938 q 689 972 672 974 l 840 967 q 913 970 890 969 q 942 972 936 971 q 949 972 949 972 q 967 955 964 972 q 969 931 969 938 l 879 900 l 879 303 q 838 136 879 208 q 717 24 796 64 q 528 -17 639 -17 q 258 58 358 -17 q 158 303 158 133 l 158 900 l 56 929 q 58 954 56 936 q 76 972 61 972 q 84 972 76 972 q 122 971 92 972 q 217 967 151 969 q 345 972 314 971 q 376 972 376 972 z "},"Ú":{"ha":1018,"x_min":56,"x_max":969,"o":"m 376 972 q 396 955 393 972 q 399 931 399 938 l 267 900 l 267 299 q 328 127 267 194 q 531 60 390 60 q 683 94 624 60 q 770 183 742 128 q 799 300 799 239 l 799 900 l 667 931 q 669 956 667 938 q 689 972 672 974 l 840 967 q 913 970 890 969 q 942 972 936 971 q 949 972 949 972 q 967 955 964 972 q 969 931 969 938 l 879 900 l 879 303 q 838 136 879 208 q 717 24 796 64 q 528 -17 639 -17 q 258 58 358 -17 q 158 303 158 133 l 158 900 l 56 929 q 58 954 56 936 q 76 972 61 972 q 84 972 76 972 q 122 971 92 972 q 217 967 151 969 q 345 972 314 971 q 376 972 376 972 m 410 1058 l 394 1085 q 433 1112 394 1085 q 534 1185 472 1139 q 661 1283 596 1231 q 674 1262 665 1279 q 689 1224 682 1244 q 696 1190 696 1204 q 689 1174 696 1178 q 588 1121 643 1144 q 483 1081 532 1097 q 410 1058 435 1065 z "},"Ŭ":{"ha":1018,"x_min":56,"x_max":969,"o":"m 376 972 q 396 955 393 972 q 399 931 399 938 l 267 900 l 267 299 q 328 127 267 194 q 531 60 390 60 q 683 94 624 60 q 770 183 742 128 q 799 300 799 239 l 799 900 l 667 931 q 669 956 667 938 q 689 972 672 974 l 840 967 q 913 970 890 969 q 942 972 936 971 q 949 972 949 972 q 967 955 964 972 q 969 931 969 938 l 879 900 l 879 303 q 838 136 879 208 q 717 24 796 64 q 528 -17 639 -17 q 258 58 358 -17 q 158 303 158 133 l 158 900 l 56 929 q 58 954 56 936 q 76 972 61 972 q 84 972 76 972 q 122 971 92 972 q 217 967 151 969 q 345 972 314 971 q 376 972 376 972 m 546 1140 q 617 1175 586 1140 q 669 1268 647 1210 l 717 1257 q 646 1101 683 1156 q 546 1047 608 1047 q 446 1101 483 1047 q 375 1257 408 1156 l 422 1268 q 476 1175 446 1210 q 546 1140 507 1140 z "},"Û":{"ha":1018,"x_min":56,"x_max":969,"o":"m 376 972 q 396 955 393 972 q 399 931 399 938 l 267 900 l 267 299 q 328 127 267 194 q 531 60 390 60 q 683 94 624 60 q 770 183 742 128 q 799 300 799 239 l 799 900 l 667 931 q 669 956 667 938 q 689 972 672 974 l 840 967 q 913 970 890 969 q 942 972 936 971 q 949 972 949 972 q 967 955 964 972 q 969 931 969 938 l 879 900 l 879 303 q 838 136 879 208 q 717 24 796 64 q 528 -17 639 -17 q 258 58 358 -17 q 158 303 158 133 l 158 900 l 56 929 q 58 954 56 936 q 76 972 61 972 q 84 972 76 972 q 122 971 92 972 q 217 967 151 969 q 345 972 314 971 q 376 972 376 972 m 546 1188 l 411 1046 l 375 1069 q 456 1190 421 1135 q 514 1290 490 1246 l 576 1290 q 635 1190 600 1246 q 715 1069 669 1135 l 679 1046 l 546 1188 z "},"Ü":{"ha":1018,"x_min":56,"x_max":969,"o":"m 376 972 q 396 955 393 972 q 399 931 399 938 l 267 900 l 267 299 q 328 127 267 194 q 531 60 390 60 q 683 94 624 60 q 770 183 742 128 q 799 300 799 239 l 799 900 l 667 931 q 669 956 667 938 q 689 972 672 974 l 840 967 q 913 970 890 969 q 942 972 936 971 q 949 972 949 972 q 967 955 964 972 q 969 931 969 938 l 879 900 l 879 303 q 838 136 879 208 q 717 24 796 64 q 528 -17 639 -17 q 258 58 358 -17 q 158 303 158 133 l 158 900 l 56 929 q 58 954 56 936 q 76 972 61 972 q 84 972 76 972 q 122 971 92 972 q 217 967 151 969 q 345 972 314 971 q 376 972 376 972 m 444 1250 q 477 1229 468 1250 q 486 1181 486 1208 q 482 1132 486 1154 q 478 1110 478 1110 q 456 1104 478 1110 q 414 1099 433 1099 q 379 1120 388 1099 q 371 1168 371 1142 q 376 1219 371 1196 q 381 1242 381 1242 q 403 1246 381 1242 q 444 1250 426 1250 m 678 1250 q 710 1229 701 1250 q 719 1181 719 1208 q 715 1132 719 1154 q 711 1110 711 1110 q 689 1104 711 1110 q 647 1099 667 1099 q 613 1120 621 1099 q 604 1168 604 1142 q 609 1219 604 1196 q 614 1242 614 1242 q 637 1246 614 1242 q 678 1250 660 1250 z "},"Ù":{"ha":1018,"x_min":56,"x_max":969,"o":"m 376 972 q 396 955 393 972 q 399 931 399 938 l 267 900 l 267 299 q 328 127 267 194 q 531 60 390 60 q 683 94 624 60 q 770 183 742 128 q 799 300 799 239 l 799 900 l 667 931 q 669 956 667 938 q 689 972 672 974 l 840 967 q 913 970 890 969 q 942 972 936 971 q 949 972 949 972 q 967 955 964 972 q 969 931 969 938 l 879 900 l 879 303 q 838 136 879 208 q 717 24 796 64 q 528 -17 639 -17 q 258 58 358 -17 q 158 303 158 133 l 158 900 l 56 929 q 58 954 56 936 q 76 972 61 972 q 84 972 76 972 q 122 971 92 972 q 217 967 151 969 q 345 972 314 971 q 376 972 376 972 m 696 1085 l 681 1058 q 607 1081 656 1065 q 503 1121 558 1097 q 401 1174 449 1144 q 394 1190 394 1178 q 401 1224 394 1204 q 417 1262 408 1244 q 429 1283 426 1279 q 557 1185 496 1231 q 657 1112 618 1139 q 696 1085 696 1085 z "},"Ű":{"ha":1018,"x_min":56,"x_max":969,"o":"m 376 972 q 396 955 393 972 q 399 931 399 938 l 267 900 l 267 299 q 328 127 267 194 q 531 60 390 60 q 683 94 624 60 q 770 183 742 128 q 799 300 799 239 l 799 900 l 667 931 q 669 956 667 938 q 689 972 672 974 l 840 967 q 913 970 890 969 q 942 972 936 971 q 949 972 949 972 q 967 955 964 972 q 969 931 969 938 l 879 900 l 879 303 q 838 136 879 208 q 717 24 796 64 q 528 -17 639 -17 q 258 58 358 -17 q 158 303 158 133 l 158 900 l 56 929 q 58 954 56 936 q 76 972 61 972 q 84 972 76 972 q 122 971 92 972 q 217 967 151 969 q 345 972 314 971 q 376 972 376 972 m 343 1058 l 328 1085 q 363 1109 328 1085 q 457 1178 399 1133 q 581 1283 515 1224 q 593 1262 585 1279 q 608 1224 601 1244 q 615 1190 615 1204 q 608 1174 615 1178 q 510 1121 563 1144 q 413 1081 458 1097 q 343 1058 368 1065 m 575 1058 l 560 1085 q 595 1109 560 1085 q 689 1178 631 1133 q 813 1283 747 1224 q 825 1262 817 1279 q 840 1224 833 1244 q 847 1190 847 1204 q 840 1174 847 1178 q 742 1121 794 1144 q 645 1081 690 1097 q 575 1058 600 1065 z "},"Ū":{"ha":1018,"x_min":56,"x_max":969,"o":"m 376 972 q 396 955 393 972 q 399 931 399 938 l 267 900 l 267 299 q 328 127 267 194 q 531 60 390 60 q 683 94 624 60 q 770 183 742 128 q 799 300 799 239 l 799 900 l 667 931 q 669 956 667 938 q 689 972 672 974 l 840 967 q 913 970 890 969 q 942 972 936 971 q 949 972 949 972 q 967 955 964 972 q 969 931 969 938 l 879 900 l 879 303 q 838 136 879 208 q 717 24 796 64 q 528 -17 639 -17 q 258 58 358 -17 q 158 303 158 133 l 158 900 l 56 929 q 58 954 56 936 q 76 972 61 972 q 84 972 76 972 q 122 971 92 972 q 217 967 151 969 q 345 972 314 971 q 376 972 376 972 m 350 1131 l 350 1218 l 740 1218 l 740 1131 l 350 1131 z "},"Ų":{"ha":1018,"x_min":56,"x_max":969,"o":"m 376 972 q 396 955 393 972 q 399 931 399 938 l 267 900 l 267 299 q 328 127 267 194 q 531 60 390 60 q 683 94 624 60 q 770 183 742 128 q 799 300 799 239 l 799 900 l 667 931 q 669 956 667 938 q 689 972 672 974 l 840 967 q 913 970 890 969 q 942 972 936 971 q 949 972 949 972 q 967 955 964 972 q 969 931 969 938 l 879 900 l 879 303 q 838 136 879 208 q 717 24 796 64 q 528 -17 639 -17 q 258 58 358 -17 q 158 303 158 133 l 158 900 l 56 929 q 58 954 56 936 q 76 972 61 972 q 84 972 76 972 q 122 971 92 972 q 217 967 151 969 q 345 972 314 971 q 376 972 376 972 m 564 6 l 674 6 q 569 -42 610 -11 q 510 -110 529 -74 q 492 -181 492 -147 q 516 -239 492 -221 q 571 -257 540 -257 q 647 -233 613 -257 q 671 -275 665 -250 q 622 -305 653 -292 q 551 -318 592 -318 q 445 -280 482 -318 q 408 -190 408 -242 q 446 -84 408 -139 q 564 6 483 -29 z "},"Ů":{"ha":1018,"x_min":56,"x_max":969,"o":"m 376 972 q 396 955 393 972 q 399 931 399 938 l 267 900 l 267 299 q 328 127 267 194 q 531 60 390 60 q 683 94 624 60 q 770 183 742 128 q 799 300 799 239 l 799 900 l 667 931 q 669 956 667 938 q 689 972 672 974 l 840 967 q 913 970 890 969 q 942 972 936 971 q 949 972 949 972 q 967 955 964 972 q 969 931 969 938 l 879 900 l 879 303 q 838 136 879 208 q 717 24 796 64 q 528 -17 639 -17 q 258 58 358 -17 q 158 303 158 133 l 158 900 l 56 929 q 58 954 56 936 q 76 972 61 972 q 84 972 76 972 q 122 971 92 972 q 217 967 151 969 q 345 972 314 971 q 376 972 376 972 m 674 1181 q 637 1085 674 1117 q 542 1054 600 1054 q 453 1085 489 1054 q 417 1178 417 1115 q 456 1267 417 1236 q 547 1299 494 1299 q 637 1269 600 1299 q 674 1181 674 1240 m 481 1178 q 500 1119 481 1138 q 546 1100 519 1100 q 592 1119 574 1100 q 610 1178 610 1138 q 592 1233 610 1214 q 546 1253 574 1253 q 508 1246 522 1253 q 488 1221 494 1240 q 481 1178 481 1201 z "},"Ũ":{"ha":1018,"x_min":56,"x_max":969,"o":"m 376 972 q 396 955 393 972 q 399 931 399 938 l 267 900 l 267 299 q 328 127 267 194 q 531 60 390 60 q 683 94 624 60 q 770 183 742 128 q 799 300 799 239 l 799 900 l 667 931 q 669 956 667 938 q 689 972 672 974 l 840 967 q 913 970 890 969 q 942 972 936 971 q 949 972 949 972 q 967 955 964 972 q 969 931 969 938 l 879 900 l 879 303 q 838 136 879 208 q 717 24 796 64 q 528 -17 639 -17 q 258 58 358 -17 q 158 303 158 133 l 158 900 l 56 929 q 58 954 56 936 q 76 972 61 972 q 84 972 76 972 q 122 971 92 972 q 217 967 151 969 q 345 972 314 971 q 376 972 376 972 m 742 1243 l 765 1217 q 695 1134 731 1156 q 625 1113 660 1113 q 561 1122 592 1113 q 500 1141 531 1132 q 436 1150 469 1150 q 392 1139 414 1150 q 350 1108 371 1128 l 326 1135 q 397 1217 363 1196 q 467 1239 432 1239 q 531 1230 500 1239 q 592 1211 561 1221 q 656 1201 624 1201 q 700 1213 679 1201 q 742 1243 721 1224 z "},"V":{"ha":893,"x_min":0,"x_max":893,"o":"m 329 931 l 213 900 l 469 132 l 717 900 l 599 931 q 601 956 599 939 q 619 972 604 972 q 619 972 619 972 q 619 972 619 972 l 619 972 q 627 972 619 972 q 665 971 635 972 q 764 967 696 969 q 853 971 833 969 q 872 972 872 972 l 872 972 q 872 972 872 972 q 872 972 872 972 q 890 954 888 971 q 893 931 893 938 l 803 900 l 500 0 l 403 0 l 90 900 l 0 931 q 3 955 0 938 q 21 972 6 972 q 31 972 21 972 q 70 971 40 972 q 160 967 100 969 q 266 971 235 969 q 303 972 297 972 q 308 972 308 972 q 326 956 324 972 q 329 931 329 939 z "},"W":{"ha":1278,"x_min":0,"x_max":1278,"o":"m 329 931 l 211 900 l 413 157 l 643 904 l 692 904 l 692 811 l 896 157 l 1103 900 l 985 931 q 988 956 985 939 q 1006 972 990 974 l 1149 967 q 1238 971 1218 969 q 1257 972 1257 972 l 1257 972 q 1257 972 1257 972 q 1257 972 1257 972 q 1275 953 1272 969 q 1278 931 1278 938 l 1188 900 l 938 0 l 832 0 l 639 621 l 449 0 l 343 0 l 90 900 l 0 931 q 3 955 0 938 q 21 972 6 972 q 31 972 21 972 q 70 971 40 972 q 160 967 100 969 q 266 971 235 969 q 303 972 297 972 q 308 972 308 972 q 326 956 324 972 q 329 931 329 939 z "},"Ẃ":{"ha":1278,"x_min":0,"x_max":1278,"o":"m 329 931 l 211 900 l 413 157 l 643 904 l 692 904 l 692 811 l 896 157 l 1103 900 l 985 931 q 988 956 985 939 q 1006 972 990 974 l 1149 967 q 1238 971 1218 969 q 1257 972 1257 972 l 1257 972 q 1257 972 1257 972 q 1257 972 1257 972 q 1275 953 1272 969 q 1278 931 1278 938 l 1188 900 l 938 0 l 832 0 l 639 621 l 449 0 l 343 0 l 90 900 l 0 931 q 3 955 0 938 q 21 972 6 972 q 31 972 21 972 q 70 971 40 972 q 160 967 100 969 q 266 971 235 969 q 303 972 297 972 q 308 972 308 972 q 326 956 324 972 q 329 931 329 939 m 531 1058 l 515 1085 q 554 1112 515 1085 q 655 1185 593 1139 q 782 1283 717 1231 q 794 1262 786 1279 q 810 1224 803 1244 q 817 1190 817 1204 q 810 1174 817 1178 q 708 1121 764 1144 q 604 1081 653 1097 q 531 1058 556 1065 z "},"Ŵ":{"ha":1278,"x_min":0,"x_max":1278,"o":"m 329 931 l 211 900 l 413 157 l 643 904 l 692 904 l 692 811 l 896 157 l 1103 900 l 985 931 q 988 956 985 939 q 1006 972 990 974 l 1149 967 q 1238 971 1218 969 q 1257 972 1257 972 l 1257 972 q 1257 972 1257 972 q 1257 972 1257 972 q 1275 953 1272 969 q 1278 931 1278 938 l 1188 900 l 938 0 l 832 0 l 639 621 l 449 0 l 343 0 l 90 900 l 0 931 q 3 955 0 938 q 21 972 6 972 q 31 972 21 972 q 70 971 40 972 q 160 967 100 969 q 266 971 235 969 q 303 972 297 972 q 308 972 308 972 q 326 956 324 972 q 329 931 329 939 m 667 1188 l 532 1046 l 496 1069 q 576 1190 542 1135 q 635 1290 611 1246 l 697 1290 q 756 1190 721 1246 q 836 1069 790 1135 l 800 1046 l 667 1188 z "},"Ẅ":{"ha":1278,"x_min":0,"x_max":1278,"o":"m 329 931 l 211 900 l 413 157 l 643 904 l 692 904 l 692 811 l 896 157 l 1103 900 l 985 931 q 988 956 985 939 q 1006 972 990 974 l 1149 967 q 1238 971 1218 969 q 1257 972 1257 972 l 1257 972 q 1257 972 1257 972 q 1257 972 1257 972 q 1275 953 1272 969 q 1278 931 1278 938 l 1188 900 l 938 0 l 832 0 l 639 621 l 449 0 l 343 0 l 90 900 l 0 931 q 3 955 0 938 q 21 972 6 972 q 31 972 21 972 q 70 971 40 972 q 160 967 100 969 q 266 971 235 969 q 303 972 297 972 q 308 972 308 972 q 326 956 324 972 q 329 931 329 939 m 565 1250 q 598 1229 589 1250 q 607 1181 607 1208 q 603 1132 607 1154 q 599 1110 599 1110 q 576 1104 599 1110 q 535 1099 554 1099 q 500 1120 508 1099 q 492 1168 492 1142 q 497 1219 492 1196 q 501 1242 501 1242 q 524 1246 501 1242 q 565 1250 547 1250 m 799 1250 q 831 1229 822 1250 q 840 1181 840 1208 q 836 1132 840 1154 q 832 1110 832 1110 q 810 1104 832 1110 q 768 1099 788 1099 q 733 1120 742 1099 q 725 1168 725 1142 q 730 1219 725 1196 q 735 1242 735 1242 q 758 1246 735 1242 q 799 1250 781 1250 z "},"Ẁ":{"ha":1278,"x_min":0,"x_max":1278,"o":"m 329 931 l 211 900 l 413 157 l 643 904 l 692 904 l 692 811 l 896 157 l 1103 900 l 985 931 q 988 956 985 939 q 1006 972 990 974 l 1149 967 q 1238 971 1218 969 q 1257 972 1257 972 l 1257 972 q 1257 972 1257 972 q 1257 972 1257 972 q 1275 953 1272 969 q 1278 931 1278 938 l 1188 900 l 938 0 l 832 0 l 639 621 l 449 0 l 343 0 l 90 900 l 0 931 q 3 955 0 938 q 21 972 6 972 q 31 972 21 972 q 70 971 40 972 q 160 967 100 969 q 266 971 235 969 q 303 972 297 972 q 308 972 308 972 q 326 956 324 972 q 329 931 329 939 m 817 1085 l 801 1058 q 728 1081 776 1065 q 624 1121 679 1097 q 522 1174 569 1144 q 515 1190 515 1178 q 522 1224 515 1204 q 538 1262 529 1244 q 550 1283 547 1279 q 678 1185 617 1231 q 778 1112 739 1139 q 817 1085 817 1085 z "},"X":{"ha":967,"x_min":21,"x_max":946,"o":"m 578 42 l 706 72 l 471 424 l 225 72 l 353 42 q 350 17 353 33 q 332 0 347 0 l 164 6 q 63 1 85 1 q 40 0 40 0 q 24 17 26 0 q 21 42 21 35 l 125 72 l 426 490 l 154 900 l 50 931 q 53 955 50 938 q 71 972 56 972 q 101 972 71 972 q 221 967 131 971 q 327 971 296 969 q 364 972 358 972 q 369 972 369 972 q 388 956 385 972 q 390 931 390 939 l 283 900 l 499 575 l 726 900 l 613 931 q 615 956 613 939 q 633 972 618 972 l 788 967 q 877 971 858 969 q 896 972 896 972 l 896 972 q 896 972 896 972 q 896 972 896 972 q 914 954 911 971 q 917 931 917 938 l 826 900 l 544 507 l 835 72 l 946 42 q 943 17 946 35 q 925 0 940 0 q 896 1 925 0 q 776 6 867 1 q 663 1 701 3 q 612 0 625 0 q 599 0 599 0 q 581 17 583 0 q 578 42 578 33 z "},"Y":{"ha":806,"x_min":0,"x_max":806,"o":"m 322 931 l 204 900 l 426 446 l 625 900 l 511 931 q 514 956 511 939 q 532 972 517 972 q 532 972 532 972 q 532 972 532 972 l 532 972 q 540 972 532 972 q 578 971 547 972 q 676 967 608 969 q 765 971 746 969 q 785 972 785 972 l 785 972 q 785 972 785 972 q 785 972 785 972 q 803 954 800 971 q 806 931 806 938 l 715 900 l 468 388 l 468 72 l 614 42 q 611 17 614 35 q 593 0 608 0 q 554 1 593 0 q 418 6 515 1 q 278 1 321 1 q 235 0 235 0 q 217 17 219 0 q 214 42 214 35 l 360 72 l 360 385 l 90 900 l 0 931 q 3 955 0 938 q 21 972 6 972 q 29 972 21 972 q 67 971 38 972 q 156 967 96 969 q 261 971 231 969 q 297 972 292 972 q 301 972 301 972 q 319 956 317 972 q 322 931 322 939 z "},"Ý":{"ha":806,"x_min":0,"x_max":806,"o":"m 322 931 l 204 900 l 426 446 l 625 900 l 511 931 q 514 956 511 939 q 532 972 517 972 q 532 972 532 972 q 532 972 532 972 l 532 972 q 540 972 532 972 q 578 971 547 972 q 676 967 608 969 q 765 971 746 969 q 785 972 785 972 l 785 972 q 785 972 785 972 q 785 972 785 972 q 803 954 800 971 q 806 931 806 938 l 715 900 l 468 388 l 468 72 l 614 42 q 611 17 614 35 q 593 0 608 0 q 554 1 593 0 q 418 6 515 1 q 278 1 321 1 q 235 0 235 0 q 217 17 219 0 q 214 42 214 35 l 360 72 l 360 385 l 90 900 l 0 931 q 3 955 0 938 q 21 972 6 972 q 29 972 21 972 q 67 971 38 972 q 156 967 96 969 q 261 971 231 969 q 297 972 292 972 q 301 972 301 972 q 319 956 317 972 q 322 931 322 939 m 281 1058 l 265 1085 q 304 1112 265 1085 q 405 1185 343 1139 q 532 1283 467 1231 q 544 1262 536 1279 q 560 1224 553 1244 q 567 1190 567 1204 q 560 1174 567 1178 q 458 1121 514 1144 q 354 1081 403 1097 q 281 1058 306 1065 z "},"Ŷ":{"ha":806,"x_min":0,"x_max":806,"o":"m 322 931 l 204 900 l 426 446 l 625 900 l 511 931 q 514 956 511 939 q 532 972 517 972 q 532 972 532 972 q 532 972 532 972 l 532 972 q 540 972 532 972 q 578 971 547 972 q 676 967 608 969 q 765 971 746 969 q 785 972 785 972 l 785 972 q 785 972 785 972 q 785 972 785 972 q 803 954 800 971 q 806 931 806 938 l 715 900 l 468 388 l 468 72 l 614 42 q 611 17 614 35 q 593 0 608 0 q 554 1 593 0 q 418 6 515 1 q 278 1 321 1 q 235 0 235 0 q 217 17 219 0 q 214 42 214 35 l 360 72 l 360 385 l 90 900 l 0 931 q 3 955 0 938 q 21 972 6 972 q 29 972 21 972 q 67 971 38 972 q 156 967 96 969 q 261 971 231 969 q 297 972 292 972 q 301 972 301 972 q 319 956 317 972 q 322 931 322 939 m 417 1188 l 282 1046 l 246 1069 q 326 1190 292 1135 q 385 1290 361 1246 l 447 1290 q 506 1190 471 1246 q 586 1069 540 1135 l 550 1046 l 417 1188 z "},"Ÿ":{"ha":806,"x_min":0,"x_max":806,"o":"m 322 931 l 204 900 l 426 446 l 625 900 l 511 931 q 514 956 511 939 q 532 972 517 972 q 532 972 532 972 q 532 972 532 972 l 532 972 q 540 972 532 972 q 578 971 547 972 q 676 967 608 969 q 765 971 746 969 q 785 972 785 972 l 785 972 q 785 972 785 972 q 785 972 785 972 q 803 954 800 971 q 806 931 806 938 l 715 900 l 468 388 l 468 72 l 614 42 q 611 17 614 35 q 593 0 608 0 q 554 1 593 0 q 418 6 515 1 q 278 1 321 1 q 235 0 235 0 q 217 17 219 0 q 214 42 214 35 l 360 72 l 360 385 l 90 900 l 0 931 q 3 955 0 938 q 21 972 6 972 q 29 972 21 972 q 67 971 38 972 q 156 967 96 969 q 261 971 231 969 q 297 972 292 972 q 301 972 301 972 q 319 956 317 972 q 322 931 322 939 m 315 1250 q 348 1229 339 1250 q 357 1181 357 1208 q 353 1132 357 1154 q 349 1110 349 1110 q 326 1104 349 1110 q 285 1099 304 1099 q 250 1120 258 1099 q 242 1168 242 1142 q 247 1219 242 1196 q 251 1242 251 1242 q 274 1246 251 1242 q 315 1250 297 1250 m 549 1250 q 581 1229 572 1250 q 590 1181 590 1208 q 586 1132 590 1154 q 582 1110 582 1110 q 560 1104 582 1110 q 518 1099 538 1099 q 483 1120 492 1099 q 475 1168 475 1142 q 480 1219 475 1196 q 485 1242 485 1242 q 508 1246 485 1242 q 549 1250 531 1250 z "},"Ỳ":{"ha":806,"x_min":0,"x_max":806,"o":"m 322 931 l 204 900 l 426 446 l 625 900 l 511 931 q 514 956 511 939 q 532 972 517 972 q 532 972 532 972 q 532 972 532 972 l 532 972 q 540 972 532 972 q 578 971 547 972 q 676 967 608 969 q 765 971 746 969 q 785 972 785 972 l 785 972 q 785 972 785 972 q 785 972 785 972 q 803 954 800 971 q 806 931 806 938 l 715 900 l 468 388 l 468 72 l 614 42 q 611 17 614 35 q 593 0 608 0 q 554 1 593 0 q 418 6 515 1 q 278 1 321 1 q 235 0 235 0 q 217 17 219 0 q 214 42 214 35 l 360 72 l 360 385 l 90 900 l 0 931 q 3 955 0 938 q 21 972 6 972 q 29 972 21 972 q 67 971 38 972 q 156 967 96 969 q 261 971 231 969 q 297 972 292 972 q 301 972 301 972 q 319 956 317 972 q 322 931 322 939 m 567 1085 l 551 1058 q 478 1081 526 1065 q 374 1121 429 1097 q 272 1174 319 1144 q 265 1190 265 1178 q 272 1224 265 1204 q 288 1262 279 1244 q 300 1283 297 1279 q 428 1185 367 1231 q 528 1112 489 1139 q 567 1085 567 1085 z "},"Z":{"ha":849,"x_min":39,"x_max":801,"o":"m 679 76 l 679 210 q 692 224 679 219 q 719 228 704 228 q 738 229 733 229 l 772 17 q 762 3 771 6 q 732 0 753 0 l 107 7 l 63 -17 l 39 11 l 633 892 l 203 892 l 203 765 q 190 751 203 756 q 164 747 178 747 q 144 746 150 746 l 110 956 q 139 972 111 972 q 147 972 140 972 q 180 972 153 972 q 269 969 207 971 q 440 964 331 967 q 722 957 550 961 l 771 989 l 801 965 l 203 76 l 679 76 z "},"Ź":{"ha":849,"x_min":39,"x_max":801,"o":"m 679 76 l 679 210 q 692 224 679 219 q 719 228 704 228 q 738 229 733 229 l 772 17 q 762 3 771 6 q 732 0 753 0 l 107 7 l 63 -17 l 39 11 l 633 892 l 203 892 l 203 765 q 190 751 203 756 q 164 747 178 747 q 144 746 150 746 l 110 956 q 139 972 111 972 q 147 972 140 972 q 180 972 153 972 q 269 969 207 971 q 440 964 331 967 q 722 957 550 961 l 771 989 l 801 965 l 203 76 l 679 76 m 306 1058 l 290 1085 q 329 1112 290 1085 q 430 1185 368 1139 q 557 1283 492 1231 q 569 1262 561 1279 q 585 1224 578 1244 q 592 1190 592 1204 q 585 1174 592 1178 q 483 1121 539 1144 q 379 1081 428 1097 q 306 1058 331 1065 z "},"Ž":{"ha":849,"x_min":39,"x_max":801,"o":"m 679 76 l 679 210 q 692 224 679 219 q 719 228 704 228 q 738 229 733 229 l 772 17 q 762 3 771 6 q 732 0 753 0 l 107 7 l 63 -17 l 39 11 l 633 892 l 203 892 l 203 765 q 190 751 203 756 q 164 747 178 747 q 144 746 150 746 l 110 956 q 139 972 111 972 q 147 972 140 972 q 180 972 153 972 q 269 969 207 971 q 440 964 331 967 q 722 957 550 961 l 771 989 l 801 965 l 203 76 l 679 76 m 433 1149 l 576 1290 l 611 1267 q 457 1046 511 1136 l 394 1046 q 344 1146 375 1090 q 271 1267 313 1201 l 308 1290 l 433 1149 z "},"Ż":{"ha":849,"x_min":39,"x_max":801,"o":"m 679 76 l 679 210 q 692 224 679 219 q 719 228 704 228 q 738 229 733 229 l 772 17 q 762 3 771 6 q 732 0 753 0 l 107 7 l 63 -17 l 39 11 l 633 892 l 203 892 l 203 765 q 190 751 203 756 q 164 747 178 747 q 144 746 150 746 l 110 956 q 139 972 111 972 q 147 972 140 972 q 180 972 153 972 q 269 969 207 971 q 440 964 331 967 q 722 957 550 961 l 771 989 l 801 965 l 203 76 l 679 76 m 458 1258 q 495 1235 485 1258 q 506 1181 506 1211 q 501 1128 506 1153 q 496 1103 496 1103 q 471 1097 496 1103 q 425 1090 446 1090 q 386 1115 396 1090 q 376 1167 376 1139 q 382 1223 376 1197 q 388 1249 388 1249 q 413 1253 388 1249 q 458 1258 439 1258 z "},"a":{"ha":724,"x_min":0,"x_max":724,"o":"m 172 63 l 265 43 q 263 17 265 33 q 240 0 260 0 q 233 0 240 0 q 200 1 225 0 q 119 4 175 3 l 24 0 q 0 42 0 0 l 81 63 l 315 679 l 406 679 l 643 64 l 724 42 q 721 17 724 35 q 700 0 718 0 q 676 1 700 0 q 588 4 653 1 q 490 1 514 1 q 467 0 467 0 q 445 17 449 0 q 442 43 442 33 l 536 63 l 481 217 l 222 203 l 172 63 m 351 572 l 246 275 l 458 275 l 351 572 z "},"á":{"ha":724,"x_min":0,"x_max":724,"o":"m 172 63 l 265 43 q 263 17 265 33 q 240 0 260 0 q 233 0 240 0 q 200 1 225 0 q 119 4 175 3 l 24 0 q 0 42 0 0 l 81 63 l 315 679 l 406 679 l 643 64 l 724 42 q 721 17 724 35 q 700 0 718 0 q 676 1 700 0 q 588 4 653 1 q 490 1 514 1 q 467 0 467 0 q 445 17 449 0 q 442 43 442 33 l 536 63 l 481 217 l 222 203 l 172 63 m 351 572 l 246 275 l 458 275 l 351 572 m 226 761 l 211 788 q 250 815 211 788 q 351 888 289 842 q 478 986 413 933 q 490 965 482 982 q 506 927 499 947 q 513 893 513 907 q 506 876 513 881 q 404 824 460 847 q 300 784 349 800 q 226 761 251 768 z "},"ă":{"ha":724,"x_min":0,"x_max":724,"o":"m 172 63 l 265 43 q 263 17 265 33 q 240 0 260 0 q 233 0 240 0 q 200 1 225 0 q 119 4 175 3 l 24 0 q 0 42 0 0 l 81 63 l 315 679 l 406 679 l 643 64 l 724 42 q 721 17 724 35 q 700 0 718 0 q 676 1 700 0 q 588 4 653 1 q 490 1 514 1 q 467 0 467 0 q 445 17 449 0 q 442 43 442 33 l 536 63 l 481 217 l 222 203 l 172 63 m 351 572 l 246 275 l 458 275 l 351 572 m 363 843 q 433 878 403 843 q 486 971 464 913 l 533 960 q 463 804 500 858 q 363 750 425 750 q 263 804 300 750 q 192 960 225 858 l 239 971 q 293 878 263 913 q 363 843 324 843 z "},"â":{"ha":724,"x_min":0,"x_max":724,"o":"m 172 63 l 265 43 q 263 17 265 33 q 240 0 260 0 q 233 0 240 0 q 200 1 225 0 q 119 4 175 3 l 24 0 q 0 42 0 0 l 81 63 l 315 679 l 406 679 l 643 64 l 724 42 q 721 17 724 35 q 700 0 718 0 q 676 1 700 0 q 588 4 653 1 q 490 1 514 1 q 467 0 467 0 q 445 17 449 0 q 442 43 442 33 l 536 63 l 481 217 l 222 203 l 172 63 m 351 572 l 246 275 l 458 275 l 351 572 m 363 890 l 228 749 l 192 772 q 272 893 238 838 q 331 993 307 949 l 393 993 q 451 893 417 949 q 532 772 486 838 l 496 749 l 363 890 z "},"ä":{"ha":724,"x_min":0,"x_max":724,"o":"m 172 63 l 265 43 q 263 17 265 33 q 240 0 260 0 q 233 0 240 0 q 200 1 225 0 q 119 4 175 3 l 24 0 q 0 42 0 0 l 81 63 l 315 679 l 406 679 l 643 64 l 724 42 q 721 17 724 35 q 700 0 718 0 q 676 1 700 0 q 588 4 653 1 q 490 1 514 1 q 467 0 467 0 q 445 17 449 0 q 442 43 442 33 l 536 63 l 481 217 l 222 203 l 172 63 m 351 572 l 246 275 l 458 275 l 351 572 m 449 797 q 413 820 422 797 q 404 869 404 843 q 408 921 404 897 q 414 947 413 944 q 440 952 414 947 q 482 957 465 957 q 515 934 506 957 q 525 883 525 911 q 522 835 525 857 q 517 810 518 813 q 492 803 517 810 q 449 797 467 797 m 243 797 q 208 820 217 797 q 199 869 199 843 q 203 921 199 897 q 208 947 207 944 q 234 952 208 947 q 276 957 260 957 q 310 934 300 957 q 319 883 319 911 q 316 835 319 857 q 311 810 313 813 q 286 803 311 810 q 243 797 261 797 z "},"à":{"ha":724,"x_min":0,"x_max":724,"o":"m 172 63 l 265 43 q 263 17 265 33 q 240 0 260 0 q 233 0 240 0 q 200 1 225 0 q 119 4 175 3 l 24 0 q 0 42 0 0 l 81 63 l 315 679 l 406 679 l 643 64 l 724 42 q 721 17 724 35 q 700 0 718 0 q 676 1 700 0 q 588 4 653 1 q 490 1 514 1 q 467 0 467 0 q 445 17 449 0 q 442 43 442 33 l 536 63 l 481 217 l 222 203 l 172 63 m 351 572 l 246 275 l 458 275 l 351 572 m 513 788 l 497 761 q 424 784 472 768 q 320 824 375 800 q 218 876 265 847 q 211 893 211 881 q 218 927 211 907 q 234 965 225 947 q 246 986 243 982 q 374 888 313 933 q 474 815 435 842 q 513 788 513 788 z "},"ā":{"ha":724,"x_min":0,"x_max":724,"o":"m 172 63 l 265 43 q 263 17 265 33 q 240 0 260 0 q 233 0 240 0 q 200 1 225 0 q 119 4 175 3 l 24 0 q 0 42 0 0 l 81 63 l 315 679 l 406 679 l 643 64 l 724 42 q 721 17 724 35 q 700 0 718 0 q 676 1 700 0 q 588 4 653 1 q 490 1 514 1 q 467 0 467 0 q 445 17 449 0 q 442 43 442 33 l 536 63 l 481 217 l 222 203 l 172 63 m 351 572 l 246 275 l 458 275 l 351 572 m 167 833 l 167 921 l 557 921 l 557 833 l 167 833 z "},"ą":{"ha":724,"x_min":0,"x_max":724,"o":"m 172 63 l 265 43 q 263 17 265 33 q 240 0 260 0 q 233 0 240 0 q 200 1 225 0 q 119 4 175 3 l 24 0 q 0 42 0 0 l 81 63 l 315 679 l 406 679 l 643 64 l 724 42 q 721 17 724 35 q 700 0 718 0 q 676 1 700 0 q 588 4 653 1 q 490 1 514 1 q 467 0 467 0 q 445 17 449 0 q 442 43 442 33 l 536 63 l 481 217 l 222 203 l 172 63 m 351 572 l 246 275 l 458 275 l 351 572 m 582 6 l 692 6 q 588 -42 628 -11 q 528 -110 547 -74 q 510 -181 510 -147 q 534 -239 510 -221 q 589 -257 558 -257 q 665 -233 631 -257 q 689 -275 683 -250 q 640 -305 671 -292 q 569 -318 610 -318 q 463 -280 500 -318 q 426 -190 426 -242 q 464 -84 426 -139 q 582 6 501 -29 z "},"å":{"ha":724,"x_min":0,"x_max":724,"o":"m 172 63 l 265 43 q 263 17 265 33 q 240 0 260 0 q 233 0 240 0 q 200 1 225 0 q 119 4 175 3 l 24 0 q 0 42 0 0 l 81 63 l 315 679 l 406 679 l 643 64 l 724 42 q 721 17 724 35 q 700 0 718 0 q 676 1 700 0 q 588 4 653 1 q 490 1 514 1 q 467 0 467 0 q 445 17 449 0 q 442 43 442 33 l 536 63 l 481 217 l 222 203 l 172 63 m 351 572 l 246 275 l 458 275 l 351 572 m 490 883 q 453 788 490 819 q 358 757 417 757 q 269 788 306 757 q 233 881 233 818 q 272 970 233 939 q 364 1001 311 1001 q 453 972 417 1001 q 490 883 490 943 m 297 881 q 317 822 297 840 q 363 803 336 803 q 408 822 390 803 q 426 881 426 840 q 408 936 426 917 q 363 956 390 956 q 325 949 339 956 q 304 924 311 943 q 297 881 297 904 z "},"ǻ":{"ha":724,"x_min":0,"x_max":724,"o":"m 360 757 q 271 788 307 757 q 235 881 235 818 q 267 965 235 933 q 347 1000 300 996 q 432 1062 379 1022 q 542 1147 485 1101 q 551 1130 544 1144 q 565 1098 558 1115 q 571 1068 571 1081 q 565 1054 571 1058 q 499 1018 535 1035 q 428 989 463 1001 q 474 950 457 976 q 492 883 492 924 q 455 788 492 819 q 360 757 418 757 m 364 803 q 410 822 392 803 q 428 881 428 840 q 410 936 428 917 q 364 956 392 956 q 326 949 340 956 q 306 924 313 943 q 299 881 299 904 q 318 822 299 840 q 364 803 338 803 m 172 63 l 265 43 q 263 17 265 33 q 240 0 260 0 q 233 0 240 0 q 200 1 225 0 q 119 4 175 3 l 24 0 q 0 42 0 0 l 81 63 l 315 679 l 406 679 l 643 64 l 724 42 q 721 17 724 35 q 700 0 718 0 q 676 1 700 0 q 588 4 653 1 q 490 1 514 1 q 467 0 467 0 q 445 17 449 0 q 442 43 442 33 l 536 63 l 481 217 l 222 203 l 172 63 m 351 572 l 246 275 l 458 275 l 351 572 z "},"ã":{"ha":724,"x_min":0,"x_max":724,"o":"m 172 63 l 265 43 q 263 17 265 33 q 240 0 260 0 q 233 0 240 0 q 200 1 225 0 q 119 4 175 3 l 24 0 q 0 42 0 0 l 81 63 l 315 679 l 406 679 l 643 64 l 724 42 q 721 17 724 35 q 700 0 718 0 q 676 1 700 0 q 588 4 653 1 q 490 1 514 1 q 467 0 467 0 q 445 17 449 0 q 442 43 442 33 l 536 63 l 481 217 l 222 203 l 172 63 m 351 572 l 246 275 l 458 275 l 351 572 m 558 946 l 582 919 q 512 837 547 858 q 442 815 476 815 q 378 825 408 815 q 317 844 347 835 q 253 853 286 853 q 209 842 231 853 q 167 811 188 831 l 143 838 q 214 920 179 899 q 283 942 249 942 q 347 933 317 942 q 409 914 378 924 q 472 904 440 904 q 517 915 496 904 q 558 946 538 926 z "},"æ":{"ha":933,"x_min":-14,"x_max":882,"o":"m 543 8 l 421 0 q 400 17 403 0 q 397 43 397 33 l 488 64 l 451 217 l 210 204 l 147 63 l 242 43 q 239 17 242 33 q 218 0 236 0 q 213 0 218 0 q 185 1 208 0 q 104 4 161 3 q 38 1 58 3 q 14 0 18 0 q 10 0 10 0 q -11 17 -8 0 q -14 43 -14 35 l 65 64 l 347 679 l 444 675 l 781 679 q 811 677 800 679 q 822 660 822 675 l 797 513 q 778 513 792 513 q 752 519 764 514 q 740 533 740 524 l 740 614 l 460 611 l 514 381 l 756 381 l 756 324 l 531 310 l 588 68 l 800 68 l 824 147 q 840 167 828 163 q 882 171 853 171 l 874 17 q 846 0 869 0 q 838 0 844 0 q 804 1 832 0 q 715 3 776 1 q 543 8 654 6 m 369 569 l 242 275 l 439 275 l 369 569 z "},"ǽ":{"ha":933,"x_min":-14,"x_max":882,"o":"m 543 8 l 421 0 q 400 17 403 0 q 397 43 397 33 l 488 64 l 451 217 l 210 204 l 147 63 l 242 43 q 239 17 242 33 q 218 0 236 0 q 213 0 218 0 q 185 1 208 0 q 104 4 161 3 q 38 1 58 3 q 14 0 18 0 q 10 0 10 0 q -11 17 -8 0 q -14 43 -14 35 l 65 64 l 347 679 l 444 675 l 781 679 q 811 677 800 679 q 822 660 822 675 l 797 513 q 778 513 792 513 q 752 519 764 514 q 740 533 740 524 l 740 614 l 460 611 l 514 381 l 756 381 l 756 324 l 531 310 l 588 68 l 800 68 l 824 147 q 840 167 828 163 q 882 171 853 171 l 874 17 q 846 0 869 0 q 838 0 844 0 q 804 1 832 0 q 715 3 776 1 q 543 8 654 6 m 369 569 l 242 275 l 439 275 l 369 569 m 428 761 l 413 788 q 451 815 413 788 q 552 888 490 842 q 679 986 614 933 q 692 965 683 982 q 707 927 700 947 q 714 893 714 907 q 707 876 714 881 q 606 824 661 847 q 501 784 550 800 q 428 761 453 768 z "},"b":{"ha":679,"x_min":76,"x_max":624,"o":"m 403 0 l 217 8 l 101 0 q 80 17 83 0 q 76 43 76 35 l 165 63 l 165 617 l 76 636 q 80 662 76 644 q 101 679 83 679 q 124 678 101 679 q 217 675 146 678 l 340 679 q 467 654 417 679 q 542 590 517 629 q 567 508 567 551 q 542 427 567 467 q 474 364 518 388 q 588 292 551 342 q 624 189 624 243 q 565 56 624 113 q 403 0 507 0 m 329 626 l 256 615 l 265 381 l 336 381 q 438 424 404 386 q 471 506 471 463 q 434 588 471 550 q 329 626 397 625 m 378 58 q 488 99 453 58 q 524 189 524 140 q 481 284 524 240 q 360 331 439 328 l 265 319 l 256 69 q 326 61 293 64 q 378 58 360 58 z "},"c":{"ha":690,"x_min":49,"x_max":628,"o":"m 628 200 l 619 53 q 514 5 574 21 q 386 -11 454 -11 q 214 28 290 -11 q 93 146 138 67 q 49 343 49 225 q 97 534 49 457 q 225 651 144 611 q 403 690 306 690 q 622 629 528 690 l 593 476 q 573 477 588 476 q 546 483 558 478 q 533 499 533 488 l 533 599 q 469 613 508 607 q 396 618 429 618 q 322 612 360 618 q 256 597 285 606 q 184 497 213 565 q 156 342 156 428 q 188 182 156 246 q 274 87 219 118 q 396 56 329 56 q 477 63 440 56 q 544 88 514 69 l 568 182 q 597 197 574 194 q 628 200 621 200 z "},"ć":{"ha":690,"x_min":49,"x_max":628,"o":"m 628 200 l 619 53 q 514 5 574 21 q 386 -11 454 -11 q 214 28 290 -11 q 93 146 138 67 q 49 343 49 225 q 97 534 49 457 q 225 651 144 611 q 403 690 306 690 q 622 629 528 690 l 593 476 q 573 477 588 476 q 546 483 558 478 q 533 499 533 488 l 533 599 q 469 613 508 607 q 396 618 429 618 q 322 612 360 618 q 256 597 285 606 q 184 497 213 565 q 156 342 156 428 q 188 182 156 246 q 274 87 219 118 q 396 56 329 56 q 477 63 440 56 q 544 88 514 69 l 568 182 q 597 197 574 194 q 628 200 621 200 m 251 761 l 236 788 q 275 815 236 788 q 376 888 314 842 q 503 986 438 933 q 515 965 507 982 q 531 927 524 947 q 538 893 538 907 q 531 876 538 881 q 429 824 485 847 q 325 784 374 800 q 251 761 276 768 z "},"č":{"ha":690,"x_min":49,"x_max":628,"o":"m 628 200 l 619 53 q 514 5 574 21 q 386 -11 454 -11 q 214 28 290 -11 q 93 146 138 67 q 49 343 49 225 q 97 534 49 457 q 225 651 144 611 q 403 690 306 690 q 622 629 528 690 l 593 476 q 573 477 588 476 q 546 483 558 478 q 533 499 533 488 l 533 599 q 469 613 508 607 q 396 618 429 618 q 322 612 360 618 q 256 597 285 606 q 184 497 213 565 q 156 342 156 428 q 188 182 156 246 q 274 87 219 118 q 396 56 329 56 q 477 63 440 56 q 544 88 514 69 l 568 182 q 597 197 574 194 q 628 200 621 200 m 379 851 l 522 993 l 557 969 q 403 749 457 839 l 340 749 q 290 849 321 793 q 217 969 258 904 l 254 993 l 379 851 z "},"ç":{"ha":690,"x_min":49,"x_max":628,"o":"m 628 200 l 619 53 q 514 5 574 21 q 386 -11 454 -11 q 214 28 290 -11 q 93 146 138 67 q 49 343 49 225 q 97 534 49 457 q 225 651 144 611 q 403 690 306 690 q 622 629 528 690 l 593 476 q 573 477 588 476 q 546 483 558 478 q 533 499 533 488 l 533 599 q 469 613 508 607 q 396 618 429 618 q 322 612 360 618 q 256 597 285 606 q 184 497 213 565 q 156 342 156 428 q 188 182 156 246 q 274 87 219 118 q 396 56 329 56 q 477 63 440 56 q 544 88 514 69 l 568 182 q 597 197 574 194 q 628 200 621 200 m 283 -115 l 331 0 l 375 0 l 351 -78 q 447 -121 417 -86 q 476 -196 476 -156 q 438 -283 476 -243 q 333 -324 399 -324 q 263 -310 293 -324 q 214 -281 233 -297 l 240 -239 q 317 -265 274 -265 q 370 -244 351 -265 q 389 -197 389 -224 q 364 -142 389 -168 q 283 -115 339 -117 z "},"ĉ":{"ha":690,"x_min":49,"x_max":628,"o":"m 628 200 l 619 53 q 514 5 574 21 q 386 -11 454 -11 q 214 28 290 -11 q 93 146 138 67 q 49 343 49 225 q 97 534 49 457 q 225 651 144 611 q 403 690 306 690 q 622 629 528 690 l 593 476 q 573 477 588 476 q 546 483 558 478 q 533 499 533 488 l 533 599 q 469 613 508 607 q 396 618 429 618 q 322 612 360 618 q 256 597 285 606 q 184 497 213 565 q 156 342 156 428 q 188 182 156 246 q 274 87 219 118 q 396 56 329 56 q 477 63 440 56 q 544 88 514 69 l 568 182 q 597 197 574 194 q 628 200 621 200 m 388 890 l 253 749 l 217 772 q 297 893 263 838 q 356 993 332 949 l 418 993 q 476 893 442 949 q 557 772 511 838 l 521 749 l 388 890 z "},"ċ":{"ha":690,"x_min":49,"x_max":628,"o":"m 628 200 l 619 53 q 514 5 574 21 q 386 -11 454 -11 q 214 28 290 -11 q 93 146 138 67 q 49 343 49 225 q 97 534 49 457 q 225 651 144 611 q 403 690 306 690 q 622 629 528 690 l 593 476 q 573 477 588 476 q 546 483 558 478 q 533 499 533 488 l 533 599 q 469 613 508 607 q 396 618 429 618 q 322 612 360 618 q 256 597 285 606 q 184 497 213 565 q 156 342 156 428 q 188 182 156 246 q 274 87 219 118 q 396 56 329 56 q 477 63 440 56 q 544 88 514 69 l 568 182 q 597 197 574 194 q 628 200 621 200 m 404 961 q 441 938 431 961 q 451 883 451 914 q 447 831 451 856 q 442 806 442 806 q 417 799 442 806 q 371 793 392 793 q 332 817 342 793 q 322 869 322 842 q 328 926 322 900 q 333 951 333 951 q 359 956 333 951 q 404 961 385 961 z "},"d":{"ha":808,"x_min":76,"x_max":767,"o":"m 165 617 l 76 636 q 80 662 76 644 q 101 679 83 679 q 124 678 101 679 q 217 675 146 678 q 305 683 260 678 q 393 690 350 688 q 531 673 464 690 q 651 617 597 656 q 735 513 704 578 q 767 351 767 447 q 721 150 767 229 q 594 33 675 71 q 408 -6 513 -6 l 218 8 l 101 0 q 80 17 83 0 q 76 43 76 35 l 165 63 l 165 617 m 272 349 l 258 69 q 339 59 297 63 q 419 56 381 56 q 590 125 522 56 q 658 342 658 194 q 624 510 658 449 q 531 599 590 572 q 396 625 472 625 q 329 622 365 625 q 258 611 293 618 l 272 349 z "},"ð":{"ha":808,"x_min":76,"x_max":767,"o":"m 82 307 l 82 379 l 165 379 l 165 617 l 76 636 q 80 662 76 644 q 101 679 83 679 q 124 678 101 679 q 217 675 146 678 q 305 683 260 678 q 393 690 350 688 q 531 673 464 690 q 651 617 597 656 q 735 513 704 578 q 767 351 767 447 q 721 150 767 229 q 594 33 675 71 q 408 -6 513 -6 l 218 8 l 101 0 q 80 17 83 0 q 76 43 76 35 l 165 63 l 165 311 l 82 307 m 258 69 q 339 59 297 63 q 419 56 381 56 q 590 125 522 56 q 658 342 658 194 q 624 510 658 449 q 531 599 590 572 q 396 625 472 625 q 329 622 365 625 q 258 611 293 618 l 271 379 l 501 379 l 501 325 l 271 315 l 258 69 z "},"ď":{"ha":808,"x_min":76,"x_max":767,"o":"m 165 617 l 76 636 q 80 662 76 644 q 101 679 83 679 q 124 678 101 679 q 217 675 146 678 q 305 683 260 678 q 393 690 350 688 q 531 673 464 690 q 651 617 597 656 q 735 513 704 578 q 767 351 767 447 q 721 150 767 229 q 594 33 675 71 q 408 -6 513 -6 l 218 8 l 101 0 q 80 17 83 0 q 76 43 76 35 l 165 63 l 165 617 m 272 349 l 258 69 q 339 59 297 63 q 419 56 381 56 q 590 125 522 56 q 658 342 658 194 q 624 510 658 449 q 531 599 590 572 q 396 625 472 625 q 329 622 365 625 q 258 611 293 618 l 272 349 m 406 851 l 549 993 l 583 969 q 429 749 483 839 l 367 749 q 316 849 347 793 q 243 969 285 904 l 281 993 l 406 851 z "},"đ":{"ha":808,"x_min":38,"x_max":767,"o":"m 165 617 l 76 636 q 80 662 76 644 q 101 679 83 679 q 124 678 101 679 q 217 675 146 678 q 305 683 260 678 q 393 690 350 688 q 531 673 464 690 q 651 617 597 656 q 735 513 704 578 q 767 351 767 447 q 721 150 767 229 q 594 33 675 71 q 408 -6 513 -6 l 218 8 l 101 0 q 80 17 83 0 q 76 43 76 35 l 165 63 l 165 326 l 38 326 l 38 372 l 165 372 l 165 617 m 483 372 l 483 326 l 271 326 l 258 69 q 339 59 297 63 q 419 56 381 56 q 590 125 522 56 q 658 342 658 194 q 624 510 658 449 q 531 599 590 572 q 396 625 472 625 q 329 622 365 625 q 258 611 293 618 l 271 372 l 483 372 z "},"e":{"ha":669,"x_min":76,"x_max":607,"o":"m 560 0 l 217 8 l 101 0 q 80 17 83 0 q 76 43 76 35 l 165 63 l 165 617 l 76 636 q 80 662 76 644 q 101 679 83 679 q 124 678 101 679 q 217 675 146 678 l 553 679 q 583 677 572 679 q 594 660 594 675 l 569 513 q 550 513 564 513 q 524 519 536 514 q 513 533 513 524 l 513 614 l 258 611 l 271 381 l 528 381 l 528 324 l 269 308 l 258 68 l 525 68 l 549 147 q 565 167 553 163 q 607 171 578 171 l 599 17 q 588 3 597 6 q 560 0 579 0 z "},"é":{"ha":669,"x_min":76,"x_max":607,"o":"m 560 0 l 217 8 l 101 0 q 80 17 83 0 q 76 43 76 35 l 165 63 l 165 617 l 76 636 q 80 662 76 644 q 101 679 83 679 q 124 678 101 679 q 217 675 146 678 l 553 679 q 583 677 572 679 q 594 660 594 675 l 569 513 q 550 513 564 513 q 524 519 536 514 q 513 533 513 524 l 513 614 l 258 611 l 271 381 l 528 381 l 528 324 l 269 308 l 258 68 l 525 68 l 549 147 q 565 167 553 163 q 607 171 578 171 l 599 17 q 588 3 597 6 q 560 0 579 0 m 226 761 l 211 788 q 250 815 211 788 q 351 888 289 842 q 478 986 413 933 q 490 965 482 982 q 506 927 499 947 q 513 893 513 907 q 506 876 513 881 q 404 824 460 847 q 300 784 349 800 q 226 761 251 768 z "},"ĕ":{"ha":669,"x_min":76,"x_max":607,"o":"m 560 0 l 217 8 l 101 0 q 80 17 83 0 q 76 43 76 35 l 165 63 l 165 617 l 76 636 q 80 662 76 644 q 101 679 83 679 q 124 678 101 679 q 217 675 146 678 l 553 679 q 583 677 572 679 q 594 660 594 675 l 569 513 q 550 513 564 513 q 524 519 536 514 q 513 533 513 524 l 513 614 l 258 611 l 271 381 l 528 381 l 528 324 l 269 308 l 258 68 l 525 68 l 549 147 q 565 167 553 163 q 607 171 578 171 l 599 17 q 588 3 597 6 q 560 0 579 0 m 363 843 q 433 878 403 843 q 486 971 464 913 l 533 960 q 463 804 500 858 q 363 750 425 750 q 263 804 300 750 q 192 960 225 858 l 239 971 q 293 878 263 913 q 363 843 324 843 z "},"ě":{"ha":669,"x_min":76,"x_max":607,"o":"m 560 0 l 217 8 l 101 0 q 80 17 83 0 q 76 43 76 35 l 165 63 l 165 617 l 76 636 q 80 662 76 644 q 101 679 83 679 q 124 678 101 679 q 217 675 146 678 l 553 679 q 583 677 572 679 q 594 660 594 675 l 569 513 q 550 513 564 513 q 524 519 536 514 q 513 533 513 524 l 513 614 l 258 611 l 271 381 l 528 381 l 528 324 l 269 308 l 258 68 l 525 68 l 549 147 q 565 167 553 163 q 607 171 578 171 l 599 17 q 588 3 597 6 q 560 0 579 0 m 354 851 l 497 993 l 532 969 q 378 749 432 839 l 315 749 q 265 849 296 793 q 192 969 233 904 l 229 993 l 354 851 z "},"ê":{"ha":669,"x_min":76,"x_max":607,"o":"m 560 0 l 217 8 l 101 0 q 80 17 83 0 q 76 43 76 35 l 165 63 l 165 617 l 76 636 q 80 662 76 644 q 101 679 83 679 q 124 678 101 679 q 217 675 146 678 l 553 679 q 583 677 572 679 q 594 660 594 675 l 569 513 q 550 513 564 513 q 524 519 536 514 q 513 533 513 524 l 513 614 l 258 611 l 271 381 l 528 381 l 528 324 l 269 308 l 258 68 l 525 68 l 549 147 q 565 167 553 163 q 607 171 578 171 l 599 17 q 588 3 597 6 q 560 0 579 0 m 363 890 l 228 749 l 192 772 q 272 893 238 838 q 331 993 307 949 l 393 993 q 451 893 417 949 q 532 772 486 838 l 496 749 l 363 890 z "},"ë":{"ha":669,"x_min":76,"x_max":607,"o":"m 560 0 l 217 8 l 101 0 q 80 17 83 0 q 76 43 76 35 l 165 63 l 165 617 l 76 636 q 80 662 76 644 q 101 679 83 679 q 124 678 101 679 q 217 675 146 678 l 553 679 q 583 677 572 679 q 594 660 594 675 l 569 513 q 550 513 564 513 q 524 519 536 514 q 513 533 513 524 l 513 614 l 258 611 l 271 381 l 528 381 l 528 324 l 269 308 l 258 68 l 525 68 l 549 147 q 565 167 553 163 q 607 171 578 171 l 599 17 q 588 3 597 6 q 560 0 579 0 m 449 797 q 413 820 422 797 q 404 869 404 843 q 408 921 404 897 q 414 947 413 944 q 440 952 414 947 q 482 957 465 957 q 515 934 506 957 q 525 883 525 911 q 522 835 525 857 q 517 810 518 813 q 492 803 517 810 q 449 797 467 797 m 243 797 q 208 820 217 797 q 199 869 199 843 q 203 921 199 897 q 208 947 207 944 q 234 952 208 947 q 276 957 260 957 q 310 934 300 957 q 319 883 319 911 q 316 835 319 857 q 311 810 313 813 q 286 803 311 810 q 243 797 261 797 z "},"ė":{"ha":669,"x_min":76,"x_max":607,"o":"m 560 0 l 217 8 l 101 0 q 80 17 83 0 q 76 43 76 35 l 165 63 l 165 617 l 76 636 q 80 662 76 644 q 101 679 83 679 q 124 678 101 679 q 217 675 146 678 l 553 679 q 583 677 572 679 q 594 660 594 675 l 569 513 q 550 513 564 513 q 524 519 536 514 q 513 533 513 524 l 513 614 l 258 611 l 271 381 l 528 381 l 528 324 l 269 308 l 258 68 l 525 68 l 549 147 q 565 167 553 163 q 607 171 578 171 l 599 17 q 588 3 597 6 q 560 0 579 0 m 379 961 q 416 938 406 961 q 426 883 426 914 q 422 831 426 856 q 417 806 417 806 q 392 799 417 806 q 346 793 367 793 q 307 817 317 793 q 297 869 297 842 q 303 926 297 900 q 308 951 308 951 q 334 956 308 951 q 379 961 360 961 z "},"è":{"ha":669,"x_min":76,"x_max":607,"o":"m 560 0 l 217 8 l 101 0 q 80 17 83 0 q 76 43 76 35 l 165 63 l 165 617 l 76 636 q 80 662 76 644 q 101 679 83 679 q 124 678 101 679 q 217 675 146 678 l 553 679 q 583 677 572 679 q 594 660 594 675 l 569 513 q 550 513 564 513 q 524 519 536 514 q 513 533 513 524 l 513 614 l 258 611 l 271 381 l 528 381 l 528 324 l 269 308 l 258 68 l 525 68 l 549 147 q 565 167 553 163 q 607 171 578 171 l 599 17 q 588 3 597 6 q 560 0 579 0 m 513 788 l 497 761 q 424 784 472 768 q 320 824 375 800 q 218 876 265 847 q 211 893 211 881 q 218 927 211 907 q 234 965 225 947 q 246 986 243 982 q 374 888 313 933 q 474 815 435 842 q 513 788 513 788 z "},"ē":{"ha":669,"x_min":76,"x_max":607,"o":"m 560 0 l 217 8 l 101 0 q 80 17 83 0 q 76 43 76 35 l 165 63 l 165 617 l 76 636 q 80 662 76 644 q 101 679 83 679 q 124 678 101 679 q 217 675 146 678 l 553 679 q 583 677 572 679 q 594 660 594 675 l 569 513 q 550 513 564 513 q 524 519 536 514 q 513 533 513 524 l 513 614 l 258 611 l 271 381 l 528 381 l 528 324 l 269 308 l 258 68 l 525 68 l 549 147 q 565 167 553 163 q 607 171 578 171 l 599 17 q 588 3 597 6 q 560 0 579 0 m 167 833 l 167 921 l 557 921 l 557 833 l 167 833 z "},"ę":{"ha":669,"x_min":76,"x_max":607,"o":"m 560 0 l 217 8 l 101 0 q 80 17 83 0 q 76 43 76 35 l 165 63 l 165 617 l 76 636 q 80 662 76 644 q 101 679 83 679 q 124 678 101 679 q 217 675 146 678 l 553 679 q 583 677 572 679 q 594 660 594 675 l 569 513 q 550 513 564 513 q 524 519 536 514 q 513 533 513 524 l 513 614 l 258 611 l 271 381 l 528 381 l 528 324 l 269 308 l 258 68 l 525 68 l 549 147 q 565 167 553 163 q 607 171 578 171 l 599 17 q 588 3 597 6 q 560 0 579 0 m 461 6 l 571 6 q 467 -42 507 -11 q 408 -110 426 -74 q 389 -181 389 -147 q 413 -239 389 -221 q 468 -257 438 -257 q 544 -233 510 -257 q 568 -275 563 -250 q 519 -305 550 -292 q 449 -318 489 -318 q 342 -280 379 -318 q 306 -190 306 -242 q 343 -84 306 -139 q 461 6 381 -29 z "},"f":{"ha":613,"x_min":76,"x_max":564,"o":"m 518 310 l 269 294 l 260 63 l 378 43 q 375 17 378 35 q 354 0 372 0 l 217 8 l 101 0 q 80 17 83 0 q 76 43 76 35 l 165 63 l 165 617 l 76 636 q 80 662 76 644 q 101 679 83 679 q 124 678 101 679 q 217 675 146 678 l 522 679 q 553 677 542 679 q 564 660 564 675 l 539 513 q 519 513 533 513 q 494 519 506 514 q 482 533 482 524 l 482 614 l 258 611 l 271 367 l 518 367 l 518 310 z "},"g":{"ha":721,"x_min":49,"x_max":651,"o":"m 640 114 l 651 74 q 519 9 586 29 q 385 -11 451 -11 q 213 28 289 -11 q 92 146 136 67 q 49 344 49 225 q 97 535 49 458 q 224 651 144 611 q 401 690 304 690 q 632 629 531 690 l 603 476 q 583 477 597 476 q 557 483 569 478 q 544 499 544 488 l 544 599 q 474 613 517 607 q 396 618 432 618 q 322 612 360 618 q 256 597 285 606 q 184 497 211 565 q 157 342 157 428 q 226 126 157 197 q 396 56 294 56 q 484 67 438 56 q 561 103 531 79 l 546 290 l 357 300 l 357 357 l 640 357 l 640 114 z "},"ğ":{"ha":721,"x_min":49,"x_max":651,"o":"m 640 114 l 651 74 q 519 9 586 29 q 385 -11 451 -11 q 213 28 289 -11 q 92 146 136 67 q 49 344 49 225 q 97 535 49 458 q 224 651 144 611 q 401 690 304 690 q 632 629 531 690 l 603 476 q 583 477 597 476 q 557 483 569 478 q 544 499 544 488 l 544 599 q 474 613 517 607 q 396 618 432 618 q 322 612 360 618 q 256 597 285 606 q 184 497 211 565 q 157 342 157 428 q 226 126 157 197 q 396 56 294 56 q 484 67 438 56 q 561 103 531 79 l 546 290 l 357 300 l 357 357 l 640 357 l 640 114 m 401 843 q 472 878 442 843 q 525 971 503 913 l 572 960 q 501 804 539 858 q 401 750 464 750 q 301 804 339 750 q 231 960 264 858 l 278 971 q 332 878 301 913 q 401 843 363 843 z "},"ĝ":{"ha":721,"x_min":49,"x_max":651,"o":"m 640 114 l 651 74 q 519 9 586 29 q 385 -11 451 -11 q 213 28 289 -11 q 92 146 136 67 q 49 344 49 225 q 97 535 49 458 q 224 651 144 611 q 401 690 304 690 q 632 629 531 690 l 603 476 q 583 477 597 476 q 557 483 569 478 q 544 499 544 488 l 544 599 q 474 613 517 607 q 396 618 432 618 q 322 612 360 618 q 256 597 285 606 q 184 497 211 565 q 157 342 157 428 q 226 126 157 197 q 396 56 294 56 q 484 67 438 56 q 561 103 531 79 l 546 290 l 357 300 l 357 357 l 640 357 l 640 114 m 401 890 l 267 749 l 231 772 q 311 893 276 838 q 369 993 346 949 l 432 993 q 490 893 456 949 q 571 772 525 838 l 535 749 l 401 890 z "},"ģ":{"ha":721,"x_min":49,"x_max":651,"o":"m 640 114 l 651 74 q 519 9 586 29 q 385 -11 451 -11 q 213 28 289 -11 q 92 146 136 67 q 49 344 49 225 q 97 535 49 458 q 224 651 144 611 q 401 690 304 690 q 632 629 531 690 l 603 476 q 583 477 597 476 q 557 483 569 478 q 544 499 544 488 l 544 599 q 474 613 517 607 q 396 618 432 618 q 322 612 360 618 q 256 597 285 606 q 184 497 211 565 q 157 342 157 428 q 226 126 157 197 q 396 56 294 56 q 484 67 438 56 q 561 103 531 79 l 546 290 l 357 300 l 357 357 l 640 357 l 640 114 m 315 -428 l 299 -386 q 364 -334 340 -367 q 388 -260 388 -301 l 388 -253 q 376 -254 381 -254 q 365 -254 372 -254 q 314 -171 314 -254 q 317 -128 314 -151 q 325 -81 319 -106 q 367 -74 344 -76 q 407 -71 389 -71 q 453 -113 435 -71 q 471 -222 471 -156 q 427 -348 471 -292 q 315 -428 383 -404 z "},"ġ":{"ha":721,"x_min":49,"x_max":651,"o":"m 640 114 l 651 74 q 519 9 586 29 q 385 -11 451 -11 q 213 28 289 -11 q 92 146 136 67 q 49 344 49 225 q 97 535 49 458 q 224 651 144 611 q 401 690 304 690 q 632 629 531 690 l 603 476 q 583 477 597 476 q 557 483 569 478 q 544 499 544 488 l 544 599 q 474 613 517 607 q 396 618 432 618 q 322 612 360 618 q 256 597 285 606 q 184 497 211 565 q 157 342 157 428 q 226 126 157 197 q 396 56 294 56 q 484 67 438 56 q 561 103 531 79 l 546 290 l 357 300 l 357 357 l 640 357 l 640 114 m 418 961 q 455 938 444 961 q 465 883 465 914 q 460 831 465 856 q 456 806 456 806 q 431 799 456 806 q 385 793 406 793 q 346 817 356 793 q 336 869 336 842 q 342 926 336 900 q 347 951 347 951 q 373 956 347 951 q 418 961 399 961 z "},"h":{"ha":879,"x_min":76,"x_max":803,"o":"m 619 617 l 526 636 q 530 662 526 644 q 551 679 533 679 q 574 678 551 679 q 667 675 596 678 q 756 678 732 678 q 779 679 779 679 q 800 662 797 679 q 803 638 803 644 l 714 617 l 714 63 l 803 43 q 800 17 803 35 q 779 0 797 0 l 667 8 l 551 0 q 530 17 533 0 q 526 43 526 35 l 619 63 l 608 322 l 269 308 l 260 63 l 353 43 q 350 17 353 35 q 329 0 347 0 l 217 8 l 101 0 q 80 17 83 0 q 76 43 76 35 l 165 63 l 165 617 l 76 636 q 80 662 76 644 q 101 679 83 679 q 124 678 101 679 q 217 675 146 678 q 306 678 282 678 q 329 679 329 679 q 350 662 347 679 q 353 638 353 644 l 260 617 l 271 381 l 608 381 l 619 617 z "},"ħ":{"ha":879,"x_min":71,"x_max":806,"o":"m 619 617 l 526 636 q 530 662 526 644 q 551 679 533 679 q 574 678 551 679 q 667 675 596 678 q 756 678 732 678 q 779 679 779 679 q 800 662 797 679 q 803 638 803 644 l 714 617 l 714 522 l 806 522 l 806 476 l 714 476 l 714 63 l 803 43 q 800 17 803 35 q 779 0 797 0 l 667 8 l 551 0 q 530 17 533 0 q 526 43 526 35 l 619 63 l 608 322 l 269 308 l 260 63 l 353 43 q 350 17 353 35 q 329 0 347 0 l 217 8 l 101 0 q 80 17 83 0 q 76 43 76 35 l 165 63 l 165 476 l 71 476 l 71 522 l 165 522 l 165 617 l 76 636 q 80 662 76 644 q 101 679 83 679 q 124 678 101 679 q 217 675 146 678 q 306 678 282 678 q 329 679 329 679 q 350 662 347 679 q 353 638 353 644 l 260 617 l 264 522 l 615 522 l 619 617 m 271 381 l 608 381 l 613 476 l 267 476 l 271 381 z "},"ĥ":{"ha":879,"x_min":76,"x_max":803,"o":"m 619 617 l 526 636 q 530 662 526 644 q 551 679 533 679 q 574 678 551 679 q 667 675 596 678 q 756 678 732 678 q 779 679 779 679 q 800 662 797 679 q 803 638 803 644 l 714 617 l 714 63 l 803 43 q 800 17 803 35 q 779 0 797 0 l 667 8 l 551 0 q 530 17 533 0 q 526 43 526 35 l 619 63 l 608 322 l 269 308 l 260 63 l 353 43 q 350 17 353 35 q 329 0 347 0 l 217 8 l 101 0 q 80 17 83 0 q 76 43 76 35 l 165 63 l 165 617 l 76 636 q 80 662 76 644 q 101 679 83 679 q 124 678 101 679 q 217 675 146 678 q 306 678 282 678 q 329 679 329 679 q 350 662 347 679 q 353 638 353 644 l 260 617 l 271 381 l 608 381 l 619 617 m 440 890 l 306 749 l 269 772 q 350 893 315 838 q 408 993 385 949 l 471 993 q 529 893 494 949 q 610 772 564 838 l 574 749 l 440 890 z "},"i":{"ha":429,"x_min":76,"x_max":353,"o":"m 165 617 l 76 636 q 80 662 76 644 q 101 679 83 679 q 124 678 101 679 q 217 675 146 678 q 306 678 282 678 q 329 679 329 679 q 350 662 347 679 q 353 638 353 644 l 264 617 l 264 63 l 353 43 q 350 17 353 35 q 329 0 347 0 l 217 8 l 101 0 q 80 17 83 0 q 76 43 76 35 l 165 63 l 165 617 z "},"ı":{"ha":429,"x_min":76,"x_max":353,"o":"m 165 617 l 76 636 q 80 662 76 644 q 101 679 83 679 q 124 678 101 679 q 217 675 146 678 q 306 678 282 678 q 329 679 329 679 q 350 662 347 679 q 353 638 353 644 l 264 617 l 264 63 l 353 43 q 350 17 353 35 q 329 0 347 0 l 217 8 l 101 0 q 80 17 83 0 q 76 43 76 35 l 165 63 l 165 617 z "},"í":{"ha":429,"x_min":64,"x_max":365,"o":"m 165 617 l 76 636 q 80 662 76 644 q 101 679 83 679 q 124 678 101 679 q 217 675 146 678 q 306 678 282 678 q 329 679 329 679 q 350 662 347 679 q 353 638 353 644 l 264 617 l 264 63 l 353 43 q 350 17 353 35 q 329 0 347 0 l 217 8 l 101 0 q 80 17 83 0 q 76 43 76 35 l 165 63 l 165 617 m 79 761 l 64 788 q 103 815 64 788 q 203 888 142 842 q 331 986 265 933 q 343 965 335 982 q 358 927 351 947 q 365 893 365 907 q 358 876 365 881 q 257 824 313 847 q 153 784 201 800 q 79 761 104 768 z "},"ĭ":{"ha":429,"x_min":44,"x_max":386,"o":"m 165 617 l 76 636 q 80 662 76 644 q 101 679 83 679 q 124 678 101 679 q 217 675 146 678 q 306 678 282 678 q 329 679 329 679 q 350 662 347 679 q 353 638 353 644 l 264 617 l 264 63 l 353 43 q 350 17 353 35 q 329 0 347 0 l 217 8 l 101 0 q 80 17 83 0 q 76 43 76 35 l 165 63 l 165 617 m 215 843 q 286 878 256 843 q 339 971 317 913 l 386 960 q 315 804 353 858 q 215 750 278 750 q 115 804 153 750 q 44 960 78 858 l 92 971 q 146 878 115 913 q 215 843 176 843 z "},"î":{"ha":429,"x_min":44,"x_max":385,"o":"m 165 617 l 76 636 q 80 662 76 644 q 101 679 83 679 q 124 678 101 679 q 217 675 146 678 q 306 678 282 678 q 329 679 329 679 q 350 662 347 679 q 353 638 353 644 l 264 617 l 264 63 l 353 43 q 350 17 353 35 q 329 0 347 0 l 217 8 l 101 0 q 80 17 83 0 q 76 43 76 35 l 165 63 l 165 617 m 215 890 l 81 749 l 44 772 q 125 893 90 838 q 183 993 160 949 l 246 993 q 304 893 269 949 q 385 772 339 838 l 349 749 l 215 890 z "},"ï":{"ha":429,"x_min":51,"x_max":378,"o":"m 165 617 l 76 636 q 80 662 76 644 q 101 679 83 679 q 124 678 101 679 q 217 675 146 678 q 306 678 282 678 q 329 679 329 679 q 350 662 347 679 q 353 638 353 644 l 264 617 l 264 63 l 353 43 q 350 17 353 35 q 329 0 347 0 l 217 8 l 101 0 q 80 17 83 0 q 76 43 76 35 l 165 63 l 165 617 m 301 797 q 266 820 275 797 q 257 869 257 843 q 261 921 257 897 q 267 947 265 944 q 292 952 267 947 q 335 957 318 957 q 368 934 358 957 q 378 883 378 911 q 374 835 378 857 q 369 810 371 813 q 344 803 369 810 q 301 797 319 797 m 96 797 q 60 820 69 797 q 51 869 51 843 q 56 921 51 897 q 61 947 60 944 q 87 952 61 947 q 129 957 113 957 q 163 934 153 957 q 172 883 172 911 q 169 835 172 857 q 164 810 165 813 q 139 803 164 810 q 96 797 114 797 z "},"ì":{"ha":429,"x_min":64,"x_max":365,"o":"m 165 617 l 76 636 q 80 662 76 644 q 101 679 83 679 q 124 678 101 679 q 217 675 146 678 q 306 678 282 678 q 329 679 329 679 q 350 662 347 679 q 353 638 353 644 l 264 617 l 264 63 l 353 43 q 350 17 353 35 q 329 0 347 0 l 217 8 l 101 0 q 80 17 83 0 q 76 43 76 35 l 165 63 l 165 617 m 365 788 l 350 761 q 276 784 325 768 q 173 824 228 800 q 71 876 118 847 q 64 893 64 881 q 71 927 64 907 q 87 965 78 947 q 99 986 96 982 q 226 888 165 933 q 326 815 288 842 q 365 788 365 788 z "},"ĳ":{"ha":817,"x_min":76,"x_max":768,"o":"m 165 617 l 76 636 q 80 662 76 644 q 101 679 83 679 q 124 678 101 679 q 217 675 146 678 q 306 678 282 678 q 329 679 329 679 q 350 662 347 679 q 353 638 353 644 l 264 617 l 264 63 l 353 43 q 350 17 353 35 q 329 0 347 0 l 217 8 l 101 0 q 80 17 83 0 q 76 43 76 35 l 165 63 l 165 617 m 581 158 l 581 615 q 525 626 558 621 q 471 636 492 631 q 474 661 471 643 q 496 679 478 679 q 526 678 496 679 q 626 675 556 678 q 717 678 692 678 q 743 679 743 679 q 765 660 763 679 q 768 635 768 642 l 679 615 l 679 185 q 626 -10 679 85 q 482 -196 572 -104 l 439 -167 q 541 -8 501 -89 q 581 158 581 74 z "},"ī":{"ha":429,"x_min":19,"x_max":410,"o":"m 165 617 l 76 636 q 80 662 76 644 q 101 679 83 679 q 124 678 101 679 q 217 675 146 678 q 306 678 282 678 q 329 679 329 679 q 350 662 347 679 q 353 638 353 644 l 264 617 l 264 63 l 353 43 q 350 17 353 35 q 329 0 347 0 l 217 8 l 101 0 q 80 17 83 0 q 76 43 76 35 l 165 63 l 165 617 m 19 833 l 19 921 l 410 921 l 410 833 l 19 833 z "},"į":{"ha":429,"x_min":60,"x_max":353,"o":"m 165 617 l 76 636 q 80 662 76 644 q 101 679 83 679 q 124 678 101 679 q 217 675 146 678 q 306 678 282 678 q 329 679 329 679 q 350 662 347 679 q 353 638 353 644 l 264 617 l 264 63 l 353 43 q 350 17 353 35 q 329 0 347 0 l 217 8 l 101 0 q 80 17 83 0 q 76 43 76 35 l 165 63 l 165 617 m 215 10 l 325 10 q 221 -38 261 -7 q 162 -106 181 -69 q 143 -176 143 -143 q 167 -235 143 -217 q 222 -253 192 -253 q 299 -229 264 -253 q 322 -271 317 -246 q 274 -301 304 -287 q 203 -314 243 -314 q 97 -276 133 -314 q 60 -186 60 -237 q 97 -80 60 -135 q 215 10 135 -25 z "},"ĩ":{"ha":429,"x_min":-4,"x_max":435,"o":"m 165 617 l 76 636 q 80 662 76 644 q 101 679 83 679 q 124 678 101 679 q 217 675 146 678 q 306 678 282 678 q 329 679 329 679 q 350 662 347 679 q 353 638 353 644 l 264 617 l 264 63 l 353 43 q 350 17 353 35 q 329 0 347 0 l 217 8 l 101 0 q 80 17 83 0 q 76 43 76 35 l 165 63 l 165 617 m 411 946 l 435 919 q 365 837 400 858 q 294 815 329 815 q 231 825 261 815 q 169 844 200 835 q 106 853 139 853 q 62 842 83 853 q 19 811 40 831 l -4 838 q 67 920 32 899 q 136 942 101 942 q 200 933 169 942 q 262 914 231 924 q 325 904 293 904 q 369 915 349 904 q 411 946 390 926 z "},"j":{"ha":388,"x_min":10,"x_max":339,"o":"m 151 158 l 151 615 q 96 626 129 621 q 42 636 63 631 q 45 661 42 643 q 67 679 49 679 q 97 678 67 679 q 197 675 126 678 q 288 678 263 678 q 314 679 314 679 q 336 660 333 679 q 339 635 339 642 l 250 615 l 250 185 q 197 -10 250 85 q 53 -196 143 -104 l 10 -167 q 112 -8 72 -89 q 151 158 151 74 z "},"ȷ":{"ha":388,"x_min":10,"x_max":339,"o":"m 151 158 l 151 615 q 96 626 129 621 q 42 636 63 631 q 45 661 42 643 q 67 679 49 679 q 97 678 67 679 q 197 675 126 678 q 288 678 263 678 q 314 679 314 679 q 336 660 333 679 q 339 635 339 642 l 250 615 l 250 185 q 197 -10 250 85 q 53 -196 143 -104 l 10 -167 q 112 -8 72 -89 q 151 158 151 74 z "},"ĵ":{"ha":388,"x_min":10,"x_max":364,"o":"m 151 158 l 151 615 q 96 626 129 621 q 42 636 63 631 q 45 661 42 643 q 67 679 49 679 q 97 678 67 679 q 197 675 126 678 q 288 678 263 678 q 314 679 314 679 q 336 660 333 679 q 339 635 339 642 l 250 615 l 250 185 q 197 -10 250 85 q 53 -196 143 -104 l 10 -167 q 112 -8 72 -89 q 151 158 151 74 m 194 890 l 60 749 l 24 772 q 104 893 69 838 q 163 993 139 949 l 225 993 q 283 893 249 949 q 364 772 318 838 l 328 749 l 194 890 z "},"k":{"ha":707,"x_min":67,"x_max":654,"o":"m 156 617 l 67 636 q 70 662 67 644 q 92 679 74 679 q 114 678 92 679 q 207 675 136 678 q 289 678 272 678 q 306 679 306 679 q 326 662 324 679 q 329 638 329 644 l 250 617 l 261 368 l 360 368 l 497 618 l 439 636 q 442 661 439 643 q 463 679 444 679 l 532 675 l 628 679 q 647 663 643 681 q 651 638 651 644 l 581 615 l 425 351 l 654 -8 l 585 -29 l 340 317 l 260 307 l 250 63 l 356 43 q 353 17 356 35 q 332 0 350 0 l 207 8 l 92 0 q 70 17 74 0 q 67 43 67 35 l 156 63 l 156 617 z "},"ķ":{"ha":707,"x_min":67,"x_max":654,"o":"m 156 617 l 67 636 q 70 662 67 644 q 92 679 74 679 q 114 678 92 679 q 207 675 136 678 q 289 678 272 678 q 306 679 306 679 q 326 662 324 679 q 329 638 329 644 l 250 617 l 261 368 l 360 368 l 497 618 l 439 636 q 442 661 439 643 q 463 679 444 679 l 532 675 l 628 679 q 647 663 643 681 q 651 638 651 644 l 581 615 l 425 351 l 654 -8 l 585 -29 l 340 317 l 260 307 l 250 63 l 356 43 q 353 17 356 35 q 332 0 350 0 l 207 8 l 92 0 q 70 17 74 0 q 67 43 67 35 l 156 63 l 156 617 m 299 -426 l 282 -385 q 347 -333 324 -365 q 371 -258 371 -300 l 371 -251 q 360 -253 364 -253 q 349 -253 356 -253 q 297 -169 297 -253 q 300 -127 297 -150 q 308 -79 303 -104 q 350 -72 328 -75 q 390 -69 372 -69 q 436 -112 418 -69 q 454 -221 454 -154 q 410 -347 454 -290 q 299 -426 367 -403 z "},"ĸ":{"ha":707,"x_min":67,"x_max":654,"o":"m 156 617 l 67 636 q 70 662 67 644 q 92 679 74 679 q 114 678 92 679 q 207 675 136 678 q 289 678 272 678 q 306 679 306 679 q 326 662 324 679 q 329 638 329 644 l 250 617 l 261 368 l 360 368 l 497 618 l 439 636 q 442 661 439 643 q 463 679 444 679 l 532 675 l 628 679 q 647 663 643 681 q 651 638 651 644 l 581 615 l 425 351 l 654 -8 l 585 -29 l 340 317 l 260 307 l 250 63 l 356 43 q 353 17 356 35 q 332 0 350 0 l 207 8 l 92 0 q 70 17 74 0 q 67 43 67 35 l 156 63 l 156 617 z "},"l":{"ha":597,"x_min":76,"x_max":569,"o":"m 522 0 l 217 8 l 101 0 q 80 17 83 0 q 76 43 76 35 l 165 63 l 165 617 l 76 636 q 81 662 76 644 q 101 679 86 679 l 217 675 l 329 679 q 349 665 344 679 q 353 638 353 651 l 264 617 l 264 68 l 488 68 l 511 147 q 528 167 515 163 q 569 171 540 171 l 561 17 q 551 2 560 6 q 522 0 542 -1 z "},"ĺ":{"ha":597,"x_min":68,"x_max":569,"o":"m 522 0 l 217 8 l 101 0 q 80 17 83 0 q 76 43 76 35 l 165 63 l 165 617 l 76 636 q 81 662 76 644 q 101 679 86 679 l 217 675 l 329 679 q 349 665 344 679 q 353 638 353 651 l 264 617 l 264 68 l 488 68 l 511 147 q 528 167 515 163 q 569 171 540 171 l 561 17 q 551 2 560 6 q 522 0 542 -1 m 83 761 l 68 788 q 107 815 68 788 q 208 888 146 842 q 335 986 269 933 q 347 965 339 982 q 363 927 356 947 q 369 893 369 907 q 363 876 369 881 q 261 824 317 847 q 157 784 206 800 q 83 761 108 768 z "},"ľ":{"ha":597,"x_min":76,"x_max":569,"o":"m 522 0 l 217 8 l 101 0 q 80 17 83 0 q 76 43 76 35 l 165 63 l 165 617 l 76 636 q 81 662 76 644 q 101 679 86 679 l 217 675 l 329 679 q 349 665 344 679 q 353 638 353 651 l 264 617 l 264 68 l 488 68 l 511 147 q 528 167 515 163 q 569 171 540 171 l 561 17 q 551 2 560 6 q 522 0 542 -1 m 413 332 l 396 374 q 461 426 438 393 q 485 500 485 458 l 485 507 q 474 506 478 506 q 463 506 469 506 q 411 589 411 506 q 414 631 411 608 q 422 679 417 654 q 464 686 442 683 q 504 689 486 689 q 550 647 532 689 q 568 538 568 604 q 524 412 568 468 q 413 332 481 356 z "},"ļ":{"ha":597,"x_min":76,"x_max":569,"o":"m 522 0 l 217 8 l 101 0 q 80 17 83 0 q 76 43 76 35 l 165 63 l 165 617 l 76 636 q 81 662 76 644 q 101 679 86 679 l 217 675 l 329 679 q 349 665 344 679 q 353 638 353 651 l 264 617 l 264 68 l 488 68 l 511 147 q 528 167 515 163 q 569 171 540 171 l 561 17 q 551 2 560 6 q 522 0 542 -1 m 283 -426 l 267 -385 q 332 -333 308 -365 q 356 -258 356 -300 l 356 -251 q 344 -253 349 -253 q 333 -253 340 -253 q 282 -169 282 -253 q 285 -127 282 -150 q 293 -79 288 -104 q 335 -72 313 -75 q 375 -69 357 -69 q 421 -112 403 -69 q 439 -221 439 -154 q 395 -347 439 -290 q 283 -426 351 -403 z "},"ŀ":{"ha":597,"x_min":76,"x_max":569,"o":"m 522 0 l 217 8 l 101 0 q 80 17 83 0 q 76 43 76 35 l 165 63 l 165 617 l 76 636 q 81 662 76 644 q 101 679 86 679 l 217 675 l 329 679 q 349 665 344 679 q 353 638 353 651 l 264 617 l 264 68 l 488 68 l 511 147 q 528 167 515 163 q 569 171 540 171 l 561 17 q 551 2 560 6 q 522 0 542 -1 m 433 486 q 472 460 461 486 q 483 400 483 435 q 478 342 483 369 q 474 314 474 314 q 446 308 474 314 q 394 301 418 301 q 353 328 364 301 q 343 386 343 354 q 349 447 343 418 q 354 476 354 476 q 383 481 354 476 q 433 486 411 486 z "},"ł":{"ha":597,"x_min":40,"x_max":569,"o":"m 74 233 l 40 299 l 165 363 l 165 617 l 76 636 q 81 662 76 644 q 101 679 86 679 l 217 675 l 329 679 q 349 665 344 679 q 353 638 353 651 l 264 617 l 264 413 l 378 471 l 403 422 l 264 343 l 264 68 l 488 68 l 511 147 q 528 167 515 163 q 569 171 540 171 l 561 17 q 551 2 560 6 q 522 0 542 -1 l 217 8 l 101 0 q 80 17 83 0 q 76 43 76 35 l 165 63 l 165 286 l 74 233 z "},"m":{"ha":1029,"x_min":69,"x_max":960,"o":"m 126 679 l 303 671 l 508 203 l 736 671 l 901 679 q 919 664 913 679 q 925 635 925 649 l 838 614 l 871 63 q 916 53 889 57 q 960 43 943 49 q 957 17 960 35 q 936 0 954 0 l 818 8 l 703 0 q 681 17 685 0 q 678 43 678 33 l 775 64 l 754 540 l 513 47 l 481 47 l 260 531 l 242 63 q 290 52 264 57 q 338 43 317 47 q 334 17 338 33 q 311 0 331 0 l 197 8 l 93 0 q 72 17 75 0 q 69 43 69 35 l 158 63 l 190 615 l 103 635 q 106 660 103 642 q 126 679 108 679 z "},"n":{"ha":876,"x_min":69,"x_max":807,"o":"m 558 679 l 689 675 l 783 679 q 804 660 801 678 q 807 636 807 643 l 728 615 l 724 0 l 661 0 l 231 535 l 242 63 q 297 52 264 57 q 351 43 331 47 q 349 17 351 33 q 326 0 346 0 l 199 8 l 94 0 q 73 17 76 0 q 69 43 69 35 l 161 64 l 157 615 l 69 635 q 73 660 69 642 q 94 679 76 679 q 105 679 94 679 q 146 678 115 679 q 240 675 176 678 l 653 153 l 644 615 l 535 635 q 538 661 535 642 q 558 679 540 681 z "},"ń":{"ha":876,"x_min":69,"x_max":807,"o":"m 558 679 l 689 675 l 783 679 q 804 660 801 678 q 807 636 807 643 l 728 615 l 724 0 l 661 0 l 231 535 l 242 63 q 297 52 264 57 q 351 43 331 47 q 349 17 351 33 q 326 0 346 0 l 199 8 l 94 0 q 73 17 76 0 q 69 43 69 35 l 161 64 l 157 615 l 69 635 q 73 660 69 642 q 94 679 76 679 q 105 679 94 679 q 146 678 115 679 q 240 675 176 678 l 653 153 l 644 615 l 535 635 q 538 661 535 642 q 558 679 540 681 m 331 761 l 315 788 q 354 815 315 788 q 455 888 393 842 q 582 986 517 933 q 594 965 586 982 q 610 927 603 947 q 617 893 617 907 q 610 876 617 881 q 508 824 564 847 q 404 784 453 800 q 331 761 356 768 z "},"ŉ":{"ha":876,"x_min":0,"x_max":807,"o":"m 558 679 l 689 675 l 783 679 q 804 660 801 678 q 807 636 807 643 l 728 615 l 724 0 l 661 0 l 231 535 l 242 63 q 297 52 264 57 q 351 43 331 47 q 349 17 351 33 q 326 0 346 0 l 199 8 l 94 0 q 73 17 76 0 q 69 43 69 35 l 161 64 l 157 615 l 69 635 q 73 660 69 642 q 94 679 76 679 q 105 679 94 679 q 146 678 115 679 q 240 675 176 678 l 653 153 l 644 615 l 535 635 q 538 661 535 642 q 558 679 540 681 m 17 711 l 0 753 q 65 805 42 772 q 89 879 89 838 l 89 886 q 78 885 82 885 q 67 885 74 885 q 15 968 15 885 q 18 1010 15 988 q 26 1058 21 1033 q 68 1065 46 1063 q 108 1068 90 1068 q 154 1026 136 1068 q 172 917 172 983 q 128 791 172 847 q 17 711 85 735 z "},"ň":{"ha":876,"x_min":69,"x_max":807,"o":"m 558 679 l 689 675 l 783 679 q 804 660 801 678 q 807 636 807 643 l 728 615 l 724 0 l 661 0 l 231 535 l 242 63 q 297 52 264 57 q 351 43 331 47 q 349 17 351 33 q 326 0 346 0 l 199 8 l 94 0 q 73 17 76 0 q 69 43 69 35 l 161 64 l 157 615 l 69 635 q 73 660 69 642 q 94 679 76 679 q 105 679 94 679 q 146 678 115 679 q 240 675 176 678 l 653 153 l 644 615 l 535 635 q 538 661 535 642 q 558 679 540 681 m 458 851 l 601 993 l 636 969 q 482 749 536 839 l 419 749 q 369 849 400 793 q 296 969 338 904 l 333 993 l 458 851 z "},"ņ":{"ha":876,"x_min":69,"x_max":807,"o":"m 558 679 l 689 675 l 783 679 q 804 660 801 678 q 807 636 807 643 l 728 615 l 724 0 l 661 0 l 231 535 l 242 63 q 297 52 264 57 q 351 43 331 47 q 349 17 351 33 q 326 0 346 0 l 199 8 l 94 0 q 73 17 76 0 q 69 43 69 35 l 161 64 l 157 615 l 69 635 q 73 660 69 642 q 94 679 76 679 q 105 679 94 679 q 146 678 115 679 q 240 675 176 678 l 653 153 l 644 615 l 535 635 q 538 661 535 642 q 558 679 540 681 m 344 -426 l 328 -385 q 393 -333 369 -365 q 417 -258 417 -300 l 417 -251 q 406 -253 410 -253 q 394 -253 401 -253 q 343 -169 343 -253 q 346 -127 343 -150 q 354 -79 349 -104 q 396 -72 374 -75 q 436 -69 418 -69 q 482 -112 464 -69 q 500 -221 500 -154 q 456 -347 500 -290 q 344 -426 413 -403 z "},"ñ":{"ha":876,"x_min":69,"x_max":807,"o":"m 558 679 l 689 675 l 783 679 q 804 660 801 678 q 807 636 807 643 l 728 615 l 724 0 l 661 0 l 231 535 l 242 63 q 297 52 264 57 q 351 43 331 47 q 349 17 351 33 q 326 0 346 0 l 199 8 l 94 0 q 73 17 76 0 q 69 43 69 35 l 161 64 l 157 615 l 69 635 q 73 660 69 642 q 94 679 76 679 q 105 679 94 679 q 146 678 115 679 q 240 675 176 678 l 653 153 l 644 615 l 535 635 q 538 661 535 642 q 558 679 540 681 m 663 946 l 686 919 q 616 837 651 858 q 546 815 581 815 q 482 825 513 815 q 421 844 451 835 q 357 853 390 853 q 313 842 335 853 q 271 811 292 831 l 247 838 q 318 920 283 899 q 388 942 353 942 q 451 933 421 942 q 513 914 482 924 q 576 904 544 904 q 621 915 600 904 q 663 946 642 926 z "},"ŋ":{"ha":876,"x_min":69,"x_max":807,"o":"m 558 679 l 689 675 l 783 679 q 804 660 801 678 q 807 636 807 643 l 728 615 l 724 100 q 682 -116 724 7 q 543 -364 640 -239 l 506 -337 q 592 -147 565 -242 q 624 46 619 -53 l 231 535 l 242 63 q 297 52 264 57 q 351 43 331 47 q 349 17 351 33 q 326 0 346 0 l 199 8 l 94 0 q 73 17 76 0 q 69 43 69 35 l 161 64 l 157 615 l 69 635 q 73 660 69 642 q 94 679 76 679 q 105 679 94 679 q 146 678 115 679 q 240 675 176 678 l 653 153 l 644 615 l 535 635 q 538 660 535 642 q 558 679 540 679 z "},"o":{"ha":794,"x_min":49,"x_max":746,"o":"m 746 351 q 700 149 746 229 q 573 28 654 68 q 388 -11 492 -11 q 214 28 290 -11 q 93 146 138 67 q 49 343 49 225 q 97 534 49 457 q 225 651 144 611 q 403 690 306 690 q 575 653 497 690 q 699 540 653 615 q 746 351 746 465 m 157 342 q 226 122 157 194 q 397 50 296 50 q 569 122 500 50 q 638 342 638 194 q 569 553 638 483 q 397 624 500 624 q 322 617 360 624 q 256 603 285 611 q 185 500 213 569 q 157 342 157 431 z "},"ó":{"ha":794,"x_min":49,"x_max":746,"o":"m 746 351 q 700 149 746 229 q 573 28 654 68 q 388 -11 492 -11 q 214 28 290 -11 q 93 146 138 67 q 49 343 49 225 q 97 534 49 457 q 225 651 144 611 q 403 690 306 690 q 575 653 497 690 q 699 540 653 615 q 746 351 746 465 m 157 342 q 226 122 157 194 q 397 50 296 50 q 569 122 500 50 q 638 342 638 194 q 569 553 638 483 q 397 624 500 624 q 322 617 360 624 q 256 603 285 611 q 185 500 213 569 q 157 342 157 431 m 261 761 l 246 788 q 285 815 246 788 q 385 888 324 842 q 513 986 447 933 q 525 965 517 982 q 540 927 533 947 q 547 893 547 907 q 540 876 547 881 q 439 824 494 847 q 335 784 383 800 q 261 761 286 768 z "},"ŏ":{"ha":794,"x_min":49,"x_max":746,"o":"m 746 351 q 700 149 746 229 q 573 28 654 68 q 388 -11 492 -11 q 214 28 290 -11 q 93 146 138 67 q 49 343 49 225 q 97 534 49 457 q 225 651 144 611 q 403 690 306 690 q 575 653 497 690 q 699 540 653 615 q 746 351 746 465 m 157 342 q 226 122 157 194 q 397 50 296 50 q 569 122 500 50 q 638 342 638 194 q 569 553 638 483 q 397 624 500 624 q 322 617 360 624 q 256 603 285 611 q 185 500 213 569 q 157 342 157 431 m 397 843 q 468 878 438 843 q 521 971 499 913 l 568 960 q 497 804 535 858 q 397 750 460 750 q 297 804 335 750 q 226 960 260 858 l 274 971 q 328 878 297 913 q 397 843 358 843 z "},"ô":{"ha":794,"x_min":49,"x_max":746,"o":"m 746 351 q 700 149 746 229 q 573 28 654 68 q 388 -11 492 -11 q 214 28 290 -11 q 93 146 138 67 q 49 343 49 225 q 97 534 49 457 q 225 651 144 611 q 403 690 306 690 q 575 653 497 690 q 699 540 653 615 q 746 351 746 465 m 157 342 q 226 122 157 194 q 397 50 296 50 q 569 122 500 50 q 638 342 638 194 q 569 553 638 483 q 397 624 500 624 q 322 617 360 624 q 256 603 285 611 q 185 500 213 569 q 157 342 157 431 m 397 890 l 263 749 l 226 772 q 307 893 272 838 q 365 993 342 949 l 428 993 q 486 893 451 949 q 567 772 521 838 l 531 749 l 397 890 z "},"ö":{"ha":794,"x_min":49,"x_max":746,"o":"m 746 351 q 700 149 746 229 q 573 28 654 68 q 388 -11 492 -11 q 214 28 290 -11 q 93 146 138 67 q 49 343 49 225 q 97 534 49 457 q 225 651 144 611 q 403 690 306 690 q 575 653 497 690 q 699 540 653 615 q 746 351 746 465 m 157 342 q 226 122 157 194 q 397 50 296 50 q 569 122 500 50 q 638 342 638 194 q 569 553 638 483 q 397 624 500 624 q 322 617 360 624 q 256 603 285 611 q 185 500 213 569 q 157 342 157 431 m 483 797 q 448 820 457 797 q 439 869 439 843 q 443 921 439 897 q 449 947 447 944 q 474 952 449 947 q 517 957 500 957 q 550 934 540 957 q 560 883 560 911 q 556 835 560 857 q 551 810 553 813 q 526 803 551 810 q 483 797 501 797 m 278 797 q 242 820 251 797 q 233 869 233 843 q 238 921 233 897 q 243 947 242 944 q 269 952 243 947 q 311 957 294 957 q 344 934 335 957 q 354 883 354 911 q 351 835 354 857 q 346 810 347 813 q 321 803 346 810 q 278 797 296 797 z "},"ò":{"ha":794,"x_min":49,"x_max":746,"o":"m 746 351 q 700 149 746 229 q 573 28 654 68 q 388 -11 492 -11 q 214 28 290 -11 q 93 146 138 67 q 49 343 49 225 q 97 534 49 457 q 225 651 144 611 q 403 690 306 690 q 575 653 497 690 q 699 540 653 615 q 746 351 746 465 m 157 342 q 226 122 157 194 q 397 50 296 50 q 569 122 500 50 q 638 342 638 194 q 569 553 638 483 q 397 624 500 624 q 322 617 360 624 q 256 603 285 611 q 185 500 213 569 q 157 342 157 431 m 547 788 l 532 761 q 458 784 507 768 q 355 824 410 800 q 253 876 300 847 q 246 893 246 881 q 253 927 246 907 q 269 965 260 947 q 281 986 278 982 q 408 888 347 933 q 508 815 469 842 q 547 788 547 788 z "},"ő":{"ha":794,"x_min":49,"x_max":746,"o":"m 746 351 q 700 149 746 229 q 573 28 654 68 q 388 -11 492 -11 q 214 28 290 -11 q 93 146 138 67 q 49 343 49 225 q 97 534 49 457 q 225 651 144 611 q 403 690 306 690 q 575 653 497 690 q 699 540 653 615 q 746 351 746 465 m 157 342 q 226 122 157 194 q 397 50 296 50 q 569 122 500 50 q 638 342 638 194 q 569 553 638 483 q 397 624 500 624 q 322 617 360 624 q 256 603 285 611 q 185 500 213 569 q 157 342 157 431 m 122 761 l 107 788 q 146 815 107 788 q 247 888 185 842 q 374 986 308 933 q 386 965 378 982 q 401 927 394 947 q 408 893 408 907 q 401 876 408 881 q 300 824 356 847 q 196 784 244 800 q 122 761 147 768 m 400 761 l 385 788 q 424 815 385 788 q 524 888 463 842 q 651 986 586 933 q 664 965 656 982 q 679 927 672 947 q 686 893 686 907 q 679 876 686 881 q 578 824 633 847 q 474 784 522 800 q 400 761 425 768 z "},"ō":{"ha":794,"x_min":49,"x_max":746,"o":"m 746 351 q 700 149 746 229 q 573 28 654 68 q 388 -11 492 -11 q 214 28 290 -11 q 93 146 138 67 q 49 343 49 225 q 97 534 49 457 q 225 651 144 611 q 403 690 306 690 q 575 653 497 690 q 699 540 653 615 q 746 351 746 465 m 157 342 q 226 122 157 194 q 397 50 296 50 q 569 122 500 50 q 638 342 638 194 q 569 553 638 483 q 397 624 500 624 q 322 617 360 624 q 256 603 285 611 q 185 500 213 569 q 157 342 157 431 m 201 833 l 201 921 l 592 921 l 592 833 l 201 833 z "},"ø":{"ha":794,"x_min":49,"x_max":746,"o":"m 133 -101 l 203 33 q 90 151 132 74 q 49 343 49 228 q 97 534 49 457 q 225 651 144 611 q 403 690 306 690 q 535 669 474 690 l 596 788 l 671 788 l 596 642 q 704 530 663 603 q 746 351 746 457 q 700 149 746 229 q 573 28 654 68 q 388 -11 492 -11 q 265 7 321 -11 l 208 -101 l 133 -101 m 157 342 q 180 201 157 260 q 242 107 203 143 l 500 603 q 397 624 454 624 q 322 617 360 624 q 256 603 285 611 q 185 500 213 569 q 157 342 157 431 m 638 342 q 615 476 638 419 q 556 567 593 532 l 297 69 q 397 50 343 50 q 569 122 500 50 q 638 342 638 194 z "},"ǿ":{"ha":794,"x_min":49,"x_max":746,"o":"m 133 -101 l 203 33 q 90 151 132 74 q 49 343 49 228 q 97 534 49 457 q 225 651 144 611 q 403 690 306 690 q 535 669 474 690 l 596 788 l 671 788 l 596 642 q 704 530 663 603 q 746 351 746 457 q 700 149 746 229 q 573 28 654 68 q 388 -11 492 -11 q 265 7 321 -11 l 208 -101 l 133 -101 m 157 342 q 180 201 157 260 q 242 107 203 143 l 500 603 q 397 624 454 624 q 322 617 360 624 q 256 603 285 611 q 185 500 213 569 q 157 342 157 431 m 638 342 q 615 476 638 419 q 556 567 593 532 l 297 69 q 397 50 343 50 q 569 122 500 50 q 638 342 638 194 m 261 761 l 246 788 q 285 815 246 788 q 385 888 324 842 q 513 986 447 933 q 525 965 517 982 q 540 927 533 947 q 547 893 547 907 q 540 876 547 881 q 439 824 494 847 q 335 784 383 800 q 261 761 286 768 z "},"õ":{"ha":794,"x_min":49,"x_max":746,"o":"m 746 351 q 700 149 746 229 q 573 28 654 68 q 388 -11 492 -11 q 214 28 290 -11 q 93 146 138 67 q 49 343 49 225 q 97 534 49 457 q 225 651 144 611 q 403 690 306 690 q 575 653 497 690 q 699 540 653 615 q 746 351 746 465 m 157 342 q 226 122 157 194 q 397 50 296 50 q 569 122 500 50 q 638 342 638 194 q 569 553 638 483 q 397 624 500 624 q 322 617 360 624 q 256 603 285 611 q 185 500 213 569 q 157 342 157 431 m 593 946 l 617 919 q 547 837 582 858 q 476 815 511 815 q 413 825 443 815 q 351 844 382 835 q 288 853 321 853 q 244 842 265 853 q 201 811 222 831 l 178 838 q 249 920 214 899 q 318 942 283 942 q 382 933 351 942 q 444 914 413 924 q 507 904 475 904 q 551 915 531 904 q 593 946 572 926 z "},"œ":{"ha":1006,"x_min":49,"x_max":943,"o":"m 549 675 l 889 679 q 919 677 908 679 q 931 660 931 675 l 906 513 q 886 513 900 513 q 860 519 872 514 q 849 533 849 524 l 849 614 l 594 611 l 607 381 l 864 381 l 864 324 l 606 308 l 594 68 l 861 68 l 885 147 q 901 167 889 163 q 943 171 914 171 l 935 17 q 924 3 933 6 q 896 0 915 0 l 553 8 q 468 -6 513 -1 q 385 -11 424 -11 q 213 26 289 -11 q 93 138 138 63 q 49 332 49 214 q 92 533 49 454 q 210 651 136 613 q 378 690 285 690 q 465 686 422 690 q 549 675 508 682 m 397 50 q 449 54 425 50 q 504 68 474 58 l 504 611 q 443 622 474 618 q 383 626 413 626 q 321 621 353 626 q 254 606 289 615 q 183 502 210 571 q 157 344 157 433 q 226 124 157 197 q 397 50 296 50 z "},"p":{"ha":631,"x_min":76,"x_max":589,"o":"m 101 0 q 80 17 83 0 q 76 43 76 35 l 165 63 l 165 617 l 76 636 q 80 662 76 644 q 101 679 83 679 q 124 678 101 679 q 217 675 146 678 l 369 679 q 487 651 438 679 q 563 576 536 624 q 589 469 589 528 q 560 367 589 417 q 472 285 531 318 q 325 249 414 253 l 269 246 l 260 63 l 378 43 q 375 17 378 35 q 354 0 372 0 l 217 8 l 101 0 m 332 306 q 424 333 388 308 q 478 394 460 357 q 496 471 496 432 q 461 575 496 528 q 351 624 426 622 l 260 614 l 272 308 l 332 306 z "},"þ":{"ha":631,"x_min":76,"x_max":589,"o":"m 101 0 q 80 17 83 0 q 76 43 76 35 l 165 63 l 165 617 l 76 636 q 80 662 76 644 q 101 679 83 679 q 124 678 101 679 q 217 675 146 678 q 306 678 282 678 q 329 679 329 679 q 350 662 347 679 q 353 638 353 644 l 264 617 l 264 558 l 369 558 q 487 531 438 558 q 563 455 536 503 q 589 349 589 407 q 560 248 589 296 q 472 168 531 200 q 325 128 414 136 l 264 122 l 264 63 l 353 43 q 350 17 353 35 q 329 0 347 0 l 217 8 l 101 0 m 264 185 l 332 185 q 424 210 388 185 q 478 273 460 235 q 496 350 496 311 q 461 454 496 407 q 351 503 426 501 l 264 493 l 264 185 z "},"q":{"ha":794,"x_min":49,"x_max":746,"o":"m 704 -221 l 385 -11 q 213 29 289 -10 q 92 147 136 68 q 49 343 49 225 q 97 534 49 457 q 225 651 144 611 q 403 690 306 690 q 575 653 497 690 q 699 540 653 615 q 746 351 746 465 q 685 124 746 210 q 522 7 625 39 l 742 -167 l 704 -221 m 157 342 q 226 122 157 194 q 397 50 296 50 q 569 122 500 50 q 638 342 638 194 q 569 553 638 483 q 397 624 500 624 q 322 617 360 624 q 256 603 285 611 q 185 500 213 569 q 157 342 157 431 z "},"r":{"ha":679,"x_min":76,"x_max":653,"o":"m 269 286 l 260 63 l 365 43 q 363 17 365 35 q 342 0 360 0 l 217 8 l 101 0 q 80 17 83 0 q 76 43 76 35 l 165 63 l 165 617 l 76 636 q 80 662 76 644 q 101 679 83 679 q 124 678 101 679 q 217 675 146 678 l 358 679 q 521 624 463 679 q 579 490 579 568 q 547 395 579 443 q 449 321 515 347 l 653 -8 l 582 -29 l 351 299 l 269 286 m 272 353 l 322 351 q 446 398 404 354 q 488 492 488 442 q 452 581 488 540 q 342 624 417 622 l 260 617 l 272 353 z "},"ŕ":{"ha":679,"x_min":76,"x_max":653,"o":"m 269 286 l 260 63 l 365 43 q 363 17 365 35 q 342 0 360 0 l 217 8 l 101 0 q 80 17 83 0 q 76 43 76 35 l 165 63 l 165 617 l 76 636 q 80 662 76 644 q 101 679 83 679 q 124 678 101 679 q 217 675 146 678 l 358 679 q 521 624 463 679 q 579 490 579 568 q 547 395 579 443 q 449 321 515 347 l 653 -8 l 582 -29 l 351 299 l 269 286 m 272 353 l 322 351 q 446 398 404 354 q 488 492 488 442 q 452 581 488 540 q 342 624 417 622 l 260 617 l 272 353 m 218 761 l 203 788 q 242 815 203 788 q 342 888 281 842 q 469 986 404 933 q 482 965 474 982 q 497 927 490 947 q 504 893 504 907 q 497 876 504 881 q 396 824 451 847 q 292 784 340 800 q 218 761 243 768 z "},"ř":{"ha":679,"x_min":76,"x_max":653,"o":"m 269 286 l 260 63 l 365 43 q 363 17 365 35 q 342 0 360 0 l 217 8 l 101 0 q 80 17 83 0 q 76 43 76 35 l 165 63 l 165 617 l 76 636 q 80 662 76 644 q 101 679 83 679 q 124 678 101 679 q 217 675 146 678 l 358 679 q 521 624 463 679 q 579 490 579 568 q 547 395 579 443 q 449 321 515 347 l 653 -8 l 582 -29 l 351 299 l 269 286 m 272 353 l 322 351 q 446 398 404 354 q 488 492 488 442 q 452 581 488 540 q 342 624 417 622 l 260 617 l 272 353 m 346 851 l 489 993 l 524 969 q 369 749 424 839 l 307 749 q 256 849 288 793 q 183 969 225 904 l 221 993 l 346 851 z "},"ŗ":{"ha":679,"x_min":76,"x_max":653,"o":"m 269 286 l 260 63 l 365 43 q 363 17 365 35 q 342 0 360 0 l 217 8 l 101 0 q 80 17 83 0 q 76 43 76 35 l 165 63 l 165 617 l 76 636 q 80 662 76 644 q 101 679 83 679 q 124 678 101 679 q 217 675 146 678 l 358 679 q 521 624 463 679 q 579 490 579 568 q 547 395 579 443 q 449 321 515 347 l 653 -8 l 582 -29 l 351 299 l 269 286 m 272 353 l 322 351 q 446 398 404 354 q 488 492 488 442 q 452 581 488 540 q 342 624 417 622 l 260 617 l 272 353 m 304 -426 l 288 -385 q 353 -333 329 -365 q 376 -258 376 -300 l 376 -251 q 365 -253 369 -253 q 354 -253 361 -253 q 303 -169 303 -253 q 306 -127 303 -150 q 314 -79 308 -104 q 356 -72 333 -75 q 396 -69 378 -69 q 442 -112 424 -69 q 460 -221 460 -154 q 416 -347 460 -290 q 304 -426 372 -403 z "},"s":{"ha":600,"x_min":63,"x_max":538,"o":"m 538 169 q 467 35 538 81 q 289 -11 396 -11 q 63 36 182 -11 q 69 81 64 53 q 80 138 74 110 q 90 187 86 167 q 96 207 94 207 q 114 206 101 207 q 138 201 126 206 q 149 186 149 197 l 149 86 q 220 61 181 69 q 296 53 260 53 q 401 83 368 53 q 433 157 433 114 q 418 206 433 178 q 365 254 403 233 l 188 350 q 106 422 135 379 q 78 508 78 465 q 106 597 78 556 q 188 664 133 638 q 319 690 242 690 q 412 680 364 690 q 506 654 460 669 l 476 494 q 456 495 471 494 q 429 501 442 496 q 417 515 417 506 l 417 607 q 368 619 396 614 q 313 625 340 625 q 234 611 272 625 q 172 561 196 597 q 167 525 167 544 q 239 426 167 465 l 413 335 q 507 257 476 301 q 538 169 538 213 z "},"ś":{"ha":600,"x_min":63,"x_max":538,"o":"m 538 169 q 467 35 538 81 q 289 -11 396 -11 q 63 36 182 -11 q 69 81 64 53 q 80 138 74 110 q 90 187 86 167 q 96 207 94 207 q 114 206 101 207 q 138 201 126 206 q 149 186 149 197 l 149 86 q 220 61 181 69 q 296 53 260 53 q 401 83 368 53 q 433 157 433 114 q 418 206 433 178 q 365 254 403 233 l 188 350 q 106 422 135 379 q 78 508 78 465 q 106 597 78 556 q 188 664 133 638 q 319 690 242 690 q 412 680 364 690 q 506 654 460 669 l 476 494 q 456 495 471 494 q 429 501 442 496 q 417 515 417 506 l 417 607 q 368 619 396 614 q 313 625 340 625 q 234 611 272 625 q 172 561 196 597 q 167 525 167 544 q 239 426 167 465 l 413 335 q 507 257 476 301 q 538 169 538 213 m 183 761 l 168 788 q 207 815 168 788 q 308 888 246 842 q 435 986 369 933 q 447 965 439 982 q 463 927 456 947 q 469 893 469 907 q 463 876 469 881 q 361 824 417 847 q 257 784 306 800 q 183 761 208 768 z "},"š":{"ha":600,"x_min":63,"x_max":538,"o":"m 538 169 q 467 35 538 81 q 289 -11 396 -11 q 63 36 182 -11 q 69 81 64 53 q 80 138 74 110 q 90 187 86 167 q 96 207 94 207 q 114 206 101 207 q 138 201 126 206 q 149 186 149 197 l 149 86 q 220 61 181 69 q 296 53 260 53 q 401 83 368 53 q 433 157 433 114 q 418 206 433 178 q 365 254 403 233 l 188 350 q 106 422 135 379 q 78 508 78 465 q 106 597 78 556 q 188 664 133 638 q 319 690 242 690 q 412 680 364 690 q 506 654 460 669 l 476 494 q 456 495 471 494 q 429 501 442 496 q 417 515 417 506 l 417 607 q 368 619 396 614 q 313 625 340 625 q 234 611 272 625 q 172 561 196 597 q 167 525 167 544 q 239 426 167 465 l 413 335 q 507 257 476 301 q 538 169 538 213 m 311 851 l 454 993 l 489 969 q 335 749 389 839 l 272 749 q 222 849 253 793 q 149 969 190 904 l 186 993 l 311 851 z "},"ş":{"ha":600,"x_min":63,"x_max":538,"o":"m 538 169 q 467 35 538 81 q 289 -11 396 -11 q 63 36 182 -11 q 69 81 64 53 q 80 138 74 110 q 90 187 86 167 q 96 207 94 207 q 114 206 101 207 q 138 201 126 206 q 149 186 149 197 l 149 86 q 220 61 181 69 q 296 53 260 53 q 401 83 368 53 q 433 157 433 114 q 418 206 433 178 q 365 254 403 233 l 188 350 q 106 422 135 379 q 78 508 78 465 q 106 597 78 556 q 188 664 133 638 q 319 690 242 690 q 412 680 364 690 q 506 654 460 669 l 476 494 q 456 495 471 494 q 429 501 442 496 q 417 515 417 506 l 417 607 q 368 619 396 614 q 313 625 340 625 q 234 611 272 625 q 172 561 196 597 q 167 525 167 544 q 239 426 167 465 l 413 335 q 507 257 476 301 q 538 169 538 213 m 215 -115 l 263 0 l 307 0 l 283 -78 q 378 -121 349 -86 q 408 -196 408 -156 q 369 -283 408 -243 q 265 -324 331 -324 q 195 -310 225 -324 q 146 -281 165 -297 l 172 -239 q 249 -265 206 -265 q 302 -244 283 -265 q 321 -197 321 -224 q 296 -142 321 -168 q 215 -115 271 -117 z "},"ŝ":{"ha":600,"x_min":63,"x_max":538,"o":"m 538 169 q 467 35 538 81 q 289 -11 396 -11 q 63 36 182 -11 q 69 81 64 53 q 80 138 74 110 q 90 187 86 167 q 96 207 94 207 q 114 206 101 207 q 138 201 126 206 q 149 186 149 197 l 149 86 q 220 61 181 69 q 296 53 260 53 q 401 83 368 53 q 433 157 433 114 q 418 206 433 178 q 365 254 403 233 l 188 350 q 106 422 135 379 q 78 508 78 465 q 106 597 78 556 q 188 664 133 638 q 319 690 242 690 q 412 680 364 690 q 506 654 460 669 l 476 494 q 456 495 471 494 q 429 501 442 496 q 417 515 417 506 l 417 607 q 368 619 396 614 q 313 625 340 625 q 234 611 272 625 q 172 561 196 597 q 167 525 167 544 q 239 426 167 465 l 413 335 q 507 257 476 301 q 538 169 538 213 m 319 890 l 185 749 l 149 772 q 229 893 194 838 q 288 993 264 949 l 350 993 q 408 893 374 949 q 489 772 443 838 l 453 749 l 319 890 z "},"ș":{"ha":600,"x_min":63,"x_max":538,"o":"m 538 169 q 467 35 538 81 q 289 -11 396 -11 q 63 36 182 -11 q 69 81 64 53 q 80 138 74 110 q 90 187 86 167 q 96 207 94 207 q 114 206 101 207 q 138 201 126 206 q 149 186 149 197 l 149 86 q 220 61 181 69 q 296 53 260 53 q 401 83 368 53 q 433 157 433 114 q 418 206 433 178 q 365 254 403 233 l 188 350 q 106 422 135 379 q 78 508 78 465 q 106 597 78 556 q 188 664 133 638 q 319 690 242 690 q 412 680 364 690 q 506 654 460 669 l 476 494 q 456 495 471 494 q 429 501 442 496 q 417 515 417 506 l 417 607 q 368 619 396 614 q 313 625 340 625 q 234 611 272 625 q 172 561 196 597 q 167 525 167 544 q 239 426 167 465 l 413 335 q 507 257 476 301 q 538 169 538 213 m 231 -426 l 214 -385 q 279 -333 256 -365 q 303 -258 303 -300 l 303 -251 q 292 -253 296 -253 q 281 -253 288 -253 q 229 -169 229 -253 q 232 -127 229 -150 q 240 -79 235 -104 q 282 -72 260 -75 q 322 -69 304 -69 q 368 -112 350 -69 q 386 -221 386 -154 q 342 -347 386 -290 q 231 -426 299 -403 z "},"ß":{"ha":1175,"x_min":63,"x_max":1097,"o":"m 538 169 q 467 35 538 81 q 289 -11 396 -11 q 63 36 182 -11 q 69 81 64 53 q 80 138 74 110 q 90 187 86 167 q 96 207 94 207 q 114 206 101 207 q 138 201 126 206 q 149 186 149 197 l 149 86 q 220 61 181 69 q 296 53 260 53 q 401 83 368 53 q 433 157 433 114 q 418 206 433 178 q 365 254 403 233 l 188 350 q 106 422 135 379 q 78 508 78 465 q 106 597 78 556 q 188 664 133 638 q 319 690 242 690 q 412 680 364 690 q 506 654 460 669 l 476 494 q 456 495 471 494 q 429 501 442 496 q 417 515 417 506 l 417 607 q 368 619 396 614 q 313 625 340 625 q 234 611 272 625 q 172 561 196 597 q 167 525 167 544 q 239 426 167 465 l 413 335 q 507 257 476 301 q 538 169 538 213 m 1097 169 q 1026 35 1097 81 q 849 -11 956 -11 q 622 36 742 -11 q 628 81 624 53 q 640 138 633 110 q 650 187 646 167 q 656 207 654 207 q 674 206 661 207 q 697 201 686 206 q 708 186 708 197 l 708 86 q 780 61 740 69 q 856 53 819 53 q 960 83 928 53 q 993 157 993 114 q 978 206 993 178 q 925 254 963 233 l 747 350 q 666 422 694 379 q 638 508 638 465 q 665 597 638 556 q 747 664 693 638 q 879 690 801 690 q 972 680 924 690 q 1065 654 1019 669 l 1036 494 q 1016 495 1031 494 q 989 501 1001 496 q 976 515 976 506 l 976 607 q 928 619 956 614 q 872 625 900 625 q 794 611 832 625 q 732 561 756 597 q 726 525 726 544 q 799 426 726 465 l 972 335 q 1067 257 1036 301 q 1097 169 1097 213 z "},"t":{"ha":635,"x_min":28,"x_max":607,"o":"m 268 613 l 111 615 l 97 518 q 85 503 97 508 q 60 498 74 499 q 42 497 47 497 l 28 661 q 42 677 31 675 q 69 679 53 679 l 319 674 l 565 679 q 594 677 583 679 q 607 661 606 675 l 593 497 q 575 498 589 497 q 549 503 561 499 q 538 518 538 508 l 524 615 q 445 614 485 615 q 365 613 406 613 l 365 67 l 478 43 q 475 17 478 35 q 454 0 472 0 l 319 8 l 182 0 q 159 17 163 0 q 156 43 156 35 l 268 67 l 268 613 z "},"ŧ":{"ha":635,"x_min":28,"x_max":607,"o":"m 526 365 l 526 319 l 365 319 l 365 67 l 478 43 q 475 17 478 35 q 454 0 472 0 l 319 8 l 182 0 q 159 17 163 0 q 156 43 156 35 l 268 67 l 268 319 l 107 319 l 107 365 l 268 365 l 268 613 l 111 615 l 97 518 q 85 503 97 508 q 60 498 74 499 q 42 497 47 497 l 28 661 q 42 677 31 675 q 69 679 53 679 l 319 674 l 565 679 q 594 677 583 679 q 607 661 606 675 l 593 497 q 575 498 589 497 q 549 503 561 499 q 538 518 538 508 l 524 615 q 445 614 485 615 q 365 613 406 613 l 365 365 l 526 365 z "},"ť":{"ha":635,"x_min":28,"x_max":607,"o":"m 268 613 l 111 615 l 97 518 q 85 503 97 508 q 60 498 74 499 q 42 497 47 497 l 28 661 q 42 677 31 675 q 69 679 53 679 l 319 674 l 565 679 q 594 677 583 679 q 607 661 606 675 l 593 497 q 575 498 589 497 q 549 503 561 499 q 538 518 538 508 l 524 615 q 445 614 485 615 q 365 613 406 613 l 365 67 l 478 43 q 475 17 478 35 q 454 0 472 0 l 319 8 l 182 0 q 159 17 163 0 q 156 43 156 35 l 268 67 l 268 613 m 310 851 l 453 993 l 488 969 q 333 749 388 839 l 271 749 q 220 849 251 793 q 147 969 189 904 l 185 993 l 310 851 z "},"ţ":{"ha":635,"x_min":28,"x_max":607,"o":"m 268 613 l 111 615 l 97 518 q 85 503 97 508 q 60 498 74 499 q 42 497 47 497 l 28 661 q 42 677 31 675 q 69 679 53 679 l 319 674 l 565 679 q 594 677 583 679 q 607 661 606 675 l 593 497 q 575 498 589 497 q 549 503 561 499 q 538 518 538 508 l 524 615 q 445 614 485 615 q 365 613 406 613 l 365 67 l 478 43 q 475 17 478 35 q 454 0 472 0 l 319 8 l 182 0 q 159 17 163 0 q 156 43 156 35 l 268 67 l 268 613 m 257 -107 l 304 8 l 349 8 l 325 -69 q 420 -112 390 -78 q 450 -187 450 -147 q 411 -275 450 -235 q 307 -315 372 -315 q 237 -302 267 -315 q 188 -272 207 -289 l 214 -231 q 290 -257 247 -257 q 344 -236 325 -257 q 363 -189 363 -215 q 338 -134 363 -160 q 257 -107 313 -108 z "},"ț":{"ha":635,"x_min":28,"x_max":607,"o":"m 268 613 l 111 615 l 97 518 q 85 503 97 508 q 60 498 74 499 q 42 497 47 497 l 28 661 q 42 677 31 675 q 69 679 53 679 l 319 674 l 565 679 q 594 677 583 679 q 607 661 606 675 l 593 497 q 575 498 589 497 q 549 503 561 499 q 538 518 538 508 l 524 615 q 445 614 485 615 q 365 613 406 613 l 365 67 l 478 43 q 475 17 478 35 q 454 0 472 0 l 319 8 l 182 0 q 159 17 163 0 q 156 43 156 35 l 268 67 l 268 613 m 272 -418 l 256 -376 q 321 -324 297 -357 q 344 -250 344 -292 l 344 -243 q 333 -244 338 -244 q 322 -244 329 -244 q 271 -161 271 -244 q 274 -119 271 -142 q 282 -71 276 -96 q 324 -64 301 -67 q 364 -61 346 -61 q 410 -103 392 -61 q 428 -212 428 -146 q 384 -338 428 -282 q 272 -418 340 -394 z "},"u":{"ha":804,"x_min":63,"x_max":749,"o":"m 306 679 q 328 661 325 679 q 332 636 332 643 l 236 615 l 236 211 q 278 100 236 143 q 418 57 321 57 q 560 105 515 57 q 606 213 606 153 l 606 615 l 508 636 q 513 665 508 651 q 535 679 518 679 l 646 675 q 708 678 694 678 q 721 679 721 679 q 745 662 742 679 q 749 636 749 644 l 683 615 l 683 215 q 613 51 683 114 q 417 -11 542 -11 q 213 42 289 -11 q 138 215 138 94 l 138 615 l 63 635 q 65 660 63 642 q 86 679 68 679 q 92 679 86 679 q 119 678 97 679 q 190 675 142 678 q 281 678 256 678 q 306 679 306 679 z "},"ú":{"ha":804,"x_min":63,"x_max":749,"o":"m 306 679 q 328 661 325 679 q 332 636 332 643 l 236 615 l 236 211 q 278 100 236 143 q 418 57 321 57 q 560 105 515 57 q 606 213 606 153 l 606 615 l 508 636 q 513 665 508 651 q 535 679 518 679 l 646 675 q 708 678 694 678 q 721 679 721 679 q 745 662 742 679 q 749 636 749 644 l 683 615 l 683 215 q 613 51 683 114 q 417 -11 542 -11 q 213 42 289 -11 q 138 215 138 94 l 138 615 l 63 635 q 65 660 63 642 q 86 679 68 679 q 92 679 86 679 q 119 678 97 679 q 190 675 142 678 q 281 678 256 678 q 306 679 306 679 m 288 761 l 272 788 q 311 815 272 788 q 412 888 350 842 q 539 986 474 933 q 551 965 543 982 q 567 927 560 947 q 574 893 574 907 q 567 876 574 881 q 465 824 521 847 q 361 784 410 800 q 288 761 313 768 z "},"ŭ":{"ha":804,"x_min":63,"x_max":749,"o":"m 306 679 q 328 661 325 679 q 332 636 332 643 l 236 615 l 236 211 q 278 100 236 143 q 418 57 321 57 q 560 105 515 57 q 606 213 606 153 l 606 615 l 508 636 q 513 665 508 651 q 535 679 518 679 l 646 675 q 708 678 694 678 q 721 679 721 679 q 745 662 742 679 q 749 636 749 644 l 683 615 l 683 215 q 613 51 683 114 q 417 -11 542 -11 q 213 42 289 -11 q 138 215 138 94 l 138 615 l 63 635 q 65 660 63 642 q 86 679 68 679 q 92 679 86 679 q 119 678 97 679 q 190 675 142 678 q 281 678 256 678 q 306 679 306 679 m 424 843 q 494 878 464 843 q 547 971 525 913 l 594 960 q 524 804 561 858 q 424 750 486 750 q 324 804 361 750 q 253 960 286 858 l 300 971 q 354 878 324 913 q 424 843 385 843 z "},"û":{"ha":804,"x_min":63,"x_max":749,"o":"m 306 679 q 328 661 325 679 q 332 636 332 643 l 236 615 l 236 211 q 278 100 236 143 q 418 57 321 57 q 560 105 515 57 q 606 213 606 153 l 606 615 l 508 636 q 513 665 508 651 q 535 679 518 679 l 646 675 q 708 678 694 678 q 721 679 721 679 q 745 662 742 679 q 749 636 749 644 l 683 615 l 683 215 q 613 51 683 114 q 417 -11 542 -11 q 213 42 289 -11 q 138 215 138 94 l 138 615 l 63 635 q 65 660 63 642 q 86 679 68 679 q 92 679 86 679 q 119 678 97 679 q 190 675 142 678 q 281 678 256 678 q 306 679 306 679 m 424 890 l 289 749 l 253 772 q 333 893 299 838 q 392 993 368 949 l 454 993 q 513 893 478 949 q 593 772 547 838 l 557 749 l 424 890 z "},"ü":{"ha":804,"x_min":63,"x_max":749,"o":"m 306 679 q 328 661 325 679 q 332 636 332 643 l 236 615 l 236 211 q 278 100 236 143 q 418 57 321 57 q 560 105 515 57 q 606 213 606 153 l 606 615 l 508 636 q 513 665 508 651 q 535 679 518 679 l 646 675 q 708 678 694 678 q 721 679 721 679 q 745 662 742 679 q 749 636 749 644 l 683 615 l 683 215 q 613 51 683 114 q 417 -11 542 -11 q 213 42 289 -11 q 138 215 138 94 l 138 615 l 63 635 q 65 660 63 642 q 86 679 68 679 q 92 679 86 679 q 119 678 97 679 q 190 675 142 678 q 281 678 256 678 q 306 679 306 679 m 510 797 q 474 820 483 797 q 465 869 465 843 q 469 921 465 897 q 475 947 474 944 q 501 952 475 947 q 543 957 526 957 q 576 934 567 957 q 586 883 586 911 q 583 835 586 857 q 578 810 579 813 q 553 803 578 810 q 510 797 528 797 m 304 797 q 269 820 278 797 q 260 869 260 843 q 264 921 260 897 q 269 947 268 944 q 295 952 269 947 q 338 957 321 957 q 371 934 361 957 q 381 883 381 911 q 377 835 381 857 q 372 810 374 813 q 347 803 372 810 q 304 797 322 797 z "},"ù":{"ha":804,"x_min":63,"x_max":749,"o":"m 306 679 q 328 661 325 679 q 332 636 332 643 l 236 615 l 236 211 q 278 100 236 143 q 418 57 321 57 q 560 105 515 57 q 606 213 606 153 l 606 615 l 508 636 q 513 665 508 651 q 535 679 518 679 l 646 675 q 708 678 694 678 q 721 679 721 679 q 745 662 742 679 q 749 636 749 644 l 683 615 l 683 215 q 613 51 683 114 q 417 -11 542 -11 q 213 42 289 -11 q 138 215 138 94 l 138 615 l 63 635 q 65 660 63 642 q 86 679 68 679 q 92 679 86 679 q 119 678 97 679 q 190 675 142 678 q 281 678 256 678 q 306 679 306 679 m 574 788 l 558 761 q 485 784 533 768 q 381 824 436 800 q 279 876 326 847 q 272 893 272 881 q 279 927 272 907 q 295 965 286 947 q 307 986 304 982 q 435 888 374 933 q 535 815 496 842 q 574 788 574 788 z "},"ű":{"ha":804,"x_min":63,"x_max":749,"o":"m 306 679 q 328 661 325 679 q 332 636 332 643 l 236 615 l 236 211 q 278 100 236 143 q 418 57 321 57 q 560 105 515 57 q 606 213 606 153 l 606 615 l 508 636 q 513 665 508 651 q 535 679 518 679 l 646 675 q 708 678 694 678 q 721 679 721 679 q 745 662 742 679 q 749 636 749 644 l 683 615 l 683 215 q 613 51 683 114 q 417 -11 542 -11 q 213 42 289 -11 q 138 215 138 94 l 138 615 l 63 635 q 65 660 63 642 q 86 679 68 679 q 92 679 86 679 q 119 678 97 679 q 190 675 142 678 q 281 678 256 678 q 306 679 306 679 m 149 761 l 133 788 q 172 815 133 788 q 273 888 211 842 q 400 986 335 933 q 413 965 404 982 q 428 927 421 947 q 435 893 435 907 q 428 876 435 881 q 326 824 382 847 q 222 784 271 800 q 149 761 174 768 m 426 761 l 411 788 q 450 815 411 788 q 551 888 489 842 q 678 986 613 933 q 690 965 682 982 q 706 927 699 947 q 713 893 713 907 q 706 876 713 881 q 604 824 660 847 q 500 784 549 800 q 426 761 451 768 z "},"ū":{"ha":804,"x_min":63,"x_max":749,"o":"m 306 679 q 328 661 325 679 q 332 636 332 643 l 236 615 l 236 211 q 278 100 236 143 q 418 57 321 57 q 560 105 515 57 q 606 213 606 153 l 606 615 l 508 636 q 513 665 508 651 q 535 679 518 679 l 646 675 q 708 678 694 678 q 721 679 721 679 q 745 662 742 679 q 749 636 749 644 l 683 615 l 683 215 q 613 51 683 114 q 417 -11 542 -11 q 213 42 289 -11 q 138 215 138 94 l 138 615 l 63 635 q 65 660 63 642 q 86 679 68 679 q 92 679 86 679 q 119 678 97 679 q 190 675 142 678 q 281 678 256 678 q 306 679 306 679 m 228 833 l 228 921 l 618 921 l 618 833 l 228 833 z "},"ų":{"ha":804,"x_min":63,"x_max":749,"o":"m 306 679 q 328 661 325 679 q 332 636 332 643 l 236 615 l 236 211 q 278 100 236 143 q 418 57 321 57 q 560 105 515 57 q 606 213 606 153 l 606 615 l 508 636 q 513 665 508 651 q 535 679 518 679 l 646 675 q 708 678 694 678 q 721 679 721 679 q 745 662 742 679 q 749 636 749 644 l 683 615 l 683 215 q 613 51 683 114 q 417 -11 542 -11 q 213 42 289 -11 q 138 215 138 94 l 138 615 l 63 635 q 65 660 63 642 q 86 679 68 679 q 92 679 86 679 q 119 678 97 679 q 190 675 142 678 q 281 678 256 678 q 306 679 306 679 m 433 10 l 543 10 q 439 -38 479 -7 q 380 -106 399 -69 q 361 -176 361 -143 q 385 -235 361 -217 q 440 -253 410 -253 q 517 -229 482 -253 q 540 -271 535 -246 q 492 -301 522 -287 q 421 -314 461 -314 q 315 -276 351 -314 q 278 -186 278 -237 q 315 -80 278 -135 q 433 10 353 -25 z "},"ů":{"ha":804,"x_min":63,"x_max":749,"o":"m 306 679 q 328 661 325 679 q 332 636 332 643 l 236 615 l 236 211 q 278 100 236 143 q 418 57 321 57 q 560 105 515 57 q 606 213 606 153 l 606 615 l 508 636 q 513 665 508 651 q 535 679 518 679 l 646 675 q 708 678 694 678 q 721 679 721 679 q 745 662 742 679 q 749 636 749 644 l 683 615 l 683 215 q 613 51 683 114 q 417 -11 542 -11 q 213 42 289 -11 q 138 215 138 94 l 138 615 l 63 635 q 65 660 63 642 q 86 679 68 679 q 92 679 86 679 q 119 678 97 679 q 190 675 142 678 q 281 678 256 678 q 306 679 306 679 m 551 883 q 515 788 551 819 q 419 757 478 757 q 331 788 367 757 q 294 881 294 818 q 333 970 294 939 q 425 1001 372 1001 q 515 972 478 1001 q 551 883 551 943 m 358 881 q 378 822 358 840 q 424 803 397 803 q 469 822 451 803 q 488 881 488 840 q 469 936 488 917 q 424 956 451 956 q 386 949 400 956 q 365 924 372 943 q 358 881 358 904 z "},"ũ":{"ha":804,"x_min":63,"x_max":749,"o":"m 306 679 q 328 661 325 679 q 332 636 332 643 l 236 615 l 236 211 q 278 100 236 143 q 418 57 321 57 q 560 105 515 57 q 606 213 606 153 l 606 615 l 508 636 q 513 665 508 651 q 535 679 518 679 l 646 675 q 708 678 694 678 q 721 679 721 679 q 745 662 742 679 q 749 636 749 644 l 683 615 l 683 215 q 613 51 683 114 q 417 -11 542 -11 q 213 42 289 -11 q 138 215 138 94 l 138 615 l 63 635 q 65 660 63 642 q 86 679 68 679 q 92 679 86 679 q 119 678 97 679 q 190 675 142 678 q 281 678 256 678 q 306 679 306 679 m 619 946 l 643 919 q 573 837 608 858 q 503 815 538 815 q 439 825 469 815 q 378 844 408 835 q 314 853 347 853 q 270 842 292 853 q 228 811 249 831 l 204 838 q 275 920 240 899 q 344 942 310 942 q 408 933 378 942 q 470 914 439 924 q 533 904 501 904 q 578 915 557 904 q 619 946 599 926 z "},"v":{"ha":715,"x_min":21,"x_max":694,"o":"m 281 636 l 197 617 l 369 117 l 539 617 q 497 627 519 622 q 456 636 475 632 q 460 665 456 651 q 481 679 465 679 l 590 675 l 669 679 q 692 661 689 678 q 694 638 694 644 l 626 617 l 404 0 l 318 0 l 89 615 l 21 638 q 24 662 21 644 q 47 679 28 679 q 65 678 47 679 q 149 675 82 678 l 257 679 q 276 665 272 679 q 281 636 281 651 z "},"w":{"ha":994,"x_min":21,"x_max":974,"o":"m 281 636 l 196 617 l 329 132 l 492 631 l 525 631 l 682 132 l 819 617 q 776 626 799 622 q 735 636 754 631 q 740 665 735 651 q 761 679 744 679 l 871 675 l 950 679 q 971 660 968 678 q 974 636 974 643 l 907 615 l 724 0 l 631 0 l 497 401 l 367 0 l 274 0 l 88 615 l 21 638 q 26 665 21 651 q 46 679 31 679 l 147 675 l 256 679 q 276 665 271 679 q 281 636 281 651 z "},"ẃ":{"ha":994,"x_min":21,"x_max":974,"o":"m 281 636 l 196 617 l 329 132 l 492 631 l 525 631 l 682 132 l 819 617 q 776 626 799 622 q 735 636 754 631 q 740 665 735 651 q 761 679 744 679 l 871 675 l 950 679 q 971 660 968 678 q 974 636 974 643 l 907 615 l 724 0 l 631 0 l 497 401 l 367 0 l 274 0 l 88 615 l 21 638 q 26 665 21 651 q 46 679 31 679 l 147 675 l 256 679 q 276 665 271 679 q 281 636 281 651 m 375 761 l 360 788 q 399 815 360 788 q 499 888 438 842 q 626 986 561 933 q 639 965 631 982 q 654 927 647 947 q 661 893 661 907 q 654 876 661 881 q 553 824 608 847 q 449 784 497 800 q 375 761 400 768 z "},"ŵ":{"ha":994,"x_min":21,"x_max":974,"o":"m 281 636 l 196 617 l 329 132 l 492 631 l 525 631 l 682 132 l 819 617 q 776 626 799 622 q 735 636 754 631 q 740 665 735 651 q 761 679 744 679 l 871 675 l 950 679 q 971 660 968 678 q 974 636 974 643 l 907 615 l 724 0 l 631 0 l 497 401 l 367 0 l 274 0 l 88 615 l 21 638 q 26 665 21 651 q 46 679 31 679 l 147 675 l 256 679 q 276 665 271 679 q 281 636 281 651 m 511 890 l 376 749 l 340 772 q 421 893 386 838 q 479 993 456 949 l 542 993 q 600 893 565 949 q 681 772 635 838 l 644 749 l 511 890 z "},"ẅ":{"ha":994,"x_min":21,"x_max":974,"o":"m 281 636 l 196 617 l 329 132 l 492 631 l 525 631 l 682 132 l 819 617 q 776 626 799 622 q 735 636 754 631 q 740 665 735 651 q 761 679 744 679 l 871 675 l 950 679 q 971 660 968 678 q 974 636 974 643 l 907 615 l 724 0 l 631 0 l 497 401 l 367 0 l 274 0 l 88 615 l 21 638 q 26 665 21 651 q 46 679 31 679 l 147 675 l 256 679 q 276 665 271 679 q 281 636 281 651 m 597 797 q 562 820 571 797 q 553 869 553 843 q 557 921 553 897 q 563 947 561 944 q 588 952 563 947 q 631 957 614 957 q 664 934 654 957 q 674 883 674 911 q 670 835 674 857 q 665 810 667 813 q 640 803 665 810 q 597 797 615 797 m 392 797 q 356 820 365 797 q 347 869 347 843 q 351 921 347 897 q 357 947 356 944 q 383 952 357 947 q 425 957 408 957 q 458 934 449 957 q 468 883 468 911 q 465 835 468 857 q 460 810 461 813 q 435 803 460 810 q 392 797 410 797 z "},"ẁ":{"ha":994,"x_min":21,"x_max":974,"o":"m 281 636 l 196 617 l 329 132 l 492 631 l 525 631 l 682 132 l 819 617 q 776 626 799 622 q 735 636 754 631 q 740 665 735 651 q 761 679 744 679 l 871 675 l 950 679 q 971 660 968 678 q 974 636 974 643 l 907 615 l 724 0 l 631 0 l 497 401 l 367 0 l 274 0 l 88 615 l 21 638 q 26 665 21 651 q 46 679 31 679 l 147 675 l 256 679 q 276 665 271 679 q 281 636 281 651 m 661 788 l 646 761 q 572 784 621 768 q 469 824 524 800 q 367 876 414 847 q 360 893 360 881 q 367 927 360 907 q 383 965 374 947 q 394 986 392 982 q 522 888 461 933 q 622 815 583 842 q 661 788 661 788 z "},"x":{"ha":786,"x_min":42,"x_max":744,"o":"m 465 43 l 543 61 l 385 282 l 222 61 q 262 51 242 56 q 300 43 282 47 q 297 17 300 33 q 275 0 294 0 l 160 8 l 67 0 q 45 17 49 0 q 42 42 42 35 l 124 64 l 340 343 l 146 615 l 67 636 q 92 679 67 679 l 190 675 l 307 679 q 327 665 322 679 q 332 636 332 651 l 258 617 l 404 415 l 554 618 q 515 628 535 624 q 476 636 494 632 q 481 665 476 651 q 501 679 486 679 l 617 675 l 696 679 q 717 661 714 678 q 719 638 719 644 l 651 615 l 450 351 l 657 64 q 701 53 674 58 q 744 43 729 49 q 742 17 744 35 q 719 0 739 0 l 608 8 l 490 0 q 469 17 472 0 q 465 43 465 33 z "},"y":{"ha":650,"x_min":21,"x_max":629,"o":"m 382 64 l 481 43 q 478 17 481 35 q 457 0 475 0 l 336 8 l 213 0 q 190 17 193 0 q 186 43 186 35 l 285 64 l 285 269 l 90 615 l 21 638 q 24 662 21 644 q 47 679 28 679 q 63 678 47 679 q 144 675 78 678 l 251 679 q 271 665 267 679 q 275 636 275 651 l 194 617 l 342 333 l 478 617 q 436 626 458 622 q 394 636 414 631 q 399 665 394 651 q 419 679 404 679 l 525 675 l 606 679 q 626 661 624 678 q 629 638 629 644 l 561 615 l 382 271 l 382 64 z "},"ý":{"ha":650,"x_min":21,"x_max":629,"o":"m 382 64 l 481 43 q 478 17 481 35 q 457 0 475 0 l 336 8 l 213 0 q 190 17 193 0 q 186 43 186 35 l 285 64 l 285 269 l 90 615 l 21 638 q 24 662 21 644 q 47 679 28 679 q 63 678 47 679 q 144 675 78 678 l 251 679 q 271 665 267 679 q 275 636 275 651 l 194 617 l 342 333 l 478 617 q 436 626 458 622 q 394 636 414 631 q 399 665 394 651 q 419 679 404 679 l 525 675 l 606 679 q 626 661 624 678 q 629 638 629 644 l 561 615 l 382 271 l 382 64 m 203 761 l 188 788 q 226 815 188 788 q 327 888 265 842 q 454 986 389 933 q 467 965 458 982 q 482 927 475 947 q 489 893 489 907 q 482 876 489 881 q 381 824 436 847 q 276 784 325 800 q 203 761 228 768 z "},"ŷ":{"ha":650,"x_min":21,"x_max":629,"o":"m 382 64 l 481 43 q 478 17 481 35 q 457 0 475 0 l 336 8 l 213 0 q 190 17 193 0 q 186 43 186 35 l 285 64 l 285 269 l 90 615 l 21 638 q 24 662 21 644 q 47 679 28 679 q 63 678 47 679 q 144 675 78 678 l 251 679 q 271 665 267 679 q 275 636 275 651 l 194 617 l 342 333 l 478 617 q 436 626 458 622 q 394 636 414 631 q 399 665 394 651 q 419 679 404 679 l 525 675 l 606 679 q 626 661 624 678 q 629 638 629 644 l 561 615 l 382 271 l 382 64 m 339 890 l 204 749 l 168 772 q 249 893 214 838 q 307 993 283 949 l 369 993 q 428 893 393 949 q 508 772 463 838 l 472 749 l 339 890 z "},"ÿ":{"ha":650,"x_min":21,"x_max":629,"o":"m 382 64 l 481 43 q 478 17 481 35 q 457 0 475 0 l 336 8 l 213 0 q 190 17 193 0 q 186 43 186 35 l 285 64 l 285 269 l 90 615 l 21 638 q 24 662 21 644 q 47 679 28 679 q 63 678 47 679 q 144 675 78 678 l 251 679 q 271 665 267 679 q 275 636 275 651 l 194 617 l 342 333 l 478 617 q 436 626 458 622 q 394 636 414 631 q 399 665 394 651 q 419 679 404 679 l 525 675 l 606 679 q 626 661 624 678 q 629 638 629 644 l 561 615 l 382 271 l 382 64 m 425 797 q 390 820 399 797 q 381 869 381 843 q 385 921 381 897 q 390 947 389 944 q 416 952 390 947 q 458 957 442 957 q 492 934 482 957 q 501 883 501 911 q 498 835 501 857 q 493 810 494 813 q 468 803 493 810 q 425 797 443 797 m 219 797 q 184 820 193 797 q 175 869 175 843 q 179 921 175 897 q 185 947 183 944 q 210 952 185 947 q 253 957 236 957 q 286 934 276 957 q 296 883 296 911 q 292 835 296 857 q 288 810 289 813 q 263 803 288 810 q 219 797 238 797 z "},"ỳ":{"ha":650,"x_min":21,"x_max":629,"o":"m 382 64 l 481 43 q 478 17 481 35 q 457 0 475 0 l 336 8 l 213 0 q 190 17 193 0 q 186 43 186 35 l 285 64 l 285 269 l 90 615 l 21 638 q 24 662 21 644 q 47 679 28 679 q 63 678 47 679 q 144 675 78 678 l 251 679 q 271 665 267 679 q 275 636 275 651 l 194 617 l 342 333 l 478 617 q 436 626 458 622 q 394 636 414 631 q 399 665 394 651 q 419 679 404 679 l 525 675 l 606 679 q 626 661 624 678 q 629 638 629 644 l 561 615 l 382 271 l 382 64 m 489 788 l 474 761 q 400 784 449 768 q 297 824 351 800 q 194 876 242 847 q 188 893 188 881 q 194 927 188 907 q 210 965 201 947 q 222 986 219 982 q 350 888 289 933 q 450 815 411 842 q 489 788 489 788 z "},"z":{"ha":665,"x_min":42,"x_max":624,"o":"m 517 68 l 517 151 q 528 167 517 163 q 554 172 540 171 q 574 172 568 172 l 599 21 q 590 3 599 7 q 561 0 581 0 l 113 13 l 68 -12 l 42 17 l 471 607 l 179 607 l 179 531 q 167 515 179 519 q 142 509 156 510 q 122 508 128 508 l 97 660 q 126 679 97 679 l 546 664 l 590 692 l 624 667 l 190 68 l 517 68 z "},"ź":{"ha":665,"x_min":42,"x_max":624,"o":"m 517 68 l 517 151 q 528 167 517 163 q 554 172 540 171 q 574 172 568 172 l 599 21 q 590 3 599 7 q 561 0 581 0 l 113 13 l 68 -12 l 42 17 l 471 607 l 179 607 l 179 531 q 167 515 179 519 q 142 509 156 510 q 122 508 128 508 l 97 660 q 126 679 97 679 l 546 664 l 590 692 l 624 667 l 190 68 l 517 68 m 239 761 l 224 788 q 263 815 224 788 q 363 888 301 842 q 490 986 425 933 q 503 965 494 982 q 518 927 511 947 q 525 893 525 907 q 518 876 525 881 q 417 824 472 847 q 313 784 361 800 q 239 761 264 768 z "},"ž":{"ha":665,"x_min":42,"x_max":624,"o":"m 517 68 l 517 151 q 528 167 517 163 q 554 172 540 171 q 574 172 568 172 l 599 21 q 590 3 599 7 q 561 0 581 0 l 113 13 l 68 -12 l 42 17 l 471 607 l 179 607 l 179 531 q 167 515 179 519 q 142 509 156 510 q 122 508 128 508 l 97 660 q 126 679 97 679 l 546 664 l 590 692 l 624 667 l 190 68 l 517 68 m 367 851 l 510 993 l 544 969 q 390 749 444 839 l 328 749 q 277 849 308 793 q 204 969 246 904 l 242 993 l 367 851 z "},"ż":{"ha":665,"x_min":42,"x_max":624,"o":"m 517 68 l 517 151 q 528 167 517 163 q 554 172 540 171 q 574 172 568 172 l 599 21 q 590 3 599 7 q 561 0 581 0 l 113 13 l 68 -12 l 42 17 l 471 607 l 179 607 l 179 531 q 167 515 179 519 q 142 509 156 510 q 122 508 128 508 l 97 660 q 126 679 97 679 l 546 664 l 590 692 l 624 667 l 190 68 l 517 68 m 392 961 q 428 938 418 961 q 439 883 439 914 q 434 831 439 856 q 429 806 429 806 q 404 799 429 806 q 358 793 379 793 q 319 817 329 793 q 310 869 310 842 q 315 926 310 900 q 321 951 321 951 q 347 956 321 951 q 392 961 372 961 z "},"ﬁ":{"ha":1042,"x_min":76,"x_max":965,"o":"m 518 310 l 269 294 l 260 63 l 378 43 q 375 17 378 35 q 354 0 372 0 l 217 8 l 101 0 q 80 17 83 0 q 76 43 76 35 l 165 63 l 165 617 l 76 636 q 80 662 76 644 q 101 679 83 679 q 124 678 101 679 q 217 675 146 678 l 522 679 q 553 677 542 679 q 564 660 564 675 l 539 513 q 519 513 533 513 q 494 519 506 514 q 482 533 482 524 l 482 614 l 258 611 l 271 367 l 518 367 l 518 310 m 778 617 l 689 636 q 692 662 689 644 q 714 679 696 679 q 736 678 714 679 q 829 675 758 678 q 918 678 894 678 q 942 679 942 679 q 963 662 960 679 q 965 638 965 644 l 876 617 l 876 63 l 965 43 q 963 17 965 35 q 942 0 960 0 l 829 8 l 714 0 q 692 17 696 0 q 689 43 689 35 l 778 63 l 778 617 z "},"ﬂ":{"ha":1226,"x_min":76,"x_max":1182,"o":"m 518 310 l 269 294 l 260 63 l 378 43 q 375 17 378 35 q 354 0 372 0 l 217 8 l 101 0 q 80 17 83 0 q 76 43 76 35 l 165 63 l 165 617 l 76 636 q 80 662 76 644 q 101 679 83 679 q 124 678 101 679 q 217 675 146 678 l 522 679 q 553 677 542 679 q 564 660 564 675 l 539 513 q 519 513 533 513 q 494 519 506 514 q 482 533 482 524 l 482 614 l 258 611 l 271 367 l 518 367 l 518 310 m 1135 0 l 829 8 l 714 0 q 692 17 696 0 q 689 43 689 35 l 778 63 l 778 617 l 689 636 q 694 662 689 644 q 714 679 699 679 l 829 675 l 942 679 q 961 665 957 679 q 965 638 965 651 l 876 617 l 876 68 l 1100 68 l 1124 147 q 1140 167 1128 163 q 1182 171 1153 171 l 1174 17 q 1163 2 1172 6 q 1135 0 1154 -1 z "},"ª":{"ha":435,"x_min":-1,"x_max":433,"o":"m 106 590 l 161 581 q 158 561 161 574 q 140 549 156 549 l 75 551 q 46 550 63 551 q 18 549 29 549 q -1 578 -1 549 l 46 590 l 186 957 l 243 957 l 385 592 l 433 578 q 431 560 433 572 q 413 549 428 549 q 399 549 413 549 q 346 551 386 550 q 292 549 308 550 q 275 549 275 549 q 257 560 260 549 q 254 579 254 572 l 310 592 l 278 678 l 135 669 l 106 590 m 206 874 l 150 718 l 263 718 l 206 874 m 406 485 l 414 446 q 313 421 375 428 q 188 414 251 414 q 106 417 144 414 q 39 425 67 421 l 32 485 l 406 485 z "},"º":{"ha":476,"x_min":25,"x_max":450,"o":"m 231 542 q 83 596 142 542 q 25 756 25 650 q 88 911 25 858 q 240 964 151 964 q 388 914 326 964 q 450 761 450 864 q 388 597 450 651 q 231 542 325 542 m 238 585 q 335 626 296 585 q 374 756 374 668 q 335 878 374 838 q 238 919 296 919 q 194 916 215 919 q 156 907 172 913 q 115 849 131 889 q 100 756 100 808 q 140 626 100 668 q 238 585 179 585 m 203 414 q 121 417 160 414 q 54 425 82 421 l 47 485 l 421 485 l 429 446 q 328 421 390 428 q 203 414 267 414 z "},"Δ":{"ha":907,"x_min":56,"x_max":851,"o":"m 400 972 l 506 972 l 851 0 l 56 0 l 400 972 m 435 860 l 168 81 l 708 81 l 435 860 z "},"Ω":{"ha":1038,"x_min":56,"x_max":982,"o":"m 957 0 l 675 0 l 639 197 q 773 308 725 249 q 840 434 821 368 q 860 565 860 500 q 815 749 860 671 q 692 870 769 826 q 518 914 615 914 q 344 869 421 914 q 222 742 267 824 q 176 551 176 661 q 196 427 176 490 q 263 306 215 364 q 394 197 310 247 l 358 0 l 76 0 q 60 18 63 0 q 57 42 57 36 l 274 72 l 293 174 q 119 326 183 219 q 56 568 56 432 q 92 738 56 661 q 194 872 129 815 q 344 958 258 928 q 526 989 429 989 q 756 938 653 989 q 920 795 858 888 q 982 578 982 703 q 916 333 982 440 q 739 178 850 226 l 760 72 l 976 42 q 974 18 976 36 q 957 0 972 0 z "},"μ":{"ha":707,"x_min":14,"x_max":638,"o":"m 192 -276 l 101 -276 l 101 569 l 33 569 q 19 581 24 569 q 15 604 15 592 q 14 621 14 617 q 35 626 14 621 q 88 636 57 631 q 144 646 118 642 q 178 650 169 650 q 192 636 185 646 q 200 611 200 626 l 200 200 q 235 95 200 125 q 319 65 269 65 q 413 84 363 65 q 507 135 463 103 l 507 569 l 408 569 q 394 581 399 569 q 390 604 390 592 q 389 621 389 617 q 415 626 389 621 q 478 636 442 631 q 544 646 514 642 q 583 650 575 650 q 598 636 590 646 q 606 611 606 626 l 606 93 q 613 55 606 72 q 638 26 619 38 l 621 -17 q 550 4 582 -17 q 510 72 518 25 q 383 3 438 24 q 319 -17 328 -17 q 239 -7 274 -17 q 178 21 204 3 l 192 -276 z "},"π":{"ha":724,"x_min":28,"x_max":689,"o":"m 474 271 l 472 554 l 244 554 l 244 0 l 146 0 l 146 554 l 47 554 q 33 565 38 554 q 28 589 29 576 q 28 606 28 601 q 54 610 28 606 q 117 621 81 615 q 183 631 153 626 q 222 635 214 635 l 494 635 q 533 631 503 635 q 600 621 564 626 q 663 610 636 615 q 689 606 689 606 q 688 589 689 601 q 683 565 688 576 q 669 554 679 554 l 572 554 l 572 267 q 574 177 572 210 q 583 122 576 144 q 600 74 589 99 q 628 10 611 50 l 590 -17 q 519 84 544 43 q 483 167 493 125 q 474 271 474 210 z "},"⁄":{"ha":424,"x_min":-83,"x_max":507,"o":"m -83 -289 l 425 933 l 507 933 l -1 -289 l -83 -289 z "},"½":{"ha":1375,"x_min":82,"x_max":1283,"o":"m 394 -78 l 832 972 l 903 972 l 465 -78 l 394 -78 m 1254 438 q 1224 324 1254 376 q 1145 225 1193 271 q 1043 138 1097 179 l 940 60 l 943 53 l 1210 74 l 1210 132 q 1229 153 1210 150 q 1254 156 1249 156 q 1259 137 1254 156 q 1269 93 1264 118 q 1279 47 1275 68 q 1283 19 1283 25 q 1277 5 1282 10 q 1254 0 1272 0 l 857 0 l 829 38 l 1026 215 q 1088 276 1057 243 q 1140 350 1119 310 q 1161 438 1161 390 q 1126 516 1161 493 q 1046 539 1090 539 q 944 518 990 539 l 947 458 q 936 447 947 451 q 913 440 925 442 q 894 438 900 438 q 890 453 894 438 q 881 490 886 468 q 872 531 876 511 q 867 560 868 551 q 951 588 903 578 q 1047 599 1000 599 q 1145 583 1097 599 q 1224 532 1193 567 q 1254 438 1254 497 m 349 392 l 476 364 q 474 340 476 358 q 451 321 471 321 l 293 325 l 119 321 q 99 340 101 321 q 96 364 96 358 l 261 392 l 261 844 l 118 808 q 100 820 108 808 q 87 845 92 832 q 82 863 82 858 q 105 869 82 863 q 163 883 128 875 q 233 900 197 892 q 294 914 268 908 q 326 919 321 919 q 342 908 335 917 q 349 883 349 899 l 349 392 z "},"⅓":{"ha":1375,"x_min":82,"x_max":1260,"o":"m 406 -78 l 843 972 l 914 972 l 476 -78 l 406 -78 m 974 276 l 965 324 q 1101 370 1058 335 q 1144 453 1144 406 q 1118 515 1144 490 q 1043 539 1092 539 q 997 533 1019 539 q 956 519 974 528 l 958 458 q 947 447 958 451 q 922 440 935 442 q 904 438 910 438 q 900 454 904 438 q 891 494 896 471 q 882 537 886 518 q 876 560 878 556 q 958 588 913 578 q 1047 599 1004 599 q 1136 585 1093 599 q 1207 539 1179 571 q 1235 454 1235 507 q 1206 372 1235 408 q 1135 311 1176 335 q 1228 251 1196 293 q 1260 163 1260 210 q 1229 69 1260 108 q 1150 10 1199 31 q 1047 -11 1101 -11 q 945 0 997 -11 q 854 28 893 11 q 860 52 854 33 q 872 94 865 71 q 883 133 878 117 q 890 150 889 150 q 915 146 896 150 q 933 129 933 142 l 931 69 q 1043 49 976 49 q 1130 76 1090 49 q 1169 158 1169 103 q 1119 241 1169 207 q 974 276 1068 275 m 349 392 l 476 364 q 474 340 476 358 q 451 321 471 321 l 293 325 l 119 321 q 99 340 101 321 q 96 364 96 358 l 261 392 l 261 844 l 118 808 q 100 820 108 808 q 87 845 92 832 q 82 863 82 858 q 105 869 82 863 q 163 883 128 875 q 233 900 197 892 q 294 914 268 908 q 326 919 321 919 q 342 908 335 917 q 349 883 349 899 l 349 392 z "},"⅔":{"ha":1375,"x_min":93,"x_max":1260,"o":"m 456 -78 l 893 972 l 964 972 l 526 -78 l 456 -78 m 974 276 l 965 324 q 1101 370 1058 335 q 1144 453 1144 406 q 1118 515 1144 490 q 1043 539 1092 539 q 997 533 1019 539 q 956 519 974 528 l 958 458 q 947 447 958 451 q 922 440 935 442 q 904 438 910 438 q 900 454 904 438 q 891 494 896 471 q 882 537 886 518 q 876 560 878 556 q 958 588 913 578 q 1047 599 1004 599 q 1136 585 1093 599 q 1207 539 1179 571 q 1235 454 1235 507 q 1206 372 1235 408 q 1135 311 1176 335 q 1228 251 1196 293 q 1260 163 1260 210 q 1229 69 1260 108 q 1150 10 1199 31 q 1047 -11 1101 -11 q 945 0 997 -11 q 854 28 893 11 q 860 52 854 33 q 872 94 865 71 q 883 133 878 117 q 890 150 889 150 q 915 146 896 150 q 933 129 933 142 l 931 69 q 1043 49 976 49 q 1130 76 1090 49 q 1169 158 1169 103 q 1119 241 1169 207 q 974 276 1068 275 m 518 758 q 488 644 518 697 q 409 546 457 592 q 307 458 361 500 l 204 381 l 207 374 l 474 394 l 474 453 q 493 474 474 471 q 518 476 513 476 q 523 458 518 476 q 533 414 528 439 q 543 367 539 389 q 547 340 547 346 q 541 326 546 331 q 518 321 536 321 l 121 321 l 93 358 l 290 536 q 352 597 321 564 q 404 671 383 631 q 425 758 425 711 q 390 837 425 814 q 310 860 354 860 q 208 839 254 860 l 211 779 q 200 767 211 772 q 176 760 189 763 q 158 758 164 758 q 154 774 158 758 q 145 810 150 789 q 136 852 140 832 q 131 881 132 872 q 215 909 167 899 q 311 919 264 919 q 409 903 361 919 q 488 853 457 888 q 518 758 518 818 z "},"¼":{"ha":1375,"x_min":82,"x_max":1269,"o":"m 426 -78 l 864 972 l 935 972 l 497 -78 l 426 -78 m 1174 63 l 1257 43 q 1254 19 1257 38 q 1233 0 1251 1 l 1131 4 l 1013 0 q 992 19 994 0 q 989 43 989 38 l 1090 63 l 1090 128 l 843 128 q 819 132 829 128 q 810 150 810 136 q 815 166 810 151 q 838 225 819 181 q 892 362 856 269 q 992 610 929 454 l 1075 585 l 893 183 l 1090 183 l 1090 397 q 1104 400 1090 397 q 1135 405 1118 403 q 1161 407 1151 407 q 1172 393 1171 401 q 1174 371 1174 385 l 1174 183 l 1269 183 l 1269 128 l 1174 128 l 1174 63 m 349 392 l 476 364 q 474 340 476 358 q 451 321 471 321 l 293 325 l 119 321 q 99 340 101 321 q 96 364 96 358 l 261 392 l 261 844 l 118 808 q 100 820 108 808 q 87 845 92 832 q 82 863 82 858 q 105 869 82 863 q 163 883 128 875 q 233 900 197 892 q 294 914 268 908 q 326 919 321 919 q 342 908 335 917 q 349 883 349 899 l 349 392 z "},"¾":{"ha":1375,"x_min":79,"x_max":1269,"o":"m 435 -78 l 872 972 l 943 972 l 506 -78 l 435 -78 m 1174 63 l 1257 43 q 1254 19 1257 38 q 1233 0 1251 1 l 1131 4 l 1013 0 q 992 19 994 0 q 989 43 989 38 l 1090 63 l 1090 128 l 843 128 q 819 132 829 128 q 810 150 810 136 q 815 166 810 151 q 838 225 819 181 q 892 362 856 269 q 992 610 929 454 l 1075 585 l 893 183 l 1090 183 l 1090 397 q 1104 400 1090 397 q 1135 405 1118 403 q 1161 407 1151 407 q 1172 393 1171 401 q 1174 371 1174 385 l 1174 183 l 1269 183 l 1269 128 l 1174 128 l 1174 63 m 199 597 l 190 644 q 326 691 283 656 q 369 774 369 726 q 343 835 369 811 q 268 860 317 860 q 222 854 244 860 q 181 840 199 849 l 183 779 q 172 767 183 772 q 147 760 160 763 q 129 758 135 758 q 125 775 129 758 q 116 815 121 792 q 107 858 111 839 q 101 881 103 876 q 183 909 138 899 q 272 919 229 919 q 361 906 318 919 q 432 860 404 892 q 460 775 460 828 q 431 692 460 729 q 360 632 401 656 q 453 572 421 614 q 485 483 485 531 q 454 390 485 429 q 375 331 424 351 q 272 310 326 310 q 170 321 222 310 q 79 349 118 332 q 85 373 79 354 q 97 415 90 392 q 108 454 103 438 q 115 471 114 471 q 140 467 121 471 q 158 450 158 463 l 156 390 q 268 369 201 369 q 355 397 315 369 q 394 479 394 424 q 344 562 394 528 q 199 597 293 596 z "},"⅛":{"ha":1375,"x_min":82,"x_max":1268,"o":"m 426 -78 l 864 972 l 935 972 l 497 -78 l 426 -78 m 846 147 q 872 230 846 183 q 956 311 897 276 q 892 372 917 336 q 867 453 867 408 q 917 556 867 513 q 1061 599 968 599 q 1195 557 1143 599 q 1247 451 1247 515 q 1226 378 1247 421 q 1153 304 1204 336 q 1233 240 1197 278 q 1268 144 1268 201 q 1210 35 1268 82 q 1051 -11 1151 -11 q 902 35 958 -11 q 846 147 846 81 m 956 451 q 979 398 956 421 q 1035 360 1003 375 l 1099 329 q 1144 388 1129 353 q 1158 450 1158 422 q 1134 508 1158 482 q 1060 535 1110 535 q 982 512 1008 535 q 956 451 956 489 m 1103 240 l 1010 285 q 958 220 975 257 q 940 153 940 183 q 978 72 940 99 q 1060 46 1015 46 q 1138 70 1103 46 q 1174 142 1174 94 q 1156 200 1174 178 q 1103 240 1139 222 m 349 392 l 476 364 q 474 340 476 358 q 451 321 471 321 l 293 325 l 119 321 q 99 340 101 321 q 96 364 96 358 l 261 392 l 261 844 l 118 808 q 100 820 108 808 q 87 845 92 832 q 82 863 82 858 q 105 869 82 863 q 163 883 128 875 q 233 900 197 892 q 294 914 268 908 q 326 919 321 919 q 342 908 335 917 q 349 883 349 899 l 349 392 z "},"⅜":{"ha":1375,"x_min":100,"x_max":1268,"o":"m 426 -78 l 864 972 l 935 972 l 497 -78 l 426 -78 m 846 147 q 872 230 846 183 q 956 311 897 276 q 892 372 917 336 q 867 453 867 408 q 917 556 867 513 q 1061 599 968 599 q 1195 557 1143 599 q 1247 451 1247 515 q 1226 378 1247 421 q 1153 304 1204 336 q 1233 240 1197 278 q 1268 144 1268 201 q 1210 35 1268 82 q 1051 -11 1151 -11 q 902 35 958 -11 q 846 147 846 81 m 956 451 q 979 398 956 421 q 1035 360 1003 375 l 1099 329 q 1144 388 1129 353 q 1158 450 1158 422 q 1134 508 1158 482 q 1060 535 1110 535 q 982 512 1008 535 q 956 451 956 489 m 1103 240 l 1010 285 q 958 220 975 257 q 940 153 940 183 q 978 72 940 99 q 1060 46 1015 46 q 1138 70 1103 46 q 1174 142 1174 94 q 1156 200 1174 178 q 1103 240 1139 222 m 219 597 l 211 644 q 347 691 304 656 q 390 774 390 726 q 364 835 390 811 q 289 860 338 860 q 242 854 265 860 q 201 840 219 849 l 204 779 q 192 767 204 772 q 168 760 181 763 q 150 758 156 758 q 146 775 150 758 q 137 815 142 792 q 128 858 132 839 q 122 881 124 876 q 204 909 158 899 q 293 919 250 919 q 382 906 339 919 q 453 860 425 892 q 481 775 481 828 q 451 692 481 729 q 381 632 422 656 q 474 572 442 614 q 506 483 506 531 q 475 390 506 429 q 396 331 444 351 q 293 310 347 310 q 191 321 243 310 q 100 349 139 332 q 106 373 100 354 q 117 415 111 392 q 129 454 124 438 q 136 471 135 471 q 160 467 142 471 q 179 450 179 463 l 176 390 q 289 369 222 369 q 376 397 336 369 q 415 479 415 424 q 365 562 415 528 q 219 597 314 596 z "},"⅝":{"ha":1375,"x_min":93,"x_max":1268,"o":"m 426 -78 l 864 972 l 935 972 l 497 -78 l 426 -78 m 846 147 q 872 230 846 183 q 956 311 897 276 q 892 372 917 336 q 867 453 867 408 q 917 556 867 513 q 1061 599 968 599 q 1195 557 1143 599 q 1247 451 1247 515 q 1226 378 1247 421 q 1153 304 1204 336 q 1233 240 1197 278 q 1268 144 1268 201 q 1210 35 1268 82 q 1051 -11 1151 -11 q 902 35 958 -11 q 846 147 846 81 m 956 451 q 979 398 956 421 q 1035 360 1003 375 l 1099 329 q 1144 388 1129 353 q 1158 450 1158 422 q 1134 508 1158 482 q 1060 535 1110 535 q 982 512 1008 535 q 956 451 956 489 m 1103 240 l 1010 285 q 958 220 975 257 q 940 153 940 183 q 978 72 940 99 q 1060 46 1015 46 q 1138 70 1103 46 q 1174 142 1174 94 q 1156 200 1174 178 q 1103 240 1139 222 m 139 644 l 147 899 l 464 908 q 488 905 479 908 q 497 889 496 901 q 493 862 497 883 q 483 815 489 840 q 472 772 476 790 q 465 754 467 754 q 451 755 463 754 q 431 760 440 756 q 421 775 421 765 l 421 836 l 222 847 l 203 683 q 219 685 208 685 q 238 685 229 685 q 398 658 339 685 q 483 588 457 631 q 508 494 508 544 q 478 395 508 436 q 400 332 449 354 q 293 310 351 310 q 180 321 226 310 q 93 347 133 332 q 99 372 93 353 q 110 415 104 392 q 122 454 117 438 q 129 471 128 471 q 154 467 135 471 q 174 450 174 463 l 169 390 q 220 375 193 381 q 272 369 247 369 q 373 400 329 369 q 417 493 417 431 q 374 584 417 546 q 249 622 331 622 q 210 622 231 622 q 171 618 189 621 l 139 644 z "},"⅞":{"ha":1375,"x_min":160,"x_max":1268,"o":"m 400 -78 l 838 972 l 908 972 l 471 -78 l 400 -78 m 846 147 q 872 230 846 183 q 956 311 897 276 q 892 372 917 336 q 867 453 867 408 q 917 556 867 513 q 1061 599 968 599 q 1195 557 1143 599 q 1247 451 1247 515 q 1226 378 1247 421 q 1153 304 1204 336 q 1233 240 1197 278 q 1268 144 1268 201 q 1210 35 1268 82 q 1051 -11 1151 -11 q 902 35 958 -11 q 846 147 846 81 m 956 451 q 979 398 956 421 q 1035 360 1003 375 l 1099 329 q 1144 388 1129 353 q 1158 450 1158 422 q 1134 508 1158 482 q 1060 535 1110 535 q 982 512 1008 535 q 956 451 956 489 m 1103 240 l 1010 285 q 958 220 975 257 q 940 153 940 183 q 978 72 940 99 q 1060 46 1015 46 q 1138 70 1103 46 q 1174 142 1174 94 q 1156 200 1174 178 q 1103 240 1139 222 m 310 308 l 219 331 l 489 843 l 235 836 l 235 775 q 216 757 235 760 q 190 754 197 754 q 185 772 190 754 q 174 815 181 790 q 164 862 168 840 q 160 889 160 883 q 170 905 163 901 q 193 908 178 908 l 524 899 l 540 925 l 579 899 l 310 308 z "},"₀":{"ha":569,"x_min":47,"x_max":517,"o":"m 517 165 q 448 -72 517 6 q 274 -150 379 -150 q 112 -74 176 -150 q 47 157 47 1 q 79 324 47 257 q 166 426 111 392 q 286 460 221 460 q 402 428 350 460 q 485 331 454 396 q 517 165 517 265 m 425 154 q 388 338 425 278 q 282 397 351 397 q 176 338 213 397 q 139 154 139 278 q 282 -87 139 -87 q 425 154 425 -87 z "},"₁":{"ha":569,"x_min":82,"x_max":476,"o":"m 349 -68 l 476 -96 q 474 -120 476 -101 q 451 -139 471 -139 l 293 -135 l 119 -139 q 99 -120 101 -139 q 96 -96 96 -101 l 261 -68 l 261 385 l 118 349 q 100 360 108 349 q 87 385 92 372 q 82 403 82 399 q 105 409 82 403 q 163 424 128 415 q 233 440 197 432 q 294 454 268 449 q 326 460 321 460 q 342 448 335 457 q 349 424 349 439 l 349 -68 z "},"₂":{"ha":569,"x_min":44,"x_max":499,"o":"m 469 299 q 439 185 469 238 q 360 86 408 132 q 258 -1 313 40 l 156 -79 l 158 -86 l 425 -65 l 425 -7 q 444 14 425 11 q 469 17 464 17 q 474 -2 469 17 q 485 -46 479 -21 q 494 -92 490 -71 q 499 -119 499 -114 q 492 -134 497 -129 q 469 -139 488 -139 l 72 -139 l 44 -101 l 242 76 q 303 137 272 104 q 356 210 335 169 q 376 299 376 251 q 341 377 376 354 q 261 400 306 400 q 160 379 206 400 l 163 319 q 151 308 163 313 q 128 301 140 303 q 110 299 115 299 q 106 314 110 299 q 97 351 101 329 q 88 392 92 372 q 82 421 83 413 q 167 449 118 439 q 263 460 215 460 q 360 444 313 460 q 439 393 408 428 q 469 299 469 358 z "}}}
